Bitter-Black.ufo
<glyph name="quotesingle" format="2">
  <advance width="272"/>
  <unicode hex="0027"/>
  <outline>
    <contour>
      <point x="77" y="477" type="line"/>
      <point x="195" y="477" type="line"/>
      <point x="222" y="780" type="line"/>
      <point x="50" y="780" type="line"/>
    </contour>
  </outline>
</glyph>
<glyph name="plus" format="2">
  <advance width="522"/>
  <unicode hex="002B"/>
  <outline>
    <contour>
      <point x="216" y="421" type="line"/>
      <point x="19" y="421" type="line"/>
      <point x="19" y="281" type="line"/>
      <point x="216" y="281" type="line"/>
      <point x="186" y="311" type="line"/>
      <point x="186" y="104" type="line"/>
      <point x="336" y="104" type="line"/>
      <point x="336" y="311" type="line"/>
      <point x="306" y="281" type="line"/>
      <point x="503" y="281" type="line"/>
      <point x="503" y="421" type="line"/>
      <point x="306" y="421" type="line"/>
      <point x="336" y="391" type="line"/>
      <point x="336" y="598" type="line"/>
      <point x="186" y="598" type="line"/>
      <point x="186" y="391" type="line"/>
    </contour>
  </outline>
</glyph>
<glyph name="hyphen" format="2">
  <advance width="434"/>
  <unicode hex="002D"/>
  <outline>
    <contour>
      <point x="387" y="368" type="line"/>
      <point x="47" y="368" type="line"/>
      <point x="47" y="218" type="line"/>
      <point x="387" y="218" type="line"/>
    </contour>
  </outline>
</glyph>
<glyph name="period" format="2">
  <advance width="254"/>
  <unicode hex="002E"/>
  <outline>
    <contour>
      <point x="20" y="89" type="curve" smooth="yes"/>
      <point x="20" y="26"/>
      <point x="61" y="-15"/>
      <point x="127" y="-15" type="curve" smooth="yes"/>
      <point x="184" y="-15"/>
      <point x="234" y="26"/>
      <point x="234" y="89" type="curve" smooth="yes"/>
      <point x="234" y="151"/>
      <point x="193" y="193"/>
      <point x="127" y="193" type="curve" smooth="yes"/>
      <point x="70" y="193"/>
      <point x="20" y="151"/>
    </contour>
  </outline>
</glyph>
<glyph name="three" format="2">
  <advance width="582"/>
  <unicode hex="0033"/>
  <outline>
    <contour>
      <point x="255" y="-15" type="curve" smooth="yes"/>
      <point x="413" y="-15"/>
      <point x="561" y="50"/>
      <point x="561" y="210" type="curve" smooth="yes"/>
      <point x="561" y="317"/>
      <point x="496" y="371"/>
      <point x="355" y="381" type="curve"/>
      <point x="363" y="364" type="line"/>
      <point x="474" y="376"/>
      <point x="549" y="435"/>
      <point x="549" y="543" type="curve" smooth="yes"/>
      <point x="549" y="677"/>
      <point x="434" y="725"/>
      <point x="290" y="725" type="curve" smooth="yes"/>
      <point x="209" y="725"/>
      <point x="119" y="710"/>
      <point x="32" y="682" type="curve"/>
      <point x="41" y="495" type="line"/>
      <point x="161" y="495" type="line"/>
      <point x="175" y="585" type="line"/>
      <point x="150" y="561" type="line"/>
      <point x="181" y="571"/>
      <point x="212" y="580"/>
      <point x="247" y="580" type="curve" smooth="yes"/>
      <point x="301" y="580"/>
      <point x="342" y="559"/>
      <point x="342" y="507" type="curve" smooth="yes"/>
      <point x="342" y="456"/>
      <point x="303" y="434"/>
      <point x="238" y="434" type="curve" smooth="yes"/>
      <point x="156" y="434" type="line"/>
      <point x="156" y="292" type="line"/>
      <point x="247" y="292" type="line" smooth="yes"/>
      <point x="315" y="292"/>
      <point x="353" y="270"/>
      <point x="353" y="219" type="curve" smooth="yes"/>
      <point x="353" y="162"/>
      <point x="307" y="141"/>
      <point x="244" y="141" type="curve" smooth="yes"/>
      <point x="189" y="141"/>
      <point x="123" y="157"/>
      <point x="63" y="181" type="curve"/>
      <point x="12" y="40" type="line"/>
      <point x="85" y="4"/>
      <point x="169" y="-15"/>
    </contour>
  </outline>
</glyph>
<glyph name="six" format="2">
  <advance width="596"/>
  <unicode hex="0036"/>
  <outline>
    <contour>
      <point x="207" y="276" type="line"/>
      <point x="238" y="299"/>
      <point x="269" y="309"/>
      <point x="297" y="309" type="curve" smooth="yes"/>
      <point x="345" y="309"/>
      <point x="376" y="279"/>
      <point x="376" y="224" type="curve" smooth="yes"/>
      <point x="376" y="167"/>
      <point x="349" y="140"/>
      <point x="307" y="140" type="curve" smooth="yes"/>
      <point x="248" y="140"/>
      <point x="229" y="194"/>
      <point x="229" y="307" type="curve" smooth="yes"/>
      <point x="229" y="489"/>
      <point x="276" y="570"/>
      <point x="420" y="570" type="curve" smooth="yes"/>
      <point x="447" y="570"/>
      <point x="479" y="567"/>
      <point x="514" y="561" type="curve"/>
      <point x="527" y="706" type="line"/>
      <point x="479" y="719"/>
      <point x="434" y="725"/>
      <point x="391" y="725" type="curve" smooth="yes"/>
      <point x="172" y="725"/>
      <point x="19" y="572"/>
      <point x="19" y="315" type="curve" smooth="yes"/>
      <point x="19" y="75"/>
      <point x="153" y="-15"/>
      <point x="308" y="-15" type="curve" smooth="yes"/>
      <point x="463" y="-15"/>
      <point x="586" y="75"/>
      <point x="586" y="233" type="curve" smooth="yes"/>
      <point x="586" y="375"/>
      <point x="487" y="449"/>
      <point x="366" y="449" type="curve" smooth="yes"/>
      <point x="303" y="449"/>
      <point x="247" y="429"/>
      <point x="197" y="406" type="curve"/>
    </contour>
  </outline>
</glyph>
<glyph name="seven" format="2">
  <advance width="573"/>
  <unicode hex="0037"/>
  <outline>
    <contour>
      <point x="565" y="568" type="line"/>
      <point x="565" y="710" type="line"/>
      <point x="14" y="710" type="line"/>
      <point x="14" y="458" type="line"/>
      <point x="136" y="458" type="line"/>
      <point x="164" y="579" type="line"/>
      <point x="122" y="550" type="line"/>
      <point x="381" y="550" type="line"/>
      <point x="354" y="579" type="line"/>
      <point x="92" y="0" type="line"/>
      <point x="318" y="0" type="line"/>
    </contour>
  </outline>
</glyph>
<glyph name="D" format="2">
  <advance width="706"/>
  <unicode hex="0044"/>
  <guideline x="726" y="291" angle="90"/>
  <anchor x="329" y="0" name="bottom"/>
  <anchor x="204" y="360" name="center"/>
  <anchor x="309" y="710" name="top"/>
  <outline>
    <contour>
      <point x="354" y="710" type="curve" smooth="yes"/>
      <point x="289" y="710" type="line"/>
      <point x="24" y="705" type="line"/>
      <point x="24" y="605" type="line"/>
      <point x="112" y="570" type="line"/>
      <point x="84" y="610" type="line"/>
      <point x="84" y="95" type="line"/>
      <point x="110" y="134" type="line"/>
      <point x="24" y="100" type="line"/>
      <point x="24" y="0" type="line"/>
      <point x="329" y="0" type="line" smooth="yes"/>
      <point x="555" y="0"/>
      <point x="685" y="130"/>
      <point x="685" y="369" type="curve" smooth="yes"/>
      <point x="685" y="590"/>
      <point x="570" y="710"/>
    </contour>
    <contour>
      <point x="339" y="145" type="curve" smooth="yes"/>
      <point x="259" y="145" type="line"/>
      <point x="289" y="115" type="line"/>
      <point x="289" y="595" type="line"/>
      <point x="259" y="565" type="line"/>
      <point x="349" y="565" type="line" smooth="yes"/>
      <point x="395" y="565"/>
      <point x="465" y="565"/>
      <point x="465" y="358" type="curve" smooth="yes"/>
      <point x="465" y="145"/>
      <point x="391" y="145"/>
    </contour>
  </outline>
</glyph>
<glyph name="K" format="2">
  <advance width="726"/>
  <unicode hex="004B"/>
  <anchor x="361" y="0" name="bottom"/>
  <anchor x="361" y="710" name="top"/>
  <outline>
    <contour>
      <point x="692" y="91" type="line"/>
      <point x="489" y="395" type="line"/>
      <point x="489" y="346" type="line"/>
      <point x="651" y="607" type="line"/>
      <point x="610" y="574" type="line"/>
      <point x="692" y="610" type="line"/>
      <point x="692" y="710" type="line"/>
      <point x="395" y="705" type="line"/>
      <point x="395" y="605" type="line"/>
      <point x="468" y="580" type="line"/>
      <point x="453" y="609" type="line"/>
      <point x="336" y="404" type="line"/>
      <point x="386" y="435" type="line"/>
      <point x="259" y="435" type="line"/>
      <point x="289" y="404" type="line"/>
      <point x="289" y="616" type="line"/>
      <point x="266" y="574" type="line"/>
      <point x="344" y="612" type="line"/>
      <point x="344" y="710" type="line"/>
      <point x="24" y="705" type="line"/>
      <point x="24" y="605" type="line"/>
      <point x="103" y="575" type="line"/>
      <point x="84" y="611" type="line"/>
      <point x="84" y="95" type="line"/>
      <point x="104" y="132" type="line"/>
      <point x="24" y="100" type="line"/>
      <point x="24" y="0" type="line"/>
      <point x="344" y="0" type="line"/>
      <point x="344" y="100" type="line"/>
      <point x="265" y="137" type="line"/>
      <point x="289" y="95" type="line"/>
      <point x="289" y="329" type="line"/>
      <point x="259" y="290" type="line"/>
      <point x="369" y="290" type="line"/>
      <point x="318" y="329" type="line"/>
      <point x="457" y="99" type="line"/>
      <point x="460" y="133" type="line"/>
      <point x="398" y="100" type="line"/>
      <point x="398" y="0" type="line"/>
      <point x="716" y="0" type="line"/>
      <point x="716" y="100" type="line"/>
      <point x="639" y="133" type="line"/>
    </contour>
  </outline>
</glyph>
<glyph name="N" format="2">
  <advance width="752"/>
  <unicode hex="004E"/>
  <anchor x="382" y="0" name="bottom"/>
  <anchor x="387" y="710" name="top"/>
  <outline>
    <contour>
      <point x="452" y="705" type="line"/>
      <point x="452" y="605" type="line"/>
      <point x="541" y="570" type="line"/>
      <point x="512" y="610" type="line"/>
      <point x="512" y="228" type="line"/>
      <point x="541" y="228" type="line"/>
      <point x="327" y="710" type="line"/>
      <point x="24" y="705" type="line"/>
      <point x="24" y="605" type="line"/>
      <point x="102" y="574" type="line"/>
      <point x="84" y="610" type="line"/>
      <point x="84" y="95" type="line"/>
      <point x="113" y="135" type="line"/>
      <point x="24" y="100" type="line"/>
      <point x="24" y="0" type="line"/>
      <point x="312" y="0" type="line"/>
      <point x="312" y="100" type="line"/>
      <point x="223" y="135" type="line"/>
      <point x="252" y="95" type="line"/>
      <point x="252" y="495" type="line"/>
      <point x="224" y="495" type="line"/>
      <point x="443" y="0" type="line"/>
      <point x="680" y="0" type="line"/>
      <point x="680" y="611" type="line"/>
      <point x="653" y="570" type="line"/>
      <point x="740" y="610" type="line"/>
      <point x="740" y="710" type="line"/>
    </contour>
  </outline>
</glyph>
<glyph name="U" format="2">
  <advance width="736"/>
  <unicode hex="0055"/>
  <anchor x="364" y="0" name="bottom"/>
  <anchor x="483" y="0" name="ogonek"/>
  <anchor x="371" y="710" name="top"/>
  <anchor x="611" y="707" name="topright"/>
  <outline>
    <contour>
      <point x="403" y="705" type="line"/>
      <point x="403" y="605" type="line"/>
      <point x="479" y="575" type="line"/>
      <point x="463" y="621" type="line"/>
      <point x="463" y="285" type="line" smooth="yes"/>
      <point x="463" y="183"/>
      <point x="444" y="140"/>
      <point x="365" y="140" type="curve" smooth="yes"/>
      <point x="289" y="140"/>
      <point x="273" y="180"/>
      <point x="273" y="270" type="curve" smooth="yes"/>
      <point x="273" y="620" type="line"/>
      <point x="255" y="572" type="line"/>
      <point x="333" y="610" type="line"/>
      <point x="333" y="710" type="line"/>
      <point x="8" y="705" type="line"/>
      <point x="8" y="605" type="line"/>
      <point x="89" y="573" type="line"/>
      <point x="68" y="620" type="line"/>
      <point x="68" y="270" type="line" smooth="yes"/>
      <point x="68" y="191"/>
      <point x="68" y="-15"/>
      <point x="362" y="-15" type="curve" smooth="yes"/>
      <point x="555" y="-15"/>
      <point x="668" y="74"/>
      <point x="668" y="285" type="curve" smooth="yes"/>
      <point x="668" y="621" type="line"/>
      <point x="647" y="572" type="line"/>
      <point x="728" y="610" type="line"/>
      <point x="728" y="710" type="line"/>
    </contour>
  </outline>
</glyph>
<glyph name="Z" format="2">
  <advance width="630"/>
  <unicode hex="005A"/>
  <anchor x="316" y="0" name="bottom"/>
  <anchor x="316" y="710" name="top"/>
  <outline>
    <contour>
      <point x="24" y="0" type="line"/>
      <point x="597" y="0" type="line"/>
      <point x="597" y="230" type="line"/>
      <point x="475" y="230" type="line"/>
      <point x="455" y="120" type="line"/>
      <point x="494" y="147" type="line"/>
      <point x="241" y="147" type="line"/>
      <point x="247" y="117" type="line"/>
      <point x="594" y="576" type="line"/>
      <point x="594" y="710" type="line"/>
      <point x="47" y="710" type="line"/>
      <point x="47" y="480" type="line"/>
      <point x="167" y="480" type="line"/>
      <point x="194" y="583" type="line"/>
      <point x="149" y="563" type="line"/>
      <point x="393" y="563" type="line"/>
      <point x="372" y="585" type="line"/>
      <point x="24" y="135" type="line"/>
    </contour>
  </outline>
</glyph>
<glyph name="bracketleft" format="2">
  <advance width="351"/>
  <unicode hex="005B"/>
  <guideline x="317" y="872" angle="0"/>
  <guideline x="223" y="-118" angle="0"/>
  <outline>
    <contour>
      <point x="58" y="-118" type="line"/>
      <point x="346" y="-113" type="line"/>
      <point x="346" y="7" type="line"/>
      <point x="228" y="17" type="line"/>
      <point x="228" y="737" type="line"/>
      <point x="346" y="747" type="line"/>
      <point x="346" y="867" type="line"/>
      <point x="58" y="872" type="line"/>
    </contour>
  </outline>
</glyph>
<glyph name="bracketright" format="2">
  <advance width="351"/>
  <unicode hex="005D"/>
  <guideline x="317" y="882" angle="0" identifier="DJrdJXWwEs"/>
  <guideline x="223" y="-118" angle="0" identifier="HwlXA2kk5B"/>
  <outline>
    <contour>
      <point x="293" y="872" type="line"/>
      <point x="5" y="867" type="line"/>
      <point x="5" y="747" type="line"/>
      <point x="123" y="737" type="line"/>
      <point x="123" y="17" type="line"/>
      <point x="5" y="7" type="line"/>
      <point x="5" y="-113" type="line"/>
      <point x="293" y="-118" type="line"/>
    </contour>
  </outline>
</glyph>
<glyph name="asciicircum" format="2">
  <advance width="543"/>
  <unicode hex="005E"/>
  <outline>
    <contour>
      <point x="1" y="540" type="line"/>
      <point x="179" y="540" type="line"/>
      <point x="317" y="828" type="line"/>
      <point x="221" y="828" type="line"/>
      <point x="359" y="540" type="line"/>
      <point x="542" y="540" type="line"/>
      <point x="343" y="900" type="line"/>
      <point x="198" y="900" type="line"/>
    </contour>
  </outline>
</glyph>
<glyph name="d" format="2">
  <advance width="615"/>
  <unicode hex="0064"/>
  <anchor x="322" y="0" name="bottom"/>
  <anchor x="312" y="270" name="center"/>
  <anchor x="593" y="780" name="topright"/>
  <outline>
    <contour>
      <point x="214" y="-15" type="curve" smooth="yes"/>
      <point x="280" y="-15"/>
      <point x="335" y="14"/>
      <point x="392" y="71" type="curve"/>
      <point x="372" y="77" type="line"/>
      <point x="397" y="-10" type="line"/>
      <point x="608" y="0" type="line"/>
      <point x="608" y="100" type="line"/>
      <point x="531" y="134" type="line"/>
      <point x="553" y="108" type="line"/>
      <point x="553" y="785" type="line"/>
      <point x="293" y="775" type="line"/>
      <point x="293" y="675" type="line"/>
      <point x="365" y="643" type="line"/>
      <point x="353" y="660" type="line"/>
      <point x="353" y="531" type="line"/>
      <point x="388" y="552" type="line"/>
      <point x="365" y="554"/>
      <point x="344" y="555"/>
      <point x="323" y="555" type="curve" smooth="yes"/>
      <point x="126" y="555"/>
      <point x="16" y="463"/>
      <point x="16" y="255" type="curve" smooth="yes"/>
      <point x="16" y="78"/>
      <point x="96" y="-15"/>
    </contour>
    <contour>
      <point x="294" y="130" type="curve" smooth="yes"/>
      <point x="245" y="130"/>
      <point x="224" y="188"/>
      <point x="224" y="274" type="curve" smooth="yes"/>
      <point x="224" y="359"/>
      <point x="245" y="415"/>
      <point x="317" y="415" type="curve" smooth="yes"/>
      <point x="334" y="415"/>
      <point x="355" y="412"/>
      <point x="376" y="407" type="curve"/>
      <point x="353" y="452" type="line"/>
      <point x="353" y="113" type="line"/>
      <point x="376" y="170" type="line"/>
      <point x="344" y="144"/>
      <point x="318" y="130"/>
    </contour>
  </outline>
</glyph>
<glyph name="f" format="2">
  <advance width="400"/>
  <unicode hex="0066"/>
  <outline>
    <contour>
      <point x="24" y="0" type="line"/>
      <point x="344" y="0" type="line"/>
      <point x="344" y="100" type="line"/>
      <point x="263" y="128" type="line"/>
      <point x="279" y="110" type="line"/>
      <point x="279" y="424" type="line"/>
      <point x="262" y="405" type="line"/>
      <point x="386" y="405" type="line"/>
      <point x="389" y="535" type="line"/>
      <point x="255" y="535" type="line"/>
      <point x="279" y="513" type="line"/>
      <point x="279" y="574" type="line" smooth="yes"/>
      <point x="279" y="637"/>
      <point x="316" y="656"/>
      <point x="359" y="656" type="curve" smooth="yes"/>
      <point x="382" y="656"/>
      <point x="406" y="651"/>
      <point x="428" y="644" type="curve"/>
      <point x="455" y="775" type="line"/>
      <point x="405" y="788"/>
      <point x="364" y="795"/>
      <point x="322" y="795" type="curve" smooth="yes"/>
      <point x="174" y="795"/>
      <point x="79" y="719"/>
      <point x="79" y="558" type="curve" smooth="yes"/>
      <point x="79" y="513" type="line"/>
      <point x="100" y="540" type="line"/>
      <point x="19" y="510" type="line"/>
      <point x="19" y="405" type="line"/>
      <point x="95" y="405" type="line"/>
      <point x="79" y="424" type="line"/>
      <point x="79" y="109" type="line"/>
      <point x="95" y="128" type="line"/>
      <point x="24" y="100" type="line"/>
    </contour>
  </outline>
</glyph>
<glyph name="g" format="2">
  <advance width="589"/>
  <unicode hex="0067"/>
  <guideline x="-13" y="183" angle="90"/>
  <anchor x="275" y="-230" name="bottom"/>
  <anchor x="274" y="540" name="top"/>
  <outline>
    <contour>
      <point x="257" y="-245" type="curve" smooth="yes"/>
      <point x="477" y="-245"/>
      <point x="586" y="-180"/>
      <point x="586" y="-58" type="curve" smooth="yes"/>
      <point x="586" y="49"/>
      <point x="513" y="104"/>
      <point x="374" y="104" type="curve" smooth="yes"/>
      <point x="169" y="104" type="line"/>
      <point x="189" y="92" type="line"/>
      <point x="194" y="176" type="line"/>
      <point x="173" y="158" type="line"/>
      <point x="205" y="152"/>
      <point x="236" y="149"/>
      <point x="268" y="149" type="curve" smooth="yes"/>
      <point x="432" y="149"/>
      <point x="534" y="229"/>
      <point x="534" y="358" type="curve" smooth="yes"/>
      <point x="534" y="392"/>
      <point x="526" y="416"/>
      <point x="515" y="437" type="curve"/>
      <point x="503" y="420" type="line"/>
      <point x="568" y="435" type="line"/>
      <point x="568" y="535" type="line"/>
      <point x="391" y="531" type="line"/>
      <point x="434" y="523" type="line"/>
      <point x="392" y="544"/>
      <point x="338" y="555"/>
      <point x="275" y="555" type="curve" smooth="yes"/>
      <point x="110" y="555"/>
      <point x="12" y="479"/>
      <point x="12" y="347" type="curve" smooth="yes"/>
      <point x="12" y="266"/>
      <point x="51" y="205"/>
      <point x="126" y="173" type="curve"/>
      <point x="125" y="205" type="line"/>
      <point x="59" y="128"/>
      <point x="39" y="92"/>
      <point x="39" y="64" type="curve" smooth="yes"/>
      <point x="39" y="19"/>
      <point x="83" y="-12"/>
      <point x="145" y="-19" type="curve"/>
      <point x="148" y="22" type="line"/>
      <point x="48" y="-1"/>
      <point x="-4" y="-42"/>
      <point x="-4" y="-113" type="curve" smooth="yes"/>
      <point x="-4" y="-203"/>
      <point x="80" y="-245"/>
    </contour>
    <contour>
      <point x="273" y="-112" type="curve" smooth="yes"/>
      <point x="198" y="-112"/>
      <point x="169" y="-101"/>
      <point x="169" y="-79" type="curve" smooth="yes"/>
      <point x="169" y="-60"/>
      <point x="178" y="-44"/>
      <point x="196" y="-31" type="curve"/>
      <point x="154" y="-41" type="line"/>
      <point x="343" y="-41" type="line" smooth="yes"/>
      <point x="374" y="-41"/>
      <point x="396" y="-50"/>
      <point x="396" y="-76" type="curve" smooth="yes"/>
      <point x="396" y="-100"/>
      <point x="363" y="-112"/>
    </contour>
    <contour>
      <point x="270" y="280" type="curve" smooth="yes"/>
      <point x="229" y="280"/>
      <point x="210" y="304"/>
      <point x="210" y="354" type="curve" smooth="yes"/>
      <point x="210" y="403"/>
      <point x="230" y="424"/>
      <point x="273" y="424" type="curve" smooth="yes"/>
      <point x="317" y="424"/>
      <point x="336" y="405"/>
      <point x="336" y="354" type="curve" smooth="yes"/>
      <point x="336" y="303"/>
      <point x="314" y="280"/>
    </contour>
  </outline>
</glyph>
<glyph name="k" format="2">
  <advance width="620"/>
  <unicode hex="006B"/>
  <anchor x="318" y="0" name="bottom"/>
  <anchor x="308" y="540" name="top"/>
  <outline>
    <contour>
      <point x="7" y="0" type="line"/>
      <point x="312" y="0" type="line"/>
      <point x="312" y="100" type="line"/>
      <point x="244" y="131" type="line"/>
      <point x="262" y="95" type="line"/>
      <point x="262" y="238" type="line"/>
      <point x="231" y="227" type="line"/>
      <point x="333" y="227" type="line"/>
      <point x="307" y="238" type="line"/>
      <point x="413" y="0" type="line"/>
      <point x="612" y="0" type="line"/>
      <point x="612" y="100" type="line"/>
      <point x="543" y="123" type="line"/>
      <point x="569" y="99" type="line"/>
      <point x="454" y="332" type="line"/>
      <point x="450" y="284" type="line"/>
      <point x="572" y="453" type="line"/>
      <point x="521" y="424" type="line"/>
      <point x="598" y="445" type="line"/>
      <point x="598" y="545" type="line"/>
      <point x="331" y="535" type="line"/>
      <point x="331" y="435" type="line"/>
      <point x="389" y="420" type="line"/>
      <point x="375" y="439" type="line"/>
      <point x="302" y="336" type="line"/>
      <point x="349" y="357" type="line"/>
      <point x="231" y="357" type="line"/>
      <point x="262" y="330" type="line"/>
      <point x="262" y="785" type="line"/>
      <point x="7" y="775" type="line"/>
      <point x="7" y="675" type="line"/>
      <point x="74" y="649" type="line"/>
      <point x="62" y="669" type="line"/>
      <point x="62" y="95" type="line"/>
      <point x="84" y="130" type="line"/>
      <point x="7" y="100" type="line"/>
    </contour>
  </outline>
</glyph>
<glyph name="m" format="2">
  <advance width="954"/>
  <unicode hex="006D"/>
  <anchor x="486" y="0" name="bottom"/>
  <anchor x="486" y="540" name="top"/>
  <outline>
    <contour>
      <point x="569" y="470" type="line"/>
      <point x="541" y="529"/>
      <point x="490" y="555"/>
      <point x="432" y="555" type="curve" smooth="yes"/>
      <point x="367" y="555"/>
      <point x="292" y="521"/>
      <point x="231" y="461" type="curve"/>
      <point x="256" y="453" type="line"/>
      <point x="232" y="546" type="line"/>
      <point x="21" y="536" type="line"/>
      <point x="21" y="436" type="line"/>
      <point x="98" y="406" type="line"/>
      <point x="76" y="436" type="line"/>
      <point x="76" y="103" type="line"/>
      <point x="98" y="130" type="line"/>
      <point x="21" y="100" type="line"/>
      <point x="21" y="0" type="line"/>
      <point x="316" y="0" type="line"/>
      <point x="316" y="100" type="line"/>
      <point x="260" y="126" type="line"/>
      <point x="276" y="99" type="line"/>
      <point x="276" y="394" type="line"/>
      <point x="264" y="369" type="line"/>
      <point x="291" y="392"/>
      <point x="318" y="405"/>
      <point x="340" y="405" type="curve" smooth="yes"/>
      <point x="367" y="405"/>
      <point x="386" y="384"/>
      <point x="386" y="337" type="curve" smooth="yes"/>
      <point x="386" y="99" type="line"/>
      <point x="407" y="127" type="line"/>
      <point x="346" y="100" type="line"/>
      <point x="346" y="0" type="line"/>
      <point x="626" y="0" type="line"/>
      <point x="626" y="100" type="line"/>
      <point x="570" y="129" type="line"/>
      <point x="586" y="103" type="line"/>
      <point x="586" y="389" type="line" smooth="yes"/>
      <point x="586" y="392"/>
      <point x="586" y="397"/>
      <point x="585" y="408" type="curve"/>
      <point x="571" y="366" type="line"/>
      <point x="600" y="391"/>
      <point x="628" y="405"/>
      <point x="650" y="405" type="curve" smooth="yes"/>
      <point x="678" y="405"/>
      <point x="696" y="384"/>
      <point x="696" y="337" type="curve" smooth="yes"/>
      <point x="696" y="99" type="line"/>
      <point x="717" y="127" type="line"/>
      <point x="656" y="100" type="line"/>
      <point x="656" y="0" type="line"/>
      <point x="951" y="0" type="line"/>
      <point x="951" y="100" type="line"/>
      <point x="880" y="129" type="line"/>
      <point x="896" y="103" type="line"/>
      <point x="896" y="381" type="line" smooth="yes"/>
      <point x="896" y="498"/>
      <point x="828" y="555"/>
      <point x="742" y="555" type="curve" smooth="yes"/>
      <point x="678" y="555"/>
      <point x="604" y="524"/>
      <point x="541" y="461" type="curve"/>
    </contour>
  </outline>
</glyph>
<glyph name="p" format="2">
  <advance width="621"/>
  <unicode hex="0070"/>
  <anchor x="308" y="0" name="bottom"/>
  <anchor x="308" y="540" name="top"/>
  <outline>
    <contour>
      <point x="14" y="-230" type="line"/>
      <point x="334" y="-230" type="line"/>
      <point x="334" y="-130" type="line"/>
      <point x="251" y="-99" type="line"/>
      <point x="269" y="-126" type="line"/>
      <point x="269" y="15" type="line"/>
      <point x="246" y="-6" type="line"/>
      <point x="276" y="-12"/>
      <point x="305" y="-15"/>
      <point x="333" y="-15" type="curve" smooth="yes"/>
      <point x="494" y="-15"/>
      <point x="606" y="84"/>
      <point x="606" y="288" type="curve" smooth="yes"/>
      <point x="606" y="461"/>
      <point x="526" y="555"/>
      <point x="409" y="555" type="curve" smooth="yes"/>
      <point x="342" y="555"/>
      <point x="287" y="525"/>
      <point x="225" y="470" type="curve"/>
      <point x="246" y="458" type="line"/>
      <point x="225" y="546" type="line"/>
      <point x="14" y="536" type="line"/>
      <point x="14" y="436" type="line"/>
      <point x="90" y="406" type="line"/>
      <point x="69" y="430" type="line"/>
      <point x="69" y="-126" type="line"/>
      <point x="93" y="-95" type="line"/>
      <point x="14" y="-130" type="line"/>
    </contour>
    <contour>
      <point x="305" y="125" type="curve" smooth="yes"/>
      <point x="288" y="125"/>
      <point x="267" y="128"/>
      <point x="246" y="133" type="curve"/>
      <point x="269" y="97" type="line"/>
      <point x="269" y="419" type="line"/>
      <point x="246" y="370" type="line"/>
      <point x="278" y="396"/>
      <point x="304" y="410"/>
      <point x="328" y="410" type="curve" smooth="yes"/>
      <point x="377" y="410"/>
      <point x="398" y="352"/>
      <point x="398" y="267" type="curve" smooth="yes"/>
      <point x="398" y="181"/>
      <point x="377" y="125"/>
    </contour>
  </outline>
</glyph>
<glyph name="q" format="2">
  <advance width="601"/>
  <unicode hex="0071"/>
  <anchor x="302" y="0" name="bottom"/>
  <anchor x="302" y="540" name="top"/>
  <outline>
    <contour>
      <point x="283" y="-230" type="line"/>
      <point x="608" y="-230" type="line"/>
      <point x="608" y="-125" type="line"/>
      <point x="532" y="-91" type="line"/>
      <point x="553" y="-123" type="line"/>
      <point x="553" y="535" type="line"/>
      <point x="477" y="547"/>
      <point x="405" y="555"/>
      <point x="340" y="555" type="curve" smooth="yes"/>
      <point x="149" y="555"/>
      <point x="16" y="487"/>
      <point x="16" y="255" type="curve" smooth="yes"/>
      <point x="16" y="78"/>
      <point x="96" y="-15"/>
      <point x="214" y="-15" type="curve" smooth="yes"/>
      <point x="280" y="-15"/>
      <point x="335" y="14"/>
      <point x="392" y="71" type="curve"/>
      <point x="353" y="58" type="line"/>
      <point x="353" y="-123" type="line"/>
      <point x="372" y="-91" type="line"/>
      <point x="283" y="-125" type="line"/>
    </contour>
    <contour>
      <point x="294" y="130" type="curve" smooth="yes"/>
      <point x="245" y="130"/>
      <point x="224" y="188"/>
      <point x="224" y="274" type="curve" smooth="yes"/>
      <point x="224" y="359"/>
      <point x="245" y="415"/>
      <point x="317" y="415" type="curve" smooth="yes"/>
      <point x="334" y="415"/>
      <point x="355" y="412"/>
      <point x="376" y="407" type="curve"/>
      <point x="353" y="452" type="line"/>
      <point x="353" y="113" type="line"/>
      <point x="376" y="170" type="line"/>
      <point x="344" y="144"/>
      <point x="318" y="130"/>
    </contour>
  </outline>
</glyph>
<glyph name="u" format="2">
  <advance width="643"/>
  <unicode hex="0075"/>
  <anchor x="328" y="0" name="bottom"/>
  <anchor x="633" y="0" name="bottomright"/>
  <anchor x="543" y="0" name="ogonek"/>
  <anchor x="312" y="540" name="top"/>
  <anchor x="568" y="540" name="topright"/>
  <outline>
    <contour>
      <point x="219" y="-15" type="curve" smooth="yes"/>
      <point x="284" y="-15"/>
      <point x="358" y="16"/>
      <point x="423" y="79" type="curve"/>
      <point x="396" y="87" type="line"/>
      <point x="422" y="-10" type="line"/>
      <point x="633" y="0" type="line"/>
      <point x="633" y="100" type="line"/>
      <point x="556" y="133" type="line"/>
      <point x="578" y="100" type="line"/>
      <point x="578" y="545" type="line"/>
      <point x="323" y="536" type="line"/>
      <point x="323" y="436" type="line"/>
      <point x="394" y="407" type="line"/>
      <point x="378" y="437" type="line"/>
      <point x="378" y="139" type="line"/>
      <point x="390" y="171" type="line"/>
      <point x="360" y="147"/>
      <point x="331" y="135"/>
      <point x="309" y="135" type="curve" smooth="yes"/>
      <point x="278" y="135"/>
      <point x="258" y="156"/>
      <point x="258" y="199" type="curve" smooth="yes"/>
      <point x="258" y="544" type="line"/>
      <point x="3" y="536" type="line"/>
      <point x="3" y="436" type="line"/>
      <point x="74" y="407" type="line"/>
      <point x="58" y="433" type="line"/>
      <point x="58" y="167" type="line" smooth="yes"/>
      <point x="58" y="45"/>
      <point x="129" y="-15"/>
    </contour>
  </outline>
</glyph>
<glyph name="x" format="2">
  <advance width="584"/>
  <unicode hex="0078"/>
  <guideline x="11" y="224" angle="90" identifier="GAd5sCjtQS"/>
  <guideline x="575" y="224" angle="90" identifier="MqS6SjoeIw"/>
  <outline>
    <contour>
      <point x="11" y="0" type="line"/>
      <point x="173" y="0" type="line"/>
      <point x="344" y="261" type="line"/>
      <point x="387" y="261" type="line"/>
      <point x="536" y="450" type="line"/>
      <point x="481" y="420" type="line"/>
      <point x="564" y="445" type="line"/>
      <point x="564" y="545" type="line"/>
      <point x="402" y="535" type="line"/>
      <point x="241" y="297" type="line"/>
      <point x="195" y="297" type="line"/>
      <point x="44" y="96" type="line"/>
      <point x="90" y="120" type="line"/>
      <point x="11" y="100" type="line"/>
    </contour>
    <contour>
      <point x="270" y="0" type="line"/>
      <point x="575" y="0" type="line"/>
      <point x="575" y="100" type="line"/>
      <point x="501" y="123" type="line"/>
      <point x="532" y="97" type="line"/>
      <point x="348" y="337" type="line"/>
      <point x="261" y="457" type="line"/>
      <point x="248" y="429" type="line"/>
      <point x="304" y="445" type="line"/>
      <point x="304" y="545" type="line"/>
      <point x="22" y="535" type="line"/>
      <point x="22" y="435" type="line"/>
      <point x="85" y="414" type="line"/>
      <point x="47" y="447" type="line"/>
      <point x="206" y="235" type="line"/>
      <point x="315" y="87" type="line"/>
      <point x="325" y="113" type="line"/>
      <point x="270" y="100" type="line"/>
    </contour>
  </outline>
</glyph>
<glyph name="bar" format="2">
  <advance width="294"/>
  <unicode hex="007C"/>
  <guideline x="207" y="819" angle="0"/>
  <guideline x="207" y="-115" angle="0"/>
  <outline>
    <contour>
      <point x="72" y="819" type="line"/>
      <point x="72" y="-115" type="line"/>
      <point x="222" y="-115" type="line"/>
      <point x="222" y="819" type="line"/>
    </contour>
  </outline>
</glyph>
<glyph name="braceright" format="2">
  <advance width="382"/>
  <unicode hex="007D"/>
  <guideline x="223" y="-118" angle="0"/>
  <guideline x="298" y="872" angle="0"/>
  <outline>
    <contour>
      <point x="88" y="-118" type="curve" smooth="yes"/>
      <point x="8" y="-118" type="line"/>
      <point x="8" y="2" type="line"/>
      <point x="98" y="2"/>
      <point x="117" y="27"/>
      <point x="117" y="107" type="curve" smooth="yes"/>
      <point x="117" y="226" type="line" smooth="yes"/>
      <point x="117" y="336"/>
      <point x="190" y="386"/>
      <point x="310" y="386" type="curve"/>
      <point x="310" y="368" type="line"/>
      <point x="190" y="368"/>
      <point x="117" y="418"/>
      <point x="117" y="528" type="curve" smooth="yes"/>
      <point x="117" y="647" type="line" smooth="yes"/>
      <point x="117" y="727"/>
      <point x="98" y="752"/>
      <point x="8" y="752" type="curve"/>
      <point x="8" y="872" type="line"/>
      <point x="88" y="872" type="line" smooth="yes"/>
      <point x="228" y="872"/>
      <point x="292" y="797"/>
      <point x="292" y="657" type="curve" smooth="yes"/>
      <point x="292" y="547" type="line" smooth="yes"/>
      <point x="292" y="482"/>
      <point x="307" y="442"/>
      <point x="382" y="442" type="curve"/>
      <point x="382" y="312" type="line"/>
      <point x="312" y="312"/>
      <point x="292" y="272"/>
      <point x="292" y="207" type="curve" smooth="yes"/>
      <point x="292" y="97" type="line" smooth="yes"/>
      <point x="292" y="-43"/>
      <point x="228" y="-118"/>
    </contour>
  </outline>
</glyph>
<glyph name="asciitilde" format="2">
  <advance width="569"/>
  <unicode hex="007E"/>
  <outline>
    <contour>
      <point x="382" y="257" type="curve" smooth="yes"/>
      <point x="441" y="257"/>
      <point x="493" y="291"/>
      <point x="544" y="395" type="curve"/>
      <point x="467" y="447" type="line"/>
      <point x="439" y="413"/>
      <point x="414" y="401"/>
      <point x="387" y="401" type="curve" smooth="yes"/>
      <point x="327" y="401"/>
      <point x="264" y="461"/>
      <point x="188" y="461" type="curve" smooth="yes"/>
      <point x="129" y="461"/>
      <point x="76" y="427"/>
      <point x="25" y="321" type="curve"/>
      <point x="102" y="271" type="line"/>
      <point x="132" y="306"/>
      <point x="158" y="317"/>
      <point x="185" y="317" type="curve" smooth="yes"/>
      <point x="245" y="317"/>
      <point x="306" y="257"/>
    </contour>
  </outline>
</glyph>
<glyph name="exclamdown" format="2">
  <advance width="310"/>
  <unicode hex="00A1"/>
  <outline>
    <contour>
      <point x="227" y="280" type="line"/>
      <point x="82" y="271" type="line"/>
      <point x="49" y="-170" type="line"/>
      <point x="260" y="-170" type="line"/>
    </contour>
    <contour>
      <point x="262" y="451" type="curve" smooth="yes"/>
      <point x="262" y="514"/>
      <point x="221" y="555"/>
      <point x="155" y="555" type="curve" smooth="yes"/>
      <point x="98" y="555"/>
      <point x="48" y="514"/>
      <point x="48" y="451" type="curve" smooth="yes"/>
      <point x="48" y="389"/>
      <point x="89" y="347"/>
      <point x="155" y="347" type="curve" smooth="yes"/>
      <point x="212" y="347"/>
      <point x="262" y="389"/>
    </contour>
  </outline>
</glyph>
<glyph name="cent" format="2">
  <advance width="497"/>
  <unicode hex="00A2"/>
  <outline>
    <contour>
      <point x="481" y="181" type="curve"/>
      <point x="421" y="273" type="line"/>
      <point x="377" y="244"/>
      <point x="334" y="231"/>
      <point x="301" y="231" type="curve" smooth="yes"/>
      <point x="241" y="231"/>
      <point x="210" y="273"/>
      <point x="210" y="369" type="curve" smooth="yes"/>
      <point x="210" y="442"/>
      <point x="228" y="493"/>
      <point x="292" y="493" type="curve" smooth="yes"/>
      <point x="305" y="493"/>
      <point x="321" y="491"/>
      <point x="331" y="490" type="curve"/>
      <point x="344" y="437" type="line"/>
      <point x="454" y="437" type="line"/>
      <point x="459" y="586" type="line"/>
      <point x="420" y="602"/>
      <point x="336" y="627"/>
      <point x="260" y="619" type="curve"/>
      <point x="332" y="588" type="line"/>
      <point x="332" y="741" type="line"/>
      <point x="202" y="741" type="line"/>
      <point x="202" y="582" type="line"/>
      <point x="254" y="620" type="line"/>
      <point x="131" y="611"/>
      <point x="19" y="540"/>
      <point x="19" y="361" type="curve" smooth="yes"/>
      <point x="19" y="192"/>
      <point x="118" y="97"/>
      <point x="262" y="99" type="curve"/>
      <point x="202" y="134" type="line"/>
      <point x="202" y="-22" type="line"/>
      <point x="332" y="-22" type="line"/>
      <point x="332" y="137" type="line"/>
      <point x="278" y="99" type="line"/>
      <point x="346" y="104"/>
      <point x="414" y="129"/>
    </contour>
  </outline>
</glyph>
<glyph name="sterling" format="2">
  <advance width="626"/>
  <unicode hex="00A3"/>
  <guideline x="33" y="357" angle="90" identifier="369A3NoJUe"/>
  <outline>
    <contour>
      <point x="33" y="0" type="line"/>
      <point x="580" y="0" type="line"/>
      <point x="580" y="230" type="line"/>
      <point x="460" y="230" type="line"/>
      <point x="433" y="114" type="line"/>
      <point x="459" y="145" type="line"/>
      <point x="237" y="145" type="line"/>
      <point x="259" y="124" type="line"/>
      <point x="305" y="169"/>
      <point x="318" y="216"/>
      <point x="318" y="270" type="curve" smooth="yes"/>
      <point x="318" y="296"/>
      <point x="315" y="323"/>
      <point x="311" y="352" type="curve"/>
      <point x="284" y="309" type="line"/>
      <point x="448" y="309" type="line"/>
      <point x="448" y="429" type="line"/>
      <point x="273" y="429" type="line"/>
      <point x="304" y="405" type="line"/>
      <point x="301" y="437"/>
      <point x="298" y="479"/>
      <point x="298" y="501" type="curve" smooth="yes"/>
      <point x="298" y="560"/>
      <point x="325" y="580"/>
      <point x="365" y="580" type="curve" smooth="yes"/>
      <point x="384" y="580"/>
      <point x="406" y="576"/>
      <point x="429" y="569" type="curve"/>
      <point x="413" y="594" type="line"/>
      <point x="438" y="501" type="line"/>
      <point x="558" y="501" type="line"/>
      <point x="571" y="689" type="line"/>
      <point x="490" y="712"/>
      <point x="413" y="725"/>
      <point x="344" y="725" type="curve" smooth="yes"/>
      <point x="204" y="725"/>
      <point x="93" y="675"/>
      <point x="93" y="502" type="curve" smooth="yes"/>
      <point x="93" y="474"/>
      <point x="96" y="434"/>
      <point x="99" y="399" type="curve"/>
      <point x="113" y="429" type="line"/>
      <point x="33" y="414" type="line"/>
      <point x="33" y="309" type="line"/>
      <point x="132" y="309" type="line"/>
      <point x="106" y="344" type="line"/>
      <point x="112" y="291"/>
      <point x="119" y="242"/>
      <point x="119" y="201" type="curve" smooth="yes"/>
      <point x="119" y="156"/>
      <point x="111" y="119"/>
      <point x="85" y="95" type="curve"/>
      <point x="140" y="140" type="line"/>
      <point x="33" y="100" type="line"/>
    </contour>
  </outline>
</glyph>
<glyph name="currency" format="2">
  <advance width="639"/>
  <unicode hex="00A4"/>
  <outline>
    <contour>
      <point x="619" y="113" type="line"/>
      <point x="495" y="228" type="line"/>
      <point x="496" y="147" type="line"/>
      <point x="535" y="187"/>
      <point x="555" y="241"/>
      <point x="555" y="297" type="curve" smooth="yes"/>
      <point x="555" y="356"/>
      <point x="532" y="413"/>
      <point x="489" y="454" type="curve"/>
      <point x="495" y="378" type="line"/>
      <point x="613" y="489" type="line"/>
      <point x="528" y="580" type="line"/>
      <point x="411" y="470" type="line"/>
      <point x="475" y="465" type="line"/>
      <point x="439" y="492"/>
      <point x="389" y="511"/>
      <point x="324" y="511" type="curve" smooth="yes"/>
      <point x="260" y="511"/>
      <point x="209" y="492"/>
      <point x="166" y="462" type="curve"/>
      <point x="233" y="472" type="line"/>
      <point x="113" y="584" type="line"/>
      <point x="16" y="482" type="line"/>
      <point x="130" y="377" type="line"/>
      <point x="144" y="444" type="line"/>
      <point x="108" y="400"/>
      <point x="86" y="348"/>
      <point x="86" y="290" type="curve" smooth="yes"/>
      <point x="86" y="232"/>
      <point x="108" y="179"/>
      <point x="145" y="142" type="curve"/>
      <point x="146" y="221" type="line"/>
      <point x="24" y="106" type="line"/>
      <point x="109" y="15" type="line"/>
      <point x="236" y="135" type="line"/>
      <point x="156" y="132" type="line"/>
      <point x="195" y="94"/>
      <point x="250" y="72"/>
      <point x="318" y="72" type="curve" smooth="yes"/>
      <point x="384" y="72"/>
      <point x="437" y="92"/>
      <point x="479" y="126" type="curve"/>
      <point x="406" y="122" type="line"/>
      <point x="524" y="12" type="line"/>
    </contour>
    <contour>
      <point x="320" y="188" type="curve" smooth="yes"/>
      <point x="266" y="188"/>
      <point x="246" y="226"/>
      <point x="246" y="290" type="curve" smooth="yes"/>
      <point x="246" y="358"/>
      <point x="268" y="395"/>
      <point x="321" y="395" type="curve" smooth="yes"/>
      <point x="374" y="395"/>
      <point x="395" y="359"/>
      <point x="395" y="292" type="curve" smooth="yes"/>
      <point x="395" y="225"/>
      <point x="374" y="188"/>
    </contour>
  </outline>
</glyph>
<glyph name="section" format="2">
  <advance width="531"/>
  <unicode hex="00A7"/>
  <guideline x="324" y="-170" angle="0" identifier="W72zu9lYSB"/>
  <outline>
    <contour>
      <point x="234" y="-185" type="curve" smooth="yes"/>
      <point x="375" y="-185"/>
      <point x="481" y="-125"/>
      <point x="481" y="-11" type="curve" smooth="yes"/>
      <point x="481" y="173"/>
      <point x="202" y="188"/>
      <point x="202" y="294" type="curve" smooth="yes"/>
      <point x="202" y="338"/>
      <point x="249" y="379"/>
      <point x="282" y="379" type="curve"/>
      <point x="265" y="431" type="line"/>
      <point x="132" y="431"/>
      <point x="31" y="387"/>
      <point x="31" y="274" type="curve" smooth="yes"/>
      <point x="31" y="92"/>
      <point x="296" y="79"/>
      <point x="296" y="-16" type="curve" smooth="yes"/>
      <point x="296" y="-48"/>
      <point x="266" y="-62"/>
      <point x="231" y="-62" type="curve" smooth="yes"/>
      <point x="212" y="-62"/>
      <point x="191" y="-58"/>
      <point x="172" y="-49" type="curve"/>
      <point x="187" y="-74" type="line"/>
      <point x="174" y="0" type="line"/>
      <point x="54" y="0" type="line"/>
      <point x="48" y="-158" type="line"/>
      <point x="113" y="-175"/>
      <point x="177" y="-185"/>
    </contour>
    <contour>
      <point x="244" y="107" type="line"/>
      <point x="389" y="107"/>
      <point x="506" y="159"/>
      <point x="506" y="272" type="curve" smooth="yes"/>
      <point x="506" y="444"/>
      <point x="237" y="459"/>
      <point x="237" y="558" type="curve" smooth="yes"/>
      <point x="237" y="589"/>
      <point x="263" y="601"/>
      <point x="297" y="601" type="curve" smooth="yes"/>
      <point x="315" y="601"/>
      <point x="334" y="598"/>
      <point x="353" y="592" type="curve"/>
      <point x="328" y="621" type="line"/>
      <point x="346" y="549" type="line"/>
      <point x="466" y="549" type="line"/>
      <point x="473" y="696" type="line"/>
      <point x="404" y="713"/>
      <point x="338" y="723"/>
      <point x="281" y="723" type="curve" smooth="yes"/>
      <point x="147" y="723"/>
      <point x="56" y="669"/>
      <point x="56" y="558" type="curve" smooth="yes"/>
      <point x="56" y="364"/>
      <point x="331" y="349"/>
      <point x="331" y="247" type="curve" smooth="yes"/>
      <point x="331" y="202"/>
      <point x="276" y="160"/>
      <point x="240" y="160" type="curve"/>
    </contour>
  </outline>
</glyph>
<glyph name="ordfeminine" format="2">
  <advance width="439"/>
  <unicode hex="00AA"/>
  <guideline x="134" y="310" angle="0"/>
  <outline>
    <contour>
      <point x="391" y="391" type="line"/>
      <point x="391" y="596" type="line" smooth="yes"/>
      <point x="391" y="683"/>
      <point x="339" y="725"/>
      <point x="232" y="725" type="curve" smooth="yes"/>
      <point x="181" y="725"/>
      <point x="114" y="716"/>
      <point x="36" y="696" type="curve"/>
      <point x="43" y="578" type="line"/>
      <point x="134" y="578" type="line"/>
      <point x="146" y="627" type="line"/>
      <point x="135" y="614" type="line"/>
      <point x="156" y="619"/>
      <point x="175" y="621"/>
      <point x="190" y="621" type="curve" smooth="yes"/>
      <point x="226" y="621"/>
      <point x="241" y="606"/>
      <point x="241" y="570" type="curve" smooth="yes"/>
      <point x="241" y="540" type="line"/>
      <point x="249" y="547" type="line"/>
      <point x="183" y="547" type="line" smooth="yes"/>
      <point x="68" y="547"/>
      <point x="15" y="511"/>
      <point x="15" y="432" type="curve" smooth="yes"/>
      <point x="15" y="358"/>
      <point x="62" y="310"/>
      <point x="134" y="310" type="curve" smooth="yes"/>
      <point x="187" y="310"/>
      <point x="231" y="334"/>
      <point x="265" y="379" type="curve"/>
      <point x="256" y="382" type="line"/>
      <point x="274" y="314" type="line"/>
      <point x="432" y="321" type="line"/>
      <point x="432" y="393" type="line"/>
      <point x="372" y="419" type="line"/>
    </contour>
    <contour>
      <point x="165" y="449" type="curve" smooth="yes"/>
      <point x="165" y="473"/>
      <point x="176" y="482"/>
      <point x="208" y="482" type="curve" smooth="yes"/>
      <point x="250" y="482" type="line"/>
      <point x="241" y="490" type="line"/>
      <point x="241" y="418" type="line"/>
      <point x="246" y="430" type="line"/>
      <point x="230" y="418"/>
      <point x="210" y="411"/>
      <point x="196" y="411" type="curve" smooth="yes"/>
      <point x="176" y="411"/>
      <point x="165" y="425"/>
    </contour>
    <contour>
      <point x="20" y="126" type="line"/>
      <point x="432" y="126" type="line"/>
      <point x="432" y="261" type="line"/>
      <point x="20" y="261" type="line"/>
    </contour>
  </outline>
</glyph>
<glyph name="logicalnot" format="2">
  <advance width="572"/>
  <unicode hex="00AC"/>
  <outline>
    <contour>
      <point x="367" y="114" type="line"/>
      <point x="527" y="114" type="line"/>
      <point x="527" y="421" type="line"/>
      <point x="33" y="421" type="line"/>
      <point x="33" y="281" type="line"/>
      <point x="386" y="281" type="line"/>
      <point x="367" y="301" type="line"/>
    </contour>
  </outline>
</glyph>
<glyph name="macron" format="2">
  <advance width="426"/>
  <unicode hex="00AF"/>
  <outline>
    <contour>
      <point x="381" y="786" type="line"/>
      <point x="45" y="786" type="line"/>
      <point x="45" y="651" type="line"/>
      <point x="381" y="651" type="line"/>
    </contour>
  </outline>
</glyph>
<glyph name="paragraph" format="2">
  <advance width="689"/>
  <unicode hex="00B6"/>
  <guideline x="210" y="-170" angle="0" identifier="vBk3FHFf1a"/>
  <outline>
    <contour>
      <point x="145" y="-170" type="line"/>
      <point x="370" y="-170" type="line"/>
      <point x="370" y="611" type="line"/>
      <point x="341" y="565" type="line"/>
      <point x="472" y="565" type="line"/>
      <point x="442" y="610" type="line"/>
      <point x="442" y="-170" type="line"/>
      <point x="607" y="-170" type="line"/>
      <point x="607" y="611" type="line"/>
      <point x="581" y="570" type="line"/>
      <point x="667" y="610" type="line"/>
      <point x="667" y="710" type="line"/>
      <point x="230" y="710" type="line" smooth="yes"/>
      <point x="98" y="710"/>
      <point x="4" y="623"/>
      <point x="4" y="495" type="curve" smooth="yes"/>
      <point x="4" y="359"/>
      <point x="98" y="280"/>
      <point x="230" y="280" type="curve"/>
      <point x="205" y="302" type="line"/>
      <point x="205" y="-75" type="line"/>
      <point x="230" y="-36" type="line"/>
      <point x="145" y="-70" type="line"/>
    </contour>
  </outline>
</glyph>
<glyph name="ordmasculine" format="2">
  <advance width="463"/>
  <unicode hex="00BA"/>
  <guideline x="159" y="310" angle="0" identifier="DA47l1gjyU"/>
  <outline>
    <contour>
      <point x="221" y="310" type="curve" smooth="yes"/>
      <point x="361" y="310"/>
      <point x="443" y="391"/>
      <point x="443" y="528" type="curve" smooth="yes"/>
      <point x="443" y="652"/>
      <point x="367" y="725"/>
      <point x="239" y="725" type="curve" smooth="yes"/>
      <point x="101" y="725"/>
      <point x="20" y="646"/>
      <point x="20" y="511" type="curve" smooth="yes"/>
      <point x="20" y="385"/>
      <point x="95" y="310"/>
    </contour>
    <contour>
      <point x="40" y="126" type="line"/>
      <point x="425" y="126" type="line"/>
      <point x="425" y="261" type="line"/>
      <point x="40" y="261" type="line"/>
    </contour>
    <contour>
      <point x="231" y="420" type="curve" smooth="yes"/>
      <point x="198" y="420"/>
      <point x="185" y="448"/>
      <point x="185" y="519" type="curve" smooth="yes"/>
      <point x="185" y="588"/>
      <point x="198" y="615"/>
      <point x="231" y="615" type="curve" smooth="yes"/>
      <point x="265" y="615"/>
      <point x="278" y="588"/>
      <point x="278" y="522" type="curve" smooth="yes"/>
      <point x="278" y="449"/>
      <point x="265" y="420"/>
    </contour>
  </outline>
</glyph>
<glyph name="guillemetright" format="2">
  <advance width="574"/>
  <unicode hex="00BB"/>
  <outline>
    <contour>
      <point x="365" y="509" type="line"/>
      <point x="272" y="435" type="line"/>
      <point x="401" y="231" type="line"/>
      <point x="401" y="305" type="line"/>
      <point x="270" y="98" type="line"/>
      <point x="363" y="29" type="line"/>
      <point x="539" y="222" type="line"/>
      <point x="539" y="316" type="line"/>
    </contour>
    <contour>
      <point x="115" y="509" type="line"/>
      <point x="22" y="435" type="line"/>
      <point x="151" y="231" type="line"/>
      <point x="151" y="305" type="line"/>
      <point x="20" y="98" type="line"/>
      <point x="113" y="29" type="line"/>
      <point x="289" y="222" type="line"/>
      <point x="289" y="316" type="line"/>
    </contour>
  </outline>
</glyph>
<glyph name="questiondown" format="2">
  <advance width="456"/>
  <unicode hex="00BF"/>
  <guideline x="574" y="-15" angle="0" identifier="iihkcF9wRW"/>
  <guideline x="364" y="272" angle="0" identifier="KQf3N05GQD"/>
  <outline>
    <contour>
      <point x="341" y="280" type="curve"/>
      <point x="188" y="272" type="line"/>
      <point x="189" y="267"/>
      <point x="189" y="262"/>
      <point x="189" y="258" type="curve" smooth="yes"/>
      <point x="189" y="149"/>
      <point x="-11" y="146"/>
      <point x="-11" y="-24" type="curve" smooth="yes"/>
      <point x="-11" y="-143"/>
      <point x="87" y="-188"/>
      <point x="209" y="-188" type="curve" smooth="yes"/>
      <point x="286" y="-188"/>
      <point x="371" y="-170"/>
      <point x="450" y="-137" type="curve"/>
      <point x="408" y="-9" type="line"/>
      <point x="361" y="-25"/>
      <point x="308" y="-39"/>
      <point x="268" y="-39" type="curve" smooth="yes"/>
      <point x="225" y="-39"/>
      <point x="195" y="-23"/>
      <point x="195" y="12" type="curve" smooth="yes"/>
      <point x="195" y="93"/>
      <point x="350" y="87"/>
      <point x="350" y="220" type="curve" smooth="yes"/>
      <point x="350" y="238"/>
      <point x="347" y="258"/>
    </contour>
    <contour>
      <point x="361" y="453" type="curve" smooth="yes"/>
      <point x="361" y="514"/>
      <point x="318" y="555"/>
      <point x="257" y="555" type="curve" smooth="yes"/>
      <point x="196" y="555"/>
      <point x="147" y="514"/>
      <point x="147" y="449" type="curve" smooth="yes"/>
      <point x="147" y="389"/>
      <point x="189" y="347"/>
      <point x="251" y="347" type="curve" smooth="yes"/>
      <point x="313" y="347"/>
      <point x="361" y="389"/>
    </contour>
  </outline>
</glyph>
<glyph name="AE" format="2">
  <advance width="939"/>
  <unicode hex="00C6"/>
  <anchor x="474" y="0" name="bottom"/>
  <anchor x="534" y="710" name="top"/>
  <outline>
    <contour>
      <point x="1" y="0" type="line"/>
      <point x="280" y="0" type="line"/>
      <point x="280" y="100" type="line"/>
      <point x="209" y="133" type="line"/>
      <point x="219" y="91" type="line"/>
      <point x="272" y="221" type="line"/>
      <point x="231" y="190" type="line"/>
      <point x="461" y="190" type="line"/>
      <point x="431" y="221" type="line"/>
      <point x="431" y="104" type="line"/>
      <point x="455" y="136" type="line"/>
      <point x="381" y="100" type="line"/>
      <point x="381" y="0" type="line"/>
      <point x="904" y="0" type="line"/>
      <point x="906" y="211" type="line"/>
      <point x="786" y="211" type="line"/>
      <point x="760" y="111" type="line"/>
      <point x="795" y="145" type="line"/>
      <point x="606" y="145" type="line"/>
      <point x="636" y="114" type="line"/>
      <point x="636" y="325" type="line"/>
      <point x="606" y="290" type="line"/>
      <point x="810" y="290" type="line"/>
      <point x="810" y="430" type="line"/>
      <point x="606" y="430" type="line"/>
      <point x="636" y="400" type="line"/>
      <point x="636" y="595" type="line"/>
      <point x="606" y="565" type="line"/>
      <point x="783" y="565" type="line"/>
      <point x="748" y="601" type="line"/>
      <point x="773" y="508" type="line"/>
      <point x="893" y="508" type="line"/>
      <point x="893" y="710" type="line"/>
      <point x="432" y="710" type="line"/>
      <point x="169" y="705" type="line"/>
      <point x="169" y="605" type="line"/>
      <point x="267" y="568" type="line"/>
      <point x="246" y="598" type="line"/>
      <point x="29" y="92" type="line"/>
      <point x="81" y="133" type="line"/>
      <point x="1" y="100" type="line"/>
    </contour>
    <contour>
      <point x="306" y="305" type="line"/>
      <point x="418" y="583" type="line"/>
      <point x="381" y="565" type="line"/>
      <point x="461" y="565" type="line"/>
      <point x="431" y="584" type="line"/>
      <point x="431" y="305" type="line"/>
      <point x="461" y="330" type="line"/>
      <point x="284" y="330" type="line"/>
    </contour>
  </outline>
</glyph>
<glyph name="Eth" format="2">
  <advance width="706"/>
  <unicode hex="00D0"/>
  <guideline x="27" y="241" angle="90" identifier="72xROKXwKc"/>
  <outline>
    <contour>
      <point x="24" y="294" type="line"/>
      <point x="383" y="294" type="line"/>
      <point x="383" y="426" type="line"/>
      <point x="24" y="426" type="line"/>
    </contour>
    <component base="D"/>
  </outline>
</glyph>
<glyph name="ae" format="2">
  <advance width="845"/>
  <unicode hex="00E6"/>
  <guideline x="416" y="221" angle="0" identifier="oHRqKLw4vm"/>
  <guideline x="416" y="316" angle="0" identifier="VQ0XgLOnZB"/>
  <anchor x="421" y="0" name="bottom"/>
  <anchor x="421" y="540" name="top"/>
  <outline>
    <contour>
      <point x="54" y="351" type="line"/>
      <point x="174" y="351" type="line"/>
      <point x="190" y="419" type="line"/>
      <point x="175" y="402" type="line"/>
      <point x="204" y="408"/>
      <point x="228" y="411"/>
      <point x="247" y="411" type="curve" smooth="yes"/>
      <point x="298" y="411"/>
      <point x="317" y="389"/>
      <point x="317" y="339" type="curve" smooth="yes"/>
      <point x="317" y="303" type="line"/>
      <point x="327" y="316" type="line"/>
      <point x="233" y="316" type="line" smooth="yes"/>
      <point x="85" y="316"/>
      <point x="15" y="263"/>
      <point x="15" y="151" type="curve" smooth="yes"/>
      <point x="15" y="43"/>
      <point x="97" y="-15"/>
      <point x="192" y="-15" type="curve" smooth="yes"/>
      <point x="269" y="-15"/>
      <point x="354" y="24"/>
      <point x="411" y="105" type="curve"/>
      <point x="363" y="105" type="line"/>
      <point x="399" y="29"/>
      <point x="473" y="-14"/>
      <point x="569" y="-14" type="curve" smooth="yes"/>
      <point x="653" y="-14"/>
      <point x="740" y="15"/>
      <point x="818" y="68" type="curve"/>
      <point x="753" y="172" type="line"/>
      <point x="703" y="146"/>
      <point x="653" y="131"/>
      <point x="617" y="131" type="curve" smooth="yes"/>
      <point x="562" y="131"/>
      <point x="525" y="168"/>
      <point x="519" y="229" type="curve" smooth="yes"/>
      <point x="518" y="241" type="line"/>
      <point x="508" y="221" type="line"/>
      <point x="818" y="221" type="line"/>
      <point x="824" y="243"/>
      <point x="827" y="275"/>
      <point x="827" y="311" type="curve" smooth="yes"/>
      <point x="827" y="465"/>
      <point x="741" y="555"/>
      <point x="596" y="555" type="curve" smooth="yes"/>
      <point x="533" y="555"/>
      <point x="474" y="534"/>
      <point x="431" y="496" type="curve"/>
      <point x="448" y="481" type="line"/>
      <point x="436" y="500" type="line" smooth="yes"/>
      <point x="413" y="537"/>
      <point x="365" y="555"/>
      <point x="291" y="555" type="curve" smooth="yes"/>
      <point x="228" y="555"/>
      <point x="146" y="542"/>
      <point x="46" y="515" type="curve"/>
    </contour>
    <contour>
      <point x="317" y="138" type="curve"/>
      <point x="325" y="151" type="line"/>
      <point x="300" y="133"/>
      <point x="277" y="124"/>
      <point x="259" y="124" type="curve" smooth="yes"/>
      <point x="232" y="124"/>
      <point x="215" y="143"/>
      <point x="215" y="177" type="curve" smooth="yes"/>
      <point x="215" y="210"/>
      <point x="230" y="221"/>
      <point x="276" y="221" type="curve" smooth="yes"/>
      <point x="327" y="221" type="line"/>
      <point x="317" y="233" type="line"/>
      <point x="317" y="201"/>
      <point x="317" y="170"/>
    </contour>
    <contour>
      <point x="516" y="298" type="line"/>
      <point x="516" y="380"/>
      <point x="534" y="415"/>
      <point x="575" y="415" type="curve" smooth="yes"/>
      <point x="610" y="415"/>
      <point x="621" y="390"/>
      <point x="621" y="307" type="curve"/>
      <point x="631" y="316" type="line"/>
      <point x="504" y="316" type="line"/>
    </contour>
  </outline>
</glyph>
<glyph name="icircumflex" format="2">
  <advance width="338"/>
  <unicode hex="00EE"/>
  <outline>
    <contour>
      <point x="50" y="611" type="line"/>
      <point x="240" y="754" type="line"/>
      <point x="99" y="756" type="line"/>
      <point x="295" y="611" type="line"/>
      <point x="365" y="682" type="line"/>
      <point x="223" y="850" type="line"/>
      <point x="111" y="839" type="line"/>
      <point x="-18" y="682" type="line"/>
    </contour>
    <component base="idotless"/>
  </outline>
</glyph>
<glyph name="idieresis" format="2">
  <advance width="338"/>
  <unicode hex="00EF"/>
  <guideline x="154" y="800" angle="0" identifier="nzHRDq8rVW"/>
  <guideline x="154" y="604" angle="0" identifier="EKWsCZqRXi"/>
  <anchor x="176" y="0" name="bottom"/>
  <anchor x="331" y="0" name="ogonek"/>
  <outline>
    <contour>
      <point x="268" y="604" type="curve" smooth="yes"/>
      <point x="315" y="604"/>
      <point x="356" y="640"/>
      <point x="356" y="701" type="curve" smooth="yes"/>
      <point x="356" y="761"/>
      <point x="321" y="798"/>
      <point x="268" y="798" type="curve" smooth="yes"/>
      <point x="221" y="798"/>
      <point x="180" y="761"/>
      <point x="181" y="701" type="curve" smooth="yes"/>
      <point x="182" y="640"/>
      <point x="214" y="604"/>
    </contour>
    <contour>
      <point x="51" y="604" type="curve" smooth="yes"/>
      <point x="98" y="604"/>
      <point x="140" y="640"/>
      <point x="140" y="701" type="curve" smooth="yes"/>
      <point x="140" y="761"/>
      <point x="105" y="798"/>
      <point x="51" y="798" type="curve" smooth="yes"/>
      <point x="4" y="798"/>
      <point x="-36" y="761"/>
      <point x="-35" y="701" type="curve" smooth="yes"/>
      <point x="-34" y="640"/>
      <point x="-2" y="604"/>
    </contour>
    <contour>
      <point x="276" y="112" type="line"/>
      <point x="276" y="544" type="line"/>
      <point x="21" y="536" type="line"/>
      <point x="21" y="436" type="line"/>
      <point x="86" y="411" type="line"/>
      <point x="76" y="421" type="line"/>
      <point x="76" y="112" type="line"/>
      <point x="88" y="127" type="line"/>
      <point x="21" y="100" type="line"/>
      <point x="21" y="0" type="line"/>
      <point x="331" y="0" type="line"/>
      <point x="331" y="100" type="line"/>
      <point x="264" y="127" type="line"/>
    </contour>
  </outline>
</glyph>
<glyph name="oslash" format="2">
  <advance width="585"/>
  <unicode hex="00F8"/>
  <anchor x="294" y="0" name="bottom"/>
  <anchor x="388" y="0" name="ogonek"/>
  <anchor x="294" y="540" name="top"/>
  <outline>
    <contour>
      <point x="468" y="653" type="line"/>
      <point x="379" y="513" type="line"/>
      <point x="373" y="481" type="line"/>
      <point x="149" y="129" type="line"/>
      <point x="117" y="101" type="line"/>
      <point x="20" y="-53" type="line"/>
      <point x="117" y="-109" type="line"/>
      <point x="212" y="42" type="line"/>
      <point x="221" y="80" type="line"/>
      <point x="440" y="425" type="line"/>
      <point x="471" y="452" type="line"/>
      <point x="564" y="598" type="line"/>
    </contour>
    <contour>
      <point x="302" y="555" type="curve" smooth="yes"/>
      <point x="122" y="555"/>
      <point x="19" y="446"/>
      <point x="19" y="261" type="curve" smooth="yes"/>
      <point x="19" y="85"/>
      <point x="112" y="-15"/>
      <point x="283" y="-15" type="curve" smooth="yes"/>
      <point x="461" y="-15"/>
      <point x="569" y="93"/>
      <point x="569" y="280" type="curve" smooth="yes"/>
      <point x="569" y="457"/>
      <point x="472" y="555"/>
    </contour>
    <contour>
      <point x="293" y="415" type="curve" smooth="yes"/>
      <point x="344" y="415"/>
      <point x="361" y="379"/>
      <point x="361" y="272" type="curve" smooth="yes"/>
      <point x="361" y="165"/>
      <point x="344" y="125"/>
      <point x="293" y="125" type="curve" smooth="yes"/>
      <point x="244" y="125"/>
      <point x="227" y="162"/>
      <point x="227" y="270" type="curve" smooth="yes"/>
      <point x="227" y="378"/>
      <point x="244" y="415"/>
    </contour>
  </outline>
</glyph>
<glyph name="dcroat" format="2">
  <advance width="615"/>
  <unicode hex="0111"/>
  <guideline x="603" y="316" angle="90"/>
  <outline>
    <contour>
      <point x="174" y="661" type="line"/>
      <point x="174" y="556" type="line"/>
      <point x="603" y="556" type="line"/>
      <point x="603" y="661" type="line"/>
    </contour>
    <contour>
      <point x="214" y="-15" type="curve" smooth="yes"/>
      <point x="280" y="-15"/>
      <point x="335" y="14"/>
      <point x="392" y="70" type="curve"/>
      <point x="372" y="76" type="line"/>
      <point x="397" y="-11" type="line"/>
      <point x="608" y="0" type="line"/>
      <point x="608" y="99" type="line"/>
      <point x="531" y="133" type="line"/>
      <point x="553" y="107" type="line"/>
      <point x="553" y="784" type="line"/>
      <point x="293" y="774" type="line"/>
      <point x="293" y="681" type="line"/>
      <point x="365" y="655" type="line"/>
      <point x="353" y="669" type="line"/>
      <point x="353" y="516" type="line"/>
      <point x="388" y="537" type="line"/>
      <point x="364" y="539"/>
      <point x="340" y="540"/>
      <point x="318" y="540" type="curve" smooth="yes"/>
      <point x="123" y="540"/>
      <point x="16" y="456"/>
      <point x="16" y="253" type="curve" smooth="yes"/>
      <point x="16" y="78"/>
      <point x="96" y="-15"/>
    </contour>
    <contour>
      <point x="294" y="129" type="curve" smooth="yes"/>
      <point x="245" y="129"/>
      <point x="224" y="187"/>
      <point x="224" y="272" type="curve" smooth="yes"/>
      <point x="224" y="362"/>
      <point x="248" y="401"/>
      <point x="312" y="401" type="curve" smooth="yes"/>
      <point x="330" y="401"/>
      <point x="351" y="398"/>
      <point x="376" y="392" type="curve"/>
      <point x="353" y="437" type="line"/>
      <point x="353" y="112" type="line"/>
      <point x="376" y="169" type="line"/>
      <point x="344" y="143"/>
      <point x="318" y="129"/>
    </contour>
  </outline>
</glyph>
<glyph name="imacron" format="2">
  <advance width="338"/>
  <unicode hex="012B"/>
  <guideline x="21" y="594" angle="90" identifier="zQzAWdgTPc"/>
  <guideline x="331" y="594" angle="90" identifier="M4KUirDuOw"/>
  <outline>
    <contour>
      <point x="323.90000000000003" y="786" type="line"/>
      <point x="21.5" y="786" type="line"/>
      <point x="21.5" y="651" type="line"/>
      <point x="323.90000000000003" y="651" type="line"/>
    </contour>
    <component base="idotless"/>
  </outline>
</glyph>
<glyph name="idotless" format="2">
  <advance width="338"/>
  <unicode hex="0131"/>
  <guideline x="176" y="454" angle="90"/>
  <guideline x="697" y="454" angle="90"/>
  <anchor x="176" y="0" name="bottom"/>
  <anchor x="283" y="0" name="ogonek"/>
  <anchor x="176" y="540" name="top"/>
  <outline>
    <contour>
      <point x="276" y="112" type="line"/>
      <point x="276" y="544" type="line"/>
      <point x="21" y="536" type="line"/>
      <point x="21" y="436" type="line"/>
      <point x="86" y="411" type="line"/>
      <point x="76" y="421" type="line"/>
      <point x="76" y="112" type="line"/>
      <point x="88" y="127" type="line"/>
      <point x="21" y="100" type="line"/>
      <point x="21" y="0" type="line"/>
      <point x="331" y="0" type="line"/>
      <point x="331" y="100" type="line"/>
      <point x="264" y="127" type="line"/>
    </contour>
  </outline>
</glyph>
<glyph name="jcircumflex" format="2">
  <advance width="311"/>
  <unicode hex="0135"/>
  <outline>
    <contour>
      <point x="32" y="611" type="line"/>
      <point x="222" y="754" type="line"/>
      <point x="81" y="756" type="line"/>
      <point x="277" y="611" type="line"/>
      <point x="347" y="682" type="line"/>
      <point x="205" y="850" type="line"/>
      <point x="93" y="839" type="line"/>
      <point x="-36" y="682" type="line"/>
    </contour>
    <component base="jdotless"/>
  </outline>
</glyph>
<glyph name="Lslash" format="2">
  <advance width="592"/>
  <unicode hex="0141"/>
  <guideline x="52" y="445" angle="90" identifier="Kodg52PqM3"/>
  <guideline x="74" y="542" angle="359.2052" identifier="Myu7V6g9yN"/>
  <guideline x="42" y="484" angle="90" identifier="StYRpnRWt0"/>
  <outline>
    <contour>
      <point x="9" y="321" type="line"/>
      <point x="52" y="220" type="line"/>
      <point x="460" y="414" type="line"/>
      <point x="417" y="515" type="line"/>
    </contour>
    <contour>
      <point x="457" y="245" type="line"/>
      <point x="430" y="114" type="line"/>
      <point x="456" y="145" type="line"/>
      <point x="287" y="145" type="line"/>
      <point x="317" y="115" type="line"/>
      <point x="317" y="610" type="line"/>
      <point x="298" y="573" type="line"/>
      <point x="380" y="610" type="line"/>
      <point x="380" y="710" type="line"/>
      <point x="52" y="705" type="line"/>
      <point x="52" y="605" type="line"/>
      <point x="133" y="573" type="line"/>
      <point x="112" y="610" type="line"/>
      <point x="112" y="95" type="line"/>
      <point x="133" y="132" type="line"/>
      <point x="52" y="100" type="line"/>
      <point x="52" y="0" type="line"/>
      <point x="577" y="0" type="line"/>
      <point x="577" y="245" type="line"/>
    </contour>
  </outline>
</glyph>
<glyph name="napostrophe" format="2">
  <advance width="825"/>
  <unicode hex="0149"/>
  <outline>
    <contour>
      <point x="43.8" y="708.6" type="curve" smooth="yes"/>
      <point x="43.8" y="660.0"/>
      <point x="75.30000000000001" y="639.3"/>
      <point x="75.30000000000001" y="611.4" type="curve" smooth="yes"/>
      <point x="75.30000000000001" y="595.1999999999999"/>
      <point x="63.6" y="565.5"/>
      <point x="22.200000000000003" y="495.29999999999995" type="curve"/>
      <point x="79.80000000000001" y="457.5" type="line"/>
      <point x="182.4" y="559.1999999999999"/>
      <point x="217.5" y="639.3"/>
      <point x="217.5" y="698.6999999999999" type="curve" smooth="yes"/>
      <point x="217.5" y="763.5"/>
      <point x="172.5" y="795.0"/>
      <point x="128.4" y="795.0" type="curve" smooth="yes"/>
      <point x="85.2" y="795.0"/>
      <point x="43.8" y="766.1999999999999"/>
    </contour>
    <component base="n" xOffset="171"/>
  </outline>
</glyph>
<glyph name="Tbar" format="2">
  <advance width="639"/>
  <unicode hex="0166"/>
  <outline>
    <contour>
      <point x="96" y="271" type="line"/>
      <point x="543" y="271" type="line"/>
      <point x="543" y="403" type="line"/>
      <point x="96" y="403" type="line"/>
    </contour>
    <component base="T"/>
  </outline>
</glyph>
<glyph name="tbar" format="2">
  <advance width="429"/>
  <unicode hex="0167"/>
  <outline>
    <contour>
      <point x="0" y="225" type="line"/>
      <point x="398" y="225" type="line"/>
      <point x="398" y="335" type="line"/>
      <point x="0" y="335" type="line"/>
    </contour>
    <component base="t"/>
  </outline>
</glyph>
<glyph name="longs" format="2">
  <advance width="395"/>
  <unicode hex="017F"/>
  <anchor x="174" y="0" name="bottom"/>
  <anchor x="174" y="540" name="top"/>
  <outline>
    <contour>
      <point x="19" y="0" type="line"/>
      <point x="339" y="0" type="line"/>
      <point x="339" y="100" type="line"/>
      <point x="258" y="128" type="line"/>
      <point x="274" y="110" type="line"/>
      <point x="274" y="574" type="line" smooth="yes"/>
      <point x="274" y="637"/>
      <point x="311" y="656"/>
      <point x="354" y="656" type="curve" smooth="yes"/>
      <point x="377" y="656"/>
      <point x="401" y="651"/>
      <point x="423" y="644" type="curve"/>
      <point x="450" y="775" type="line"/>
      <point x="400" y="788"/>
      <point x="359" y="795"/>
      <point x="317" y="795" type="curve" smooth="yes"/>
      <point x="169" y="795"/>
      <point x="74" y="719"/>
      <point x="74" y="558" type="curve" smooth="yes"/>
      <point x="74" y="109" type="line"/>
      <point x="90" y="128" type="line"/>
      <point x="19" y="100" type="line"/>
    </contour>
  </outline>
</glyph>
<glyph name="jdotless" format="2">
  <advance width="311"/>
  <unicode hex="0237"/>
  <guideline x="87" y="-96" angle="0"/>
  <anchor x="156" y="540" name="top"/>
  <outline>
    <contour>
      <point x="6" y="-245" type="curve" smooth="yes"/>
      <point x="143" y="-245"/>
      <point x="263" y="-179"/>
      <point x="263" y="36" type="curve" smooth="yes"/>
      <point x="263" y="544" type="line"/>
      <point x="8" y="536" type="line"/>
      <point x="8" y="436" type="line"/>
      <point x="80" y="408" type="line"/>
      <point x="63" y="429" type="line"/>
      <point x="63" y="-23" type="line" smooth="yes"/>
      <point x="63" y="-80"/>
      <point x="38" y="-100"/>
      <point x="-20" y="-100" type="curve" smooth="yes"/>
      <point x="-32" y="-100"/>
      <point x="-47" y="-99"/>
      <point x="-63" y="-97" type="curve"/>
      <point x="-78" y="-236" type="line"/>
      <point x="-48" y="-242"/>
      <point x="-23" y="-245"/>
    </contour>
  </outline>
</glyph>
<glyph name="schwa" format="2">
  <advance width="549"/>
  <unicode hex="0259"/>
  <guideline x="241" y="325" angle="0" identifier="lIplHBmty1"/>
  <outline>
    <contour>
      <point x="277" y="555" type="curve" smooth="yes"/>
      <point x="193" y="555"/>
      <point x="106" y="528"/>
      <point x="25" y="472" type="curve"/>
      <point x="90" y="369" type="line"/>
      <point x="142" y="396"/>
      <point x="191" y="410"/>
      <point x="229" y="410" type="curve" smooth="yes"/>
      <point x="318" y="410"/>
      <point x="331" y="335"/>
      <point x="331" y="250" type="curve" smooth="yes"/>
      <point x="331" y="188"/>
      <point x="324" y="125"/>
      <point x="271" y="125" type="curve" smooth="yes"/>
      <point x="230" y="125"/>
      <point x="220" y="167"/>
      <point x="222" y="243" type="curve"/>
      <point x="191" y="221" type="line"/>
      <point x="371" y="221" type="line"/>
      <point x="371" y="324" type="line"/>
      <point x="25" y="324" type="line"/>
      <point x="19" y="293"/>
      <point x="16" y="257"/>
      <point x="16" y="228" type="curve" smooth="yes"/>
      <point x="16" y="91"/>
      <point x="84" y="-15"/>
      <point x="254" y="-15" type="curve" smooth="yes"/>
      <point x="428" y="-15"/>
      <point x="536" y="96"/>
      <point x="536" y="281" type="curve" smooth="yes"/>
      <point x="536" y="461"/>
      <point x="434" y="555"/>
    </contour>
  </outline>
</glyph>
<glyph name="commaturnedmod" format="2">
  <advance width="246"/>
  <unicode hex="02BB"/>
  <outline>
    <contour>
      <point x="230" y="687" type="curve" smooth="yes"/>
      <point x="230" y="741"/>
      <point x="195" y="764"/>
      <point x="195" y="795" type="curve" smooth="yes"/>
      <point x="195" y="813"/>
      <point x="208" y="846"/>
      <point x="254" y="924" type="curve"/>
      <point x="190" y="966" type="line"/>
      <point x="76" y="853"/>
      <point x="37" y="764"/>
      <point x="37" y="698" type="curve" smooth="yes"/>
      <point x="37" y="626"/>
      <point x="87" y="591"/>
      <point x="136" y="591" type="curve" smooth="yes"/>
      <point x="184" y="591"/>
      <point x="230" y="623"/>
    </contour>
  </outline>
</glyph>
<glyph name="ringhalfleft" format="2">
  <advance width="215"/>
  <unicode hex="02BF"/>
  <outline>
    <contour>
      <point x="187" y="592" type="curve"/>
      <point x="187" y="680" type="line"/>
      <point x="153" y="680"/>
      <point x="140" y="703"/>
      <point x="140" y="738" type="curve" smooth="yes"/>
      <point x="140" y="774"/>
      <point x="154" y="798"/>
      <point x="187" y="798" type="curve"/>
      <point x="187" y="886" type="line"/>
      <point x="79" y="886"/>
      <point x="24" y="817"/>
      <point x="24" y="738" type="curve" smooth="yes"/>
      <point x="24" y="660"/>
      <point x="78" y="592"/>
    </contour>
  </outline>
</glyph>
<glyph name="verticallinemod" format="2">
  <advance width="246"/>
  <unicode hex="02C8"/>
  <outline>
    <contour>
      <point x="48" y="592" type="line"/>
      <point x="198" y="592" type="line"/>
      <point x="198" y="895" type="line"/>
      <point x="48" y="895" type="line"/>
    </contour>
  </outline>
</glyph>
<glyph name="ogonek" format="2">
  <advance width="310"/>
  <unicode hex="02DB"/>
  <guideline x="270" y="220" angle="90" identifier="VpUSgHftdM"/>
  <outline>
    <contour>
      <point x="149" y="-228" type="curve" smooth="yes"/>
      <point x="181" y="-228"/>
      <point x="218" y="-222"/>
      <point x="260" y="-208" type="curve"/>
      <point x="250" y="-99" type="line"/>
      <point x="238" y="-101"/>
      <point x="224" y="-103"/>
      <point x="210" y="-103" type="curve" smooth="yes"/>
      <point x="180" y="-103"/>
      <point x="152" y="-95"/>
      <point x="152" y="-67" type="curve" smooth="yes"/>
      <point x="152" y="-35"/>
      <point x="198" y="-10"/>
      <point x="270" y="0" type="curve"/>
      <point x="238" y="66" type="line"/>
      <point x="78" y="37"/>
      <point x="11" y="-52"/>
      <point x="11" y="-122" type="curve" smooth="yes"/>
      <point x="11" y="-180"/>
      <point x="60" y="-228"/>
    </contour>
  </outline>
</glyph>
<glyph name="gravecomb" format="2">
  <unicode hex="0300"/>
  <anchor x="182" y="540" name="_top"/>
  <anchor x="197" y="780" name="top"/>
  <outline>
    <contour>
      <point x="119" y="872" type="line"/>
      <point x="19" y="737" type="line"/>
      <point x="282" y="592" type="line"/>
      <point x="356" y="693" type="line"/>
    </contour>
  </outline>
</glyph>
<glyph name="dblgravecomb" format="2">
  <unicode hex="030F"/>
  <anchor x="269" y="540" name="_top"/>
  <anchor x="230" y="780" name="top"/>
  <outline>
    <contour>
      <point x="146" y="592" type="line"/>
      <point x="17" y="804" type="line"/>
      <point x="147" y="872" type="line"/>
      <point x="246" y="641" type="line"/>
    </contour>
    <contour>
      <point x="338" y="592" type="line"/>
      <point x="217" y="809" type="line"/>
      <point x="349" y="872" type="line"/>
      <point x="440" y="639" type="line"/>
    </contour>
  </outline>
</glyph>
<glyph name="breveinvertedcomb" format="2">
  <unicode hex="0311"/>
  <anchor x="203" y="540" name="_top"/>
  <anchor x="203" y="780" name="top"/>
  <outline>
    <contour>
      <point x="203" y="821" type="curve" smooth="yes"/>
      <point x="92" y="821"/>
      <point x="13" y="736"/>
      <point x="16" y="618" type="curve"/>
      <point x="128" y="623" type="line"/>
      <point x="132" y="664"/>
      <point x="157" y="689"/>
      <point x="198" y="689" type="curve" smooth="yes"/>
      <point x="241" y="689"/>
      <point x="270" y="661"/>
      <point x="276" y="614" type="curve"/>
      <point x="391" y="627" type="line"/>
      <point x="389" y="740"/>
      <point x="311" y="821"/>
    </contour>
  </outline>
</glyph>
<glyph name="commaturnedabovecomb" format="2">
  <unicode hex="0312"/>
  <guideline x="87" y="592" angle="0"/>
  <anchor x="131" y="540" name="_top"/>
  <anchor x="131" y="780" name="top"/>
  <outline>
    <contour>
      <point x="172" y="913" type="line"/>
      <point x="69" y="816"/>
      <point x="35" y="747"/>
      <point x="35" y="686" type="curve" smooth="yes"/>
      <point x="35" y="623"/>
      <point x="83" y="592"/>
      <point x="130" y="592" type="curve" smooth="yes"/>
      <point x="177" y="592"/>
      <point x="224" y="622"/>
      <point x="224" y="681" type="curve" smooth="yes"/>
      <point x="224" y="732"/>
      <point x="191" y="752"/>
      <point x="191" y="779" type="curve" smooth="yes"/>
      <point x="191" y="799"/>
      <point x="202" y="816"/>
      <point x="236" y="870" type="curve"/>
    </contour>
  </outline>
</glyph>
<glyph name="commaaccentcomb" format="2">
  <unicode hex="0326"/>
  <anchor x="136" y="0" name="_bottom"/>
  <anchor x="136" y="-340" name="bottom"/>
  <outline>
    <contour>
      <point x="88" y="-366" type="line"/>
      <point x="191" y="-269"/>
      <point x="225" y="-200"/>
      <point x="225" y="-139" type="curve" smooth="yes"/>
      <point x="225" y="-76"/>
      <point x="177" y="-45"/>
      <point x="130" y="-45" type="curve" smooth="yes"/>
      <point x="83" y="-45"/>
      <point x="36" y="-75"/>
      <point x="36" y="-134" type="curve" smooth="yes"/>
      <point x="36" y="-185"/>
      <point x="69" y="-205"/>
      <point x="69" y="-232" type="curve" smooth="yes"/>
      <point x="69" y="-252"/>
      <point x="58" y="-269"/>
      <point x="24" y="-323" type="curve"/>
    </contour>
  </outline>
</glyph>
<glyph name="strokeshortcomb" format="2">
  <unicode hex="0335"/>
  <anchor x="267" y="298" name="_center"/>
  <outline>
    <contour>
      <point x="50" y="243" type="line"/>
      <point x="483" y="243" type="line"/>
      <point x="483" y="353" type="line"/>
      <point x="50" y="353" type="line"/>
    </contour>
  </outline>
</glyph>
<glyph name="E-cy" format="2">
  <advance width="632"/>
  <unicode hex="0404"/>
  <outline>
    <contour>
      <point x="336" y="-15" type="curve" smooth="yes"/>
      <point x="425" y="-15"/>
      <point x="521" y="18"/>
      <point x="615" y="88" type="curve"/>
      <point x="538" y="200" type="line"/>
      <point x="477" y="163"/>
      <point x="425" y="145"/>
      <point x="382" y="145" type="curve" smooth="yes"/>
      <point x="292" y="145"/>
      <point x="238" y="222"/>
      <point x="238" y="371" type="curve" smooth="yes"/>
      <point x="238" y="505"/>
      <point x="282" y="571"/>
      <point x="370" y="571" type="curve" smooth="yes"/>
      <point x="399" y="571"/>
      <point x="433" y="564"/>
      <point x="473" y="550" type="curve"/>
      <point x="439" y="577" type="line"/>
      <point x="470" y="475" type="line"/>
      <point x="590" y="475" type="line"/>
      <point x="602" y="672" type="line"/>
      <point x="516" y="708"/>
      <point x="434" y="725"/>
      <point x="361" y="725" type="curve" smooth="yes"/>
      <point x="163" y="725"/>
      <point x="23" y="598"/>
      <point x="23" y="354" type="curve" smooth="yes"/>
      <point x="23" y="114"/>
      <point x="160" y="-15"/>
    </contour>
    <contour>
      <point x="227" y="291" type="line"/>
      <point x="456" y="291" type="line"/>
      <point x="456" y="426" type="line"/>
      <point x="227" y="426" type="line"/>
    </contour>
  </outline>
</glyph>
<glyph name="Ge-cy" format="2">
  <advance width="565"/>
  <unicode hex="0413"/>
  <anchor x="364" y="0" name="bottomright"/>
  <anchor x="318" y="710" name="top"/>
  <outline>
    <contour>
      <point x="24" y="0" type="line"/>
      <point x="364" y="0" type="line"/>
      <point x="364" y="100" type="line"/>
      <point x="266" y="132" type="line"/>
      <point x="289" y="105" type="line"/>
      <point x="289" y="595" type="line"/>
      <point x="259" y="565" type="line"/>
      <point x="440" y="565" type="line"/>
      <point x="397" y="584" type="line"/>
      <point x="427" y="474" type="line"/>
      <point x="547" y="474" type="line"/>
      <point x="546" y="710" type="line"/>
      <point x="284" y="710" type="line"/>
      <point x="24" y="705" type="line"/>
      <point x="24" y="605" type="line"/>
      <point x="111" y="571" type="line"/>
      <point x="84" y="610" type="line"/>
      <point x="84" y="105" type="line"/>
      <point x="103" y="132" type="line"/>
      <point x="24" y="100" type="line"/>
    </contour>
  </outline>
</glyph>
<glyph name="Zhe-cy" format="2">
  <advance width="1096"/>
  <unicode hex="0416"/>
  <guideline x="554" y="681" angle="90"/>
  <anchor x="1083" y="0" name="bottomright"/>
  <anchor x="554" y="710" name="top"/>
  <outline>
    <contour>
      <point x="14" y="0" type="line"/>
      <point x="327" y="0" type="line"/>
      <point x="327" y="100" type="line"/>
      <point x="265" y="133" type="line"/>
      <point x="266" y="99" type="line"/>
      <point x="411" y="329" type="line"/>
      <point x="352" y="299" type="line"/>
      <point x="486" y="299" type="line"/>
      <point x="456" y="329" type="line"/>
      <point x="456" y="95" type="line"/>
      <point x="476" y="132" type="line"/>
      <point x="401" y="100" type="line"/>
      <point x="401" y="0" type="line"/>
      <point x="696" y="0" type="line"/>
      <point x="696" y="100" type="line"/>
      <point x="622" y="137" type="line"/>
      <point x="646" y="95" type="line"/>
      <point x="646" y="329" type="line"/>
      <point x="616" y="299" type="line"/>
      <point x="745" y="299" type="line"/>
      <point x="691" y="329" type="line"/>
      <point x="830" y="99" type="line"/>
      <point x="832" y="133" type="line"/>
      <point x="770" y="100" type="line"/>
      <point x="770" y="0" type="line"/>
      <point x="1083" y="0" type="line"/>
      <point x="1083" y="100" type="line"/>
      <point x="1006" y="133" type="line"/>
      <point x="1060" y="91" type="line"/>
      <point x="850" y="395" type="line"/>
      <point x="850" y="346" type="line"/>
      <point x="1014" y="607" type="line"/>
      <point x="972" y="574" type="line"/>
      <point x="1054" y="610" type="line"/>
      <point x="1054" y="710" type="line"/>
      <point x="772" y="705" type="line"/>
      <point x="772" y="605" type="line"/>
      <point x="845" y="580" type="line"/>
      <point x="831" y="609" type="line"/>
      <point x="712" y="404" type="line"/>
      <point x="762" y="434" type="line"/>
      <point x="616" y="434" type="line"/>
      <point x="646" y="404" type="line"/>
      <point x="646" y="616" type="line"/>
      <point x="623" y="574" type="line"/>
      <point x="696" y="612" type="line"/>
      <point x="696" y="710" type="line"/>
      <point x="401" y="705" type="line"/>
      <point x="401" y="605" type="line"/>
      <point x="475" y="575" type="line"/>
      <point x="456" y="611" type="line"/>
      <point x="456" y="404" type="line"/>
      <point x="486" y="434" type="line"/>
      <point x="335" y="434" type="line"/>
      <point x="387" y="404" type="line"/>
      <point x="272" y="609" type="line"/>
      <point x="252" y="580" type="line"/>
      <point x="325" y="610" type="line"/>
      <point x="325" y="710" type="line"/>
      <point x="43" y="705" type="line"/>
      <point x="43" y="605" type="line"/>
      <point x="125" y="574" type="line"/>
      <point x="80" y="607" type="line"/>
      <point x="240" y="346" type="line"/>
      <point x="254" y="395" type="line"/>
      <point x="42" y="91" type="line"/>
      <point x="91" y="133" type="line"/>
      <point x="14" y="100" type="line"/>
    </contour>
  </outline>
</glyph>
<glyph name="El-cy" format="2">
  <advance width="759"/>
  <unicode hex="041B"/>
  <anchor x="735" y="0" name="bottomright"/>
  <outline>
    <contour>
      <point x="117" y="-18" type="curve" smooth="yes"/>
      <point x="337" y="-18"/>
      <point x="340" y="266"/>
      <point x="365" y="601" type="curve"/>
      <point x="328" y="565" type="line"/>
      <point x="500" y="565" type="line"/>
      <point x="470" y="610" type="line"/>
      <point x="470" y="95" type="line"/>
      <point x="494" y="134" type="line"/>
      <point x="400" y="100" type="line"/>
      <point x="400" y="0" type="line"/>
      <point x="735" y="0" type="line"/>
      <point x="735" y="100" type="line"/>
      <point x="649" y="134" type="line"/>
      <point x="675" y="95" type="line"/>
      <point x="675" y="611" type="line"/>
      <point x="649" y="570" type="line"/>
      <point x="735" y="610" type="line"/>
      <point x="735" y="710" type="line"/>
      <point x="356" y="710" type="line"/>
      <point x="146" y="705" type="line"/>
      <point x="146" y="605" type="line"/>
      <point x="232" y="569" type="line"/>
      <point x="206" y="600" type="line"/>
      <point x="200" y="408"/>
      <point x="191" y="181"/>
      <point x="70" y="181" type="curve" smooth="yes"/>
      <point x="59" y="181"/>
      <point x="47" y="183"/>
      <point x="33" y="187" type="curve"/>
      <point x="3" y="2" type="line"/>
      <point x="46" y="-11"/>
      <point x="84" y="-18"/>
    </contour>
  </outline>
</glyph>
<glyph name="Pe-cy" format="2">
  <advance width="769"/>
  <unicode hex="041F"/>
  <anchor x="745" y="0" name="bottomright"/>
  <outline>
    <contour>
      <point x="24" y="0" type="line"/>
      <point x="349" y="0" type="line"/>
      <point x="349" y="100" type="line"/>
      <point x="265" y="134" type="line"/>
      <point x="289" y="95" type="line"/>
      <point x="289" y="611" type="line"/>
      <point x="260" y="565" type="line"/>
      <point x="510" y="565" type="line"/>
      <point x="480" y="610" type="line"/>
      <point x="480" y="95" type="line"/>
      <point x="504" y="134" type="line"/>
      <point x="420" y="100" type="line"/>
      <point x="420" y="0" type="line"/>
      <point x="745" y="0" type="line"/>
      <point x="745" y="100" type="line"/>
      <point x="659" y="134" type="line"/>
      <point x="685" y="95" type="line"/>
      <point x="685" y="611" type="line"/>
      <point x="659" y="570" type="line"/>
      <point x="745" y="610" type="line"/>
      <point x="745" y="710" type="line"/>
      <point x="289" y="710" type="line"/>
      <point x="24" y="705" type="line"/>
      <point x="24" y="605" type="line"/>
      <point x="116" y="569" type="line"/>
      <point x="84" y="610" type="line"/>
      <point x="84" y="95" type="line"/>
      <point x="109" y="134" type="line"/>
      <point x="24" y="100" type="line"/>
    </contour>
  </outline>
</glyph>
<glyph name="Ef-cy" format="2">
  <advance width="815"/>
  <unicode hex="0424"/>
  <guideline x="627" y="762" angle="0"/>
  <outline>
    <contour>
      <point x="552" y="671" type="line"/>
      <point x="552" y="766" type="line"/>
      <point x="263" y="761" type="line"/>
      <point x="263" y="666" type="line"/>
      <point x="347" y="637" type="line"/>
      <point x="323" y="656" type="line"/>
      <point x="323" y="85" type="line"/>
      <point x="340" y="103" type="line"/>
      <point x="263" y="75" type="line"/>
      <point x="263" y="-20" type="line"/>
      <point x="552" y="-20" type="line"/>
      <point x="552" y="75" type="line"/>
      <point x="473" y="104" type="line"/>
      <point x="492" y="85" type="line"/>
      <point x="492" y="656" type="line"/>
      <point x="473" y="638" type="line"/>
    </contour>
    <contour>
      <point x="386" y="110" type="curve" smooth="yes"/>
      <point x="669" y="110"/>
      <point x="795" y="210"/>
      <point x="795" y="382" type="curve" smooth="yes"/>
      <point x="795" y="539"/>
      <point x="689" y="631"/>
      <point x="415" y="631" type="curve" smooth="yes"/>
      <point x="142" y="631"/>
      <point x="20" y="540"/>
      <point x="20" y="361" type="curve" smooth="yes"/>
      <point x="20" y="197"/>
      <point x="123" y="110"/>
    </contour>
    <contour>
      <point x="404" y="220" type="curve" smooth="yes"/>
      <point x="259" y="222"/>
      <point x="230" y="271"/>
      <point x="230" y="369" type="curve" smooth="yes"/>
      <point x="229" y="485"/>
      <point x="274" y="521"/>
      <point x="407" y="521" type="curve" smooth="yes"/>
      <point x="548" y="521"/>
      <point x="585" y="480"/>
      <point x="585" y="377" type="curve" smooth="yes"/>
      <point x="585" y="255"/>
      <point x="533" y="218"/>
    </contour>
  </outline>
</glyph>
<glyph name="Iu-cy" format="2">
  <advance width="1067"/>
  <unicode hex="042E"/>
  <outline>
    <contour>
      <point x="695" y="-15" type="curve" smooth="yes"/>
      <point x="915" y="-15"/>
      <point x="1045" y="133"/>
      <point x="1045" y="370" type="curve" smooth="yes"/>
      <point x="1045" y="594"/>
      <point x="932" y="725"/>
      <point x="720" y="725" type="curve" smooth="yes"/>
      <point x="508" y="725"/>
      <point x="380" y="595"/>
      <point x="380" y="344" type="curve" smooth="yes"/>
      <point x="380" y="113"/>
      <point x="490" y="-15"/>
    </contour>
    <contour>
      <point x="24" y="0" type="line"/>
      <point x="349" y="0" type="line"/>
      <point x="349" y="100" type="line"/>
      <point x="265" y="134" type="line"/>
      <point x="289" y="95" type="line"/>
      <point x="289" y="323" type="line"/>
      <point x="259" y="293" type="line"/>
      <point x="504" y="293" type="line"/>
      <point x="504" y="438" type="line"/>
      <point x="259" y="438" type="line"/>
      <point x="289" y="408" type="line"/>
      <point x="289" y="611" type="line"/>
      <point x="260" y="569" type="line"/>
      <point x="349" y="610" type="line"/>
      <point x="349" y="710" type="line"/>
      <point x="24" y="705" type="line"/>
      <point x="24" y="605" type="line"/>
      <point x="116" y="569" type="line"/>
      <point x="84" y="610" type="line"/>
      <point x="84" y="95" type="line"/>
      <point x="109" y="134" type="line"/>
      <point x="24" y="100" type="line"/>
    </contour>
    <contour>
      <point x="710" y="140" type="curve" smooth="yes"/>
      <point x="630" y="140"/>
      <point x="600" y="193"/>
      <point x="600" y="351" type="curve" smooth="yes"/>
      <point x="600" y="531"/>
      <point x="638" y="570"/>
      <point x="711" y="570" type="curve" smooth="yes"/>
      <point x="791" y="570"/>
      <point x="825" y="524"/>
      <point x="825" y="362" type="curve" smooth="yes"/>
      <point x="825" y="182"/>
      <point x="782" y="140"/>
    </contour>
  </outline>
</glyph>
<glyph name="Ia-cy" format="2">
  <advance width="670"/>
  <unicode hex="042F"/>
  <guideline x="353" y="318" angle="0"/>
  <outline>
    <contour>
      <point x="646" y="0" type="line"/>
      <point x="646" y="100" type="line"/>
      <point x="562" y="133" type="line"/>
      <point x="586" y="95" type="line"/>
      <point x="586" y="609" type="line"/>
      <point x="551" y="573" type="line"/>
      <point x="646" y="610" type="line"/>
      <point x="646" y="710" type="line"/>
      <point x="320" y="710" type="line" smooth="yes"/>
      <point x="151" y="710"/>
      <point x="54" y="637"/>
      <point x="54" y="481" type="curve" smooth="yes"/>
      <point x="54" y="363"/>
      <point x="109" y="282"/>
      <point x="272" y="269" type="curve"/>
      <point x="280" y="296" type="line"/>
      <point x="196" y="298"/>
      <point x="138" y="283"/>
      <point x="110" y="220" type="curve" smooth="yes"/>
      <point x="58" y="104" type="line"/>
      <point x="101" y="139" type="line"/>
      <point x="8" y="100" type="line"/>
      <point x="8" y="0" type="line"/>
      <point x="210" y="0" type="line"/>
      <point x="286" y="176" type="line" smooth="yes"/>
      <point x="314" y="242"/>
      <point x="323" y="251"/>
      <point x="368" y="250" type="curve" smooth="yes"/>
      <point x="413" y="249" type="line"/>
      <point x="381" y="276" type="line"/>
      <point x="381" y="95" type="line"/>
      <point x="406" y="134" type="line"/>
      <point x="321" y="100" type="line"/>
      <point x="321" y="0" type="line"/>
    </contour>
    <contour>
      <point x="381" y="349" type="line"/>
      <point x="413" y="379" type="line"/>
      <point x="358" y="379" type="line" smooth="yes"/>
      <point x="290" y="379"/>
      <point x="262" y="414"/>
      <point x="262" y="481" type="curve" smooth="yes"/>
      <point x="262" y="539"/>
      <point x="283" y="566"/>
      <point x="334" y="566" type="curve" smooth="yes"/>
      <point x="413" y="566" type="line"/>
      <point x="381" y="596" type="line"/>
    </contour>
  </outline>
</glyph>
<glyph name="be-cy" format="2">
  <advance width="602"/>
  <unicode hex="0431"/>
  <outline>
    <contour>
      <point x="303" y="-14" type="curve" smooth="yes"/>
      <point x="468" y="-14"/>
      <point x="589" y="91"/>
      <point x="589" y="278" type="curve" smooth="yes"/>
      <point x="589" y="444"/>
      <point x="493" y="534"/>
      <point x="374" y="534" type="curve" smooth="yes"/>
      <point x="321" y="534"/>
      <point x="262" y="515"/>
      <point x="206" y="478" type="curve"/>
      <point x="214" y="353" type="line"/>
      <point x="245" y="373"/>
      <point x="274" y="384"/>
      <point x="299" y="384" type="curve" smooth="yes"/>
      <point x="348" y="384"/>
      <point x="381" y="341"/>
      <point x="381" y="250" type="curve" smooth="yes"/>
      <point x="381" y="179"/>
      <point x="361" y="141"/>
      <point x="311" y="141" type="curve" smooth="yes"/>
      <point x="246" y="141"/>
      <point x="230" y="205"/>
      <point x="230" y="409" type="curve" smooth="yes"/>
      <point x="230" y="614"/>
      <point x="233" y="638"/>
      <point x="547" y="638" type="curve"/>
      <point x="546" y="844" type="line"/>
      <point x="422" y="844" type="line"/>
      <point x="400" y="772" type="line"/>
      <point x="436" y="803" type="line"/>
      <point x="126" y="803"/>
      <point x="23" y="605"/>
      <point x="23" y="358" type="curve" smooth="yes"/>
      <point x="23" y="131"/>
      <point x="110" y="-14"/>
    </contour>
  </outline>
</glyph>
<glyph name="ve-cy" format="2">
  <advance width="590"/>
  <unicode hex="0432"/>
  <outline>
    <contour>
      <point x="276" y="540" type="line"/>
      <point x="21" y="536" type="line"/>
      <point x="21" y="436" type="line"/>
      <point x="86" y="411" type="line"/>
      <point x="76" y="421" type="line"/>
      <point x="76" y="112" type="line"/>
      <point x="88" y="127" type="line"/>
      <point x="21" y="100" type="line"/>
      <point x="21" y="0" type="line"/>
      <point x="323" y="0" type="line" smooth="yes"/>
      <point x="484" y="0"/>
      <point x="578" y="44"/>
      <point x="578" y="153" type="curve" smooth="yes"/>
      <point x="578" y="275"/>
      <point x="462" y="293"/>
      <point x="347" y="291" type="curve"/>
      <point x="335" y="271" type="line"/>
      <point x="467" y="279"/>
      <point x="558" y="295"/>
      <point x="558" y="403" type="curve" smooth="yes"/>
      <point x="558" y="514"/>
      <point x="463" y="540"/>
      <point x="331" y="540" type="curve" smooth="yes"/>
    </contour>
    <contour>
      <point x="291" y="413" type="line" smooth="yes"/>
      <point x="337" y="413"/>
      <point x="358" y="409"/>
      <point x="358" y="372" type="curve" smooth="yes"/>
      <point x="358" y="334"/>
      <point x="337" y="329"/>
      <point x="286" y="329" type="curve" smooth="yes"/>
      <point x="246" y="329" type="line"/>
      <point x="276" y="307" type="line"/>
      <point x="276" y="442" type="line"/>
      <point x="246" y="413" type="line"/>
    </contour>
    <contour>
      <point x="296" y="130" type="curve" smooth="yes"/>
      <point x="246" y="130" type="line"/>
      <point x="276" y="104" type="line"/>
      <point x="276" y="254" type="line"/>
      <point x="246" y="230" type="line"/>
      <point x="316" y="230" type="line" smooth="yes"/>
      <point x="354" y="230"/>
      <point x="370" y="216"/>
      <point x="370" y="180" type="curve" smooth="yes"/>
      <point x="370" y="137"/>
      <point x="346" y="130"/>
    </contour>
  </outline>
</glyph>
<glyph name="ka-cy" format="2">
  <advance width="637"/>
  <unicode hex="043A"/>
  <guideline x="405" y="357" angle="180" identifier="pYG3Jwli5r"/>
  <anchor x="626" y="0" name="bottomright"/>
  <anchor x="314" y="298" name="center"/>
  <anchor x="352" y="540" name="top"/>
  <outline>
    <contour>
      <point x="21" y="0" type="line"/>
      <point x="326" y="0" type="line"/>
      <point x="326" y="100" type="line"/>
      <point x="258" y="131" type="line"/>
      <point x="276" y="95" type="line"/>
      <point x="276" y="225" type="line"/>
      <point x="245" y="222" type="line"/>
      <point x="353" y="222" type="line"/>
      <point x="327" y="225" type="line"/>
      <point x="427" y="0" type="line"/>
      <point x="626" y="0" type="line"/>
      <point x="626" y="100" type="line"/>
      <point x="557" y="123" type="line"/>
      <point x="583" y="99" type="line"/>
      <point x="477" y="314" type="line"/>
      <point x="457" y="266" type="line"/>
      <point x="592" y="453" type="line"/>
      <point x="542" y="424" type="line"/>
      <point x="618" y="445" type="line"/>
      <point x="618" y="545" type="line"/>
      <point x="354" y="535" type="line"/>
      <point x="354" y="435" type="line"/>
      <point x="410" y="420" type="line"/>
      <point x="396" y="439" type="line"/>
      <point x="310" y="318" type="line"/>
      <point x="370" y="352" type="line"/>
      <point x="245" y="352" type="line"/>
      <point x="276" y="312" type="line"/>
      <point x="276" y="444" type="line"/>
      <point x="260" y="415" type="line"/>
      <point x="318" y="444" type="line"/>
      <point x="318" y="544" type="line"/>
      <point x="21" y="536" type="line"/>
      <point x="21" y="436" type="line"/>
      <point x="103" y="406" type="line"/>
      <point x="76" y="444" type="line"/>
      <point x="76" y="95" type="line"/>
      <point x="98" y="130" type="line"/>
      <point x="21" y="100" type="line"/>
    </contour>
  </outline>
</glyph>
<glyph name="tse-cy" format="2">
  <advance width="700"/>
  <unicode hex="0446"/>
  <guideline x="250" y="-180" angle="0" identifier="lDEfka9zk6"/>
  <outline>
    <contour>
      <point x="693" y="102" type="line"/>
      <point x="560" y="133" type="line"/>
      <point x="599" y="75" type="line"/>
      <point x="599" y="461" type="line"/>
      <point x="562" y="403" type="line"/>
      <point x="654" y="444" type="line"/>
      <point x="654" y="544" type="line"/>
      <point x="354" y="536" type="line"/>
      <point x="354" y="436" type="line"/>
      <point x="429" y="406" type="line"/>
      <point x="399" y="456" type="line"/>
      <point x="399" y="85" type="line"/>
      <point x="449" y="145" type="line"/>
      <point x="226" y="145" type="line"/>
      <point x="276" y="85" type="line"/>
      <point x="276" y="461" type="line"/>
      <point x="235" y="403" type="line"/>
      <point x="321" y="444" type="line"/>
      <point x="321" y="544" type="line"/>
      <point x="21" y="536" type="line"/>
      <point x="21" y="436" type="line"/>
      <point x="127" y="393" type="line"/>
      <point x="76" y="456" type="line"/>
      <point x="76" y="75" type="line"/>
      <point x="113" y="137" type="line"/>
      <point x="21" y="100" type="line"/>
      <point x="21" y="0" type="line"/>
      <point x="563" y="0" type="line"/>
      <point x="531" y="18" type="line"/>
      <point x="570" y="-185" type="line"/>
      <point x="695" y="-185" type="line"/>
    </contour>
  </outline>
</glyph>
<glyph name="ereversed-cy" format="2">
  <advance width="516"/>
  <unicode hex="044D"/>
  <anchor x="264" y="540" name="top"/>
  <outline>
    <contour>
      <point x="6" y="59" type="line"/>
      <point x="77" y="9"/>
      <point x="154" y="-15"/>
      <point x="226" y="-15" type="curve" smooth="yes"/>
      <point x="377" y="-15"/>
      <point x="505" y="90"/>
      <point x="505" y="275" type="curve" smooth="yes"/>
      <point x="505" y="461"/>
      <point x="390" y="555"/>
      <point x="221" y="555" type="curve" smooth="yes"/>
      <point x="162" y="555"/>
      <point x="96" y="543"/>
      <point x="26" y="520" type="curve"/>
      <point x="31" y="368" type="line"/>
      <point x="151" y="368" type="line"/>
      <point x="164" y="422" type="line"/>
      <point x="152" y="413" type="line"/>
      <point x="165" y="415"/>
      <point x="177" y="416"/>
      <point x="188" y="416" type="curve" smooth="yes"/>
      <point x="270" y="416"/>
      <point x="297" y="361"/>
      <point x="297" y="262" type="curve" smooth="yes"/>
      <point x="297" y="173"/>
      <point x="263" y="131"/>
      <point x="204" y="131" type="curve" smooth="yes"/>
      <point x="167" y="131"/>
      <point x="121" y="147"/>
      <point x="67" y="178" type="curve"/>
    </contour>
    <contour>
      <point x="141" y="215" type="line"/>
      <point x="401" y="215" type="line"/>
      <point x="401" y="330" type="line"/>
      <point x="144" y="330" type="line"/>
    </contour>
  </outline>
</glyph>
<glyph name="lje-cy" format="2">
  <advance width="870"/>
  <unicode hex="0459"/>
  <outline>
    <contour>
      <point x="120" y="-15" type="curve" smooth="yes"/>
      <point x="284" y="-15"/>
      <point x="325" y="167"/>
      <point x="327" y="448" type="curve"/>
      <point x="271" y="395" type="line"/>
      <point x="423" y="395" type="line"/>
      <point x="393" y="451" type="line"/>
      <point x="393" y="112" type="line"/>
      <point x="405" y="127" type="line"/>
      <point x="338" y="100" type="line"/>
      <point x="338" y="0" type="line"/>
      <point x="606" y="0" type="line" smooth="yes"/>
      <point x="788" y="0"/>
      <point x="867" y="67"/>
      <point x="867" y="193" type="curve" smooth="yes"/>
      <point x="867" y="320"/>
      <point x="787" y="376"/>
      <point x="651" y="376" type="curve" smooth="yes"/>
      <point x="563" y="376" type="line"/>
      <point x="593" y="352" type="line"/>
      <point x="593" y="442" type="line"/>
      <point x="563" y="412" type="line"/>
      <point x="663" y="440" type="line"/>
      <point x="663" y="540" type="line"/>
      <point x="117" y="540" type="line"/>
      <point x="117" y="440" type="line"/>
      <point x="228" y="397" type="line"/>
      <point x="177" y="456" type="line"/>
      <point x="176" y="254"/>
      <point x="162" y="157"/>
      <point x="71" y="157" type="curve" smooth="yes"/>
      <point x="60" y="157"/>
      <point x="47" y="158"/>
      <point x="34" y="161" type="curve"/>
      <point x="5" y="8" type="line"/>
      <point x="49" y="-7"/>
      <point x="87" y="-15"/>
    </contour>
    <contour>
      <point x="593" y="104" type="line"/>
      <point x="593" y="270" type="line"/>
      <point x="563" y="246" type="line"/>
      <point x="605" y="246" type="line" smooth="yes"/>
      <point x="642" y="246"/>
      <point x="659" y="232"/>
      <point x="659" y="190" type="curve" smooth="yes"/>
      <point x="659" y="145"/>
      <point x="640" y="130"/>
      <point x="600" y="130" type="curve" smooth="yes"/>
      <point x="563" y="130" type="line"/>
    </contour>
  </outline>
</glyph>
<glyph name="tshe-cy" format="2">
  <advance width="630"/>
  <unicode hex="045B"/>
  <guideline x="7" y="450" angle="90"/>
  <outline>
    <contour>
      <point x="7" y="0" type="line"/>
      <point x="307" y="0" type="line"/>
      <point x="307" y="100" type="line"/>
      <point x="246" y="126" type="line"/>
      <point x="262" y="99" type="line"/>
      <point x="262" y="327" type="line"/>
      <point x="250" y="299" type="line"/>
      <point x="280" y="325"/>
      <point x="311" y="338"/>
      <point x="335" y="338" type="curve" smooth="yes"/>
      <point x="363" y="338"/>
      <point x="382" y="320"/>
      <point x="382" y="283" type="curve" smooth="yes"/>
      <point x="382" y="99" type="line"/>
      <point x="403" y="127" type="line"/>
      <point x="337" y="100" type="line"/>
      <point x="337" y="0" type="line"/>
      <point x="627" y="0" type="line"/>
      <point x="627" y="100" type="line"/>
      <point x="566" y="129" type="line"/>
      <point x="582" y="103" type="line"/>
      <point x="582" y="321" type="line" smooth="yes"/>
      <point x="582" y="425"/>
      <point x="513" y="488"/>
      <point x="425" y="488" type="curve" smooth="yes"/>
      <point x="362" y="488"/>
      <point x="288" y="457"/>
      <point x="224" y="394" type="curve"/>
      <point x="262" y="386" type="line"/>
      <point x="262" y="785" type="line"/>
      <point x="7" y="775" type="line"/>
      <point x="7" y="675" type="line"/>
      <point x="84" y="645" type="line"/>
      <point x="62" y="675" type="line"/>
      <point x="62" y="103" type="line"/>
      <point x="84" y="130" type="line"/>
      <point x="7" y="100" type="line"/>
    </contour>
    <contour>
      <point x="7" y="527" type="line"/>
      <point x="407" y="527" type="line"/>
      <point x="407" y="632" type="line"/>
      <point x="7" y="632" type="line"/>
    </contour>
  </outline>
</glyph>
<glyph name="fita-cy" format="2">
  <advance width="578"/>
  <unicode hex="0473"/>
  <anchor x="289" y="540" name="top"/>
  <outline>
    <contour>
      <point x="97" y="220" type="line"/>
      <point x="470" y="220" type="line"/>
      <point x="470" y="330" type="line"/>
      <point x="97" y="330" type="line"/>
    </contour>
    <contour>
      <point x="297" y="555" type="curve" smooth="yes"/>
      <point x="117" y="555"/>
      <point x="14" y="446"/>
      <point x="14" y="261" type="curve" smooth="yes"/>
      <point x="14" y="85"/>
      <point x="107" y="-15"/>
      <point x="278" y="-15" type="curve" smooth="yes"/>
      <point x="456" y="-15"/>
      <point x="564" y="93"/>
      <point x="564" y="280" type="curve" smooth="yes"/>
      <point x="564" y="457"/>
      <point x="467" y="555"/>
    </contour>
    <contour>
      <point x="288" y="415" type="curve" smooth="yes"/>
      <point x="339" y="415"/>
      <point x="356" y="379"/>
      <point x="356" y="272" type="curve" smooth="yes"/>
      <point x="356" y="165"/>
      <point x="339" y="125"/>
      <point x="288" y="125" type="curve" smooth="yes"/>
      <point x="239" y="125"/>
      <point x="222" y="162"/>
      <point x="222" y="270" type="curve" smooth="yes"/>
      <point x="222" y="378"/>
      <point x="239" y="415"/>
    </contour>
  </outline>
</glyph>
<glyph name="izhitsa-cy" format="2">
  <advance width="667"/>
  <unicode hex="0475"/>
  <anchor x="321" y="540" name="top"/>
  <outline>
    <contour>
      <point x="674" y="536" type="line"/>
      <point x="633" y="548"/>
      <point x="596" y="554"/>
      <point x="564" y="554" type="curve" smooth="yes"/>
      <point x="447" y="554"/>
      <point x="383" y="475"/>
      <point x="345" y="312" type="curve" smooth="yes"/>
      <point x="301" y="124" type="line"/>
      <point x="316" y="124" type="line"/>
      <point x="242" y="442" type="line"/>
      <point x="229" y="419" type="line"/>
      <point x="283" y="445" type="line"/>
      <point x="283" y="545" type="line"/>
      <point x="-4" y="535" type="line"/>
      <point x="-4" y="435" type="line"/>
      <point x="61" y="415" type="line"/>
      <point x="36" y="435" type="line"/>
      <point x="178" y="-2" type="line"/>
      <point x="415" y="-2" type="line"/>
      <point x="510" y="298" type="line" smooth="yes"/>
      <point x="533" y="370"/>
      <point x="565" y="385"/>
      <point x="609" y="385" type="curve" smooth="yes"/>
      <point x="619" y="385"/>
      <point x="629" y="384"/>
      <point x="640" y="383" type="curve"/>
    </contour>
  </outline>
</glyph>
<glyph name="Ertick-cy" format="2">
  <advance width="625"/>
  <unicode hex="048E"/>
  <outline>
    <contour>
      <point x="484" y="190" type="line"/>
      <point x="554" y="245" type="line"/>
      <point x="371" y="472" type="line"/>
      <point x="302" y="415" type="line"/>
    </contour>
    <contour>
      <point x="315" y="231" type="line" smooth="yes"/>
      <point x="527" y="231"/>
      <point x="614" y="346"/>
      <point x="614" y="479" type="curve" smooth="yes"/>
      <point x="614" y="606"/>
      <point x="536" y="710"/>
      <point x="359" y="710" type="curve" smooth="yes"/>
      <point x="271" y="710" type="line"/>
      <point x="24" y="705" type="line"/>
      <point x="24" y="605" type="line"/>
      <point x="119" y="570" type="line"/>
      <point x="84" y="612" type="line"/>
      <point x="84" y="95" type="line"/>
      <point x="114" y="135" type="line"/>
      <point x="24" y="100" type="line"/>
      <point x="24" y="0" type="line"/>
      <point x="369" y="0" type="line"/>
      <point x="369" y="100" type="line"/>
      <point x="262" y="132" type="line"/>
      <point x="289" y="95" type="line"/>
      <point x="289" y="261" type="line"/>
      <point x="249" y="231" type="line"/>
    </contour>
    <contour>
      <point x="337" y="566" type="line" smooth="yes"/>
      <point x="398" y="566"/>
      <point x="427" y="527"/>
      <point x="427" y="466" type="curve" smooth="yes"/>
      <point x="427" y="394"/>
      <point x="392" y="356"/>
      <point x="320" y="356" type="curve" smooth="yes"/>
      <point x="249" y="356" type="line"/>
      <point x="289" y="326" type="line"/>
      <point x="289" y="596" type="line"/>
      <point x="259" y="566" type="line"/>
    </contour>
  </outline>
</glyph>
<glyph name="ertick-cy" format="2">
  <advance width="617"/>
  <unicode hex="048F"/>
  <outline>
    <contour>
      <point x="14" y="-230" type="line"/>
      <point x="334" y="-230" type="line"/>
      <point x="334" y="-130" type="line"/>
      <point x="251" y="-99" type="line"/>
      <point x="269" y="-126" type="line"/>
      <point x="269" y="15" type="line"/>
      <point x="246" y="-6" type="line"/>
      <point x="276" y="-12"/>
      <point x="305" y="-15"/>
      <point x="333" y="-15" type="curve" smooth="yes"/>
      <point x="494" y="-15"/>
      <point x="606" y="84"/>
      <point x="606" y="288" type="curve" smooth="yes"/>
      <point x="606" y="461"/>
      <point x="526" y="555"/>
      <point x="409" y="555" type="curve" smooth="yes"/>
      <point x="342" y="555"/>
      <point x="287" y="525"/>
      <point x="225" y="470" type="curve"/>
      <point x="246" y="458" type="line"/>
      <point x="225" y="546" type="line"/>
      <point x="14" y="536" type="line"/>
      <point x="14" y="436" type="line"/>
      <point x="90" y="406" type="line"/>
      <point x="69" y="430" type="line"/>
      <point x="69" y="-126" type="line"/>
      <point x="93" y="-95" type="line"/>
      <point x="14" y="-130" type="line"/>
    </contour>
    <contour>
      <point x="448" y="-74" type="line"/>
      <point x="519" y="-27" type="line"/>
      <point x="357" y="226" type="line"/>
      <point x="287" y="177" type="line"/>
    </contour>
    <contour>
      <point x="298" y="116" type="curve" smooth="yes"/>
      <point x="283" y="116"/>
      <point x="265" y="118"/>
      <point x="246" y="123" type="curve"/>
      <point x="269" y="87" type="line"/>
      <point x="269" y="419" type="line"/>
      <point x="246" y="370" type="line"/>
      <point x="278" y="396"/>
      <point x="304" y="410"/>
      <point x="328" y="410" type="curve" smooth="yes"/>
      <point x="382" y="410"/>
      <point x="403" y="352"/>
      <point x="403" y="267" type="curve" smooth="yes"/>
      <point x="403" y="169"/>
      <point x="376" y="116"/>
    </contour>
  </outline>
</glyph>
<glyph name="Ghemiddlehook-cy" format="2">
  <advance width="665"/>
  <unicode hex="0494"/>
  <guideline x="298" y="-139" angle="0"/>
  <outline>
    <contour>
      <point x="394" y="-103" type="curve" smooth="yes"/>
      <point x="570" y="-103"/>
      <point x="643" y="33"/>
      <point x="643" y="204" type="curve" smooth="yes"/>
      <point x="643" y="385"/>
      <point x="561" y="447"/>
      <point x="426" y="447" type="curve" smooth="yes"/>
      <point x="372" y="447"/>
      <point x="312" y="437"/>
      <point x="258" y="412" type="curve"/>
      <point x="289" y="392" type="line"/>
      <point x="289" y="595" type="line"/>
      <point x="259" y="565" type="line"/>
      <point x="472" y="565" type="line"/>
      <point x="440" y="584" type="line"/>
      <point x="460" y="477" type="line"/>
      <point x="580" y="477" type="line"/>
      <point x="579" y="710" type="line"/>
      <point x="284" y="710" type="line"/>
      <point x="24" y="705" type="line"/>
      <point x="24" y="605" type="line"/>
      <point x="111" y="571" type="line"/>
      <point x="84" y="595" type="line"/>
      <point x="84" y="85" type="line"/>
      <point x="119" y="135" type="line"/>
      <point x="24" y="100" type="line"/>
      <point x="24" y="0" type="line"/>
      <point x="289" y="0" type="line"/>
      <point x="289" y="313" type="line"/>
      <point x="258" y="277" type="line"/>
      <point x="300" y="291"/>
      <point x="339" y="299"/>
      <point x="367" y="299" type="curve" smooth="yes"/>
      <point x="422" y="299"/>
      <point x="435" y="266"/>
      <point x="435" y="192" type="curve" smooth="yes"/>
      <point x="435" y="60"/>
      <point x="393" y="40"/>
      <point x="345" y="40" type="curve" smooth="yes"/>
      <point x="331" y="40" type="line"/>
      <point x="315" y="-96" type="line"/>
      <point x="344" y="-101"/>
      <point x="373" y="-103"/>
    </contour>
  </outline>
</glyph>
<glyph name="pemiddlehook-cy" format="2">
  <advance width="922"/>
  <unicode hex="04A7"/>
  <guideline x="632" y="176" angle="0" identifier="rq48x4zjpe"/>
  <guideline x="632" y="490" angle="0" identifier="y1JzzV4bFV"/>
  <guideline x="632" y="330" angle="0" identifier="6a1yn6viT7"/>
  <outline>
    <contour>
      <point x="586" y="213" type="line"/>
      <point x="574" y="185" type="line"/>
      <point x="604" y="211"/>
      <point x="635" y="224"/>
      <point x="659" y="224" type="curve" smooth="yes"/>
      <point x="687" y="224"/>
      <point x="706" y="206"/>
      <point x="706" y="169" type="curve" smooth="yes"/>
      <point x="706" y="3" type="line" smooth="yes"/>
      <point x="706" y="-62"/>
      <point x="686" y="-96"/>
      <point x="632" y="-105" type="curve"/>
      <point x="645" y="-245" type="line"/>
      <point x="786" y="-245"/>
      <point x="906" y="-169"/>
      <point x="906" y="56" type="curve" smooth="yes"/>
      <point x="906" y="207" type="line" smooth="yes"/>
      <point x="906" y="311"/>
      <point x="837" y="374"/>
      <point x="749" y="374" type="curve" smooth="yes"/>
      <point x="686" y="374"/>
      <point x="612" y="343"/>
      <point x="548" y="280" type="curve"/>
      <point x="586" y="272" type="line"/>
      <point x="586" y="470" type="line"/>
      <point x="549" y="398" type="line"/>
      <point x="641" y="440" type="line"/>
      <point x="641" y="540" type="line"/>
      <point x="276" y="540" type="line"/>
      <point x="21" y="536" type="line"/>
      <point x="21" y="436" type="line"/>
      <point x="127" y="392" type="line"/>
      <point x="76" y="465" type="line"/>
      <point x="76" y="75" type="line"/>
      <point x="113" y="137" type="line"/>
      <point x="21" y="100" type="line"/>
      <point x="21" y="0" type="line"/>
      <point x="316" y="0" type="line"/>
      <point x="316" y="100" type="line"/>
      <point x="245" y="131" type="line"/>
      <point x="276" y="75" type="line"/>
      <point x="276" y="445" type="line"/>
      <point x="226" y="395" type="line"/>
      <point x="436" y="395" type="line"/>
      <point x="386" y="445" type="line"/>
      <point x="386" y="75" type="line"/>
      <point x="417" y="131" type="line"/>
      <point x="346" y="100" type="line"/>
      <point x="346" y="0" type="line"/>
      <point x="641" y="0" type="line"/>
      <point x="641" y="100" type="line"/>
      <point x="549" y="137" type="line"/>
      <point x="586" y="75" type="line"/>
    </contour>
  </outline>
</glyph>
<glyph name="ustrait-cy" format="2">
  <advance width="596"/>
  <unicode hex="04AF"/>
  <outline>
    <contour>
      <point x="386" y="-20" type="line"/>
      <point x="563" y="442" type="line"/>
      <point x="539" y="415" type="line"/>
      <point x="599" y="445" type="line"/>
      <point x="599" y="545" type="line"/>
      <point x="335" y="535" type="line"/>
      <point x="335" y="435" type="line"/>
      <point x="385" y="417" type="line"/>
      <point x="376" y="431" type="line"/>
      <point x="291" y="104" type="line"/>
      <point x="326" y="104" type="line"/>
      <point x="242" y="442" type="line"/>
      <point x="229" y="419" type="line"/>
      <point x="283" y="445" type="line"/>
      <point x="283" y="545" type="line"/>
      <point x="-4" y="535" type="line"/>
      <point x="-4" y="435" type="line"/>
      <point x="61" y="415" type="line"/>
      <point x="36" y="435" type="line"/>
      <point x="201" y="-20" type="line"/>
      <point x="194" y="24" type="line"/>
      <point x="194" y="-155" type="line"/>
      <point x="225" y="-99" type="line"/>
      <point x="134" y="-130" type="line"/>
      <point x="134" y="-230" type="line"/>
      <point x="454" y="-230" type="line"/>
      <point x="454" y="-130" type="line"/>
      <point x="357" y="-93" type="line"/>
      <point x="394" y="-155" type="line"/>
      <point x="394" y="24" type="line"/>
    </contour>
  </outline>
</glyph>
<glyph name="ustraitstroke-cy" format="2">
  <advance width="596"/>
  <unicode hex="04B1"/>
  <outline>
    <contour>
      <point x="58" y="0" type="line"/>
      <point x="531" y="0" type="line"/>
      <point x="531" y="100" type="line"/>
      <point x="58" y="100" type="line"/>
    </contour>
    <contour>
      <point x="386" y="-20" type="line"/>
      <point x="563" y="442" type="line"/>
      <point x="539" y="415" type="line"/>
      <point x="599" y="445" type="line"/>
      <point x="599" y="545" type="line"/>
      <point x="335" y="535" type="line"/>
      <point x="335" y="435" type="line"/>
      <point x="385" y="417" type="line"/>
      <point x="376" y="431" type="line"/>
      <point x="291" y="104" type="line"/>
      <point x="326" y="104" type="line"/>
      <point x="242" y="442" type="line"/>
      <point x="229" y="419" type="line"/>
      <point x="283" y="445" type="line"/>
      <point x="283" y="545" type="line"/>
      <point x="-4" y="535" type="line"/>
      <point x="-4" y="435" type="line"/>
      <point x="61" y="415" type="line"/>
      <point x="36" y="435" type="line"/>
      <point x="201" y="-20" type="line"/>
      <point x="194" y="24" type="line"/>
      <point x="194" y="-155" type="line"/>
      <point x="225" y="-99" type="line"/>
      <point x="134" y="-130" type="line"/>
      <point x="134" y="-230" type="line"/>
      <point x="454" y="-230" type="line"/>
      <point x="454" y="-130" type="line"/>
      <point x="357" y="-93" type="line"/>
      <point x="394" y="-155" type="line"/>
      <point x="394" y="24" type="line"/>
    </contour>
  </outline>
</glyph>
<glyph name="Tetse-cy" format="2">
  <advance width="955"/>
  <unicode hex="04B4"/>
  <outline>
    <contour>
      <point x="424" y="596" type="line"/>
      <point x="384" y="565" type="line"/>
      <point x="485" y="565" type="line"/>
      <point x="443" y="595" type="line"/>
      <point x="473" y="474" type="line"/>
      <point x="593" y="474" type="line"/>
      <point x="593" y="710" type="line"/>
      <point x="14" y="710" type="line"/>
      <point x="14" y="474" type="line"/>
      <point x="134" y="474" type="line"/>
      <point x="166" y="603" type="line"/>
      <point x="122" y="565" type="line"/>
      <point x="259" y="565" type="line"/>
      <point x="219" y="595" type="line"/>
      <point x="219" y="95" type="line"/>
      <point x="244" y="134" type="line"/>
      <point x="159" y="100" type="line"/>
      <point x="159" y="0" type="line"/>
      <point x="787" y="0" type="line"/>
      <point x="766" y="18" type="line"/>
      <point x="827" y="-205" type="line"/>
      <point x="947" y="-205" type="line"/>
      <point x="945" y="135" type="line"/>
      <point x="819" y="144" type="line"/>
      <point x="845" y="95" type="line"/>
      <point x="845" y="611" type="line"/>
      <point x="819" y="570" type="line"/>
      <point x="905" y="610" type="line"/>
      <point x="905" y="710" type="line"/>
      <point x="590" y="705" type="line"/>
      <point x="590" y="605" type="line"/>
      <point x="670" y="569" type="line"/>
      <point x="640" y="610" type="line"/>
      <point x="640" y="95" type="line"/>
      <point x="677" y="145" type="line"/>
      <point x="400" y="145" type="line"/>
      <point x="424" y="95" type="line"/>
    </contour>
  </outline>
</glyph>
<glyph name="tetse-cy" format="2">
  <advance width="799"/>
  <unicode hex="04B5"/>
  <outline>
    <contour>
      <point x="669" y="-185" type="line"/>
      <point x="789" y="-185" type="line"/>
      <point x="794" y="105" type="line"/>
      <point x="662" y="137" type="line"/>
      <point x="699" y="75" type="line"/>
      <point x="699" y="461" type="line"/>
      <point x="662" y="403" type="line"/>
      <point x="754" y="444" type="line"/>
      <point x="754" y="544" type="line"/>
      <point x="499" y="540" type="line"/>
      <point x="499" y="85" type="line"/>
      <point x="549" y="145" type="line"/>
      <point x="316" y="145" type="line"/>
      <point x="366" y="85" type="line"/>
      <point x="366" y="424" type="line"/>
      <point x="325" y="395" type="line"/>
      <point x="410" y="395" type="line"/>
      <point x="357" y="424" type="line"/>
      <point x="383" y="315" type="line"/>
      <point x="503" y="315" type="line"/>
      <point x="503" y="540" type="line"/>
      <point x="9" y="540" type="line"/>
      <point x="9" y="315" type="line"/>
      <point x="129" y="315" type="line"/>
      <point x="157" y="432" type="line"/>
      <point x="119" y="395" type="line"/>
      <point x="208" y="395" type="line"/>
      <point x="166" y="424" type="line"/>
      <point x="166" y="75" type="line"/>
      <point x="203" y="137" type="line"/>
      <point x="111" y="100" type="line"/>
      <point x="111" y="0" type="line"/>
      <point x="675" y="0" type="line"/>
      <point x="631" y="23" type="line"/>
    </contour>
  </outline>
</glyph>
<glyph name="Cheverticalstroke-cy" format="2">
  <advance width="738"/>
  <unicode hex="04B8"/>
  <outline>
    <contour>
      <point x="462" y="278" type="curve"/>
      <point x="449" y="308" type="line"/>
      <point x="449" y="95" type="line"/>
      <point x="473" y="134" type="line"/>
      <point x="379" y="100" type="line"/>
      <point x="379" y="0" type="line"/>
      <point x="714" y="0" type="line"/>
      <point x="714" y="100" type="line"/>
      <point x="628" y="134" type="line"/>
      <point x="654" y="95" type="line"/>
      <point x="654" y="611" type="line"/>
      <point x="628" y="570" type="line"/>
      <point x="714" y="610" type="line"/>
      <point x="714" y="710" type="line"/>
      <point x="394" y="705" type="line"/>
      <point x="394" y="605" type="line"/>
      <point x="479" y="569" type="line"/>
      <point x="449" y="610" type="line"/>
      <point x="449" y="399" type="line"/>
      <point x="462" y="415" type="line"/>
      <point x="419" y="403"/>
      <point x="383" y="396"/>
      <point x="354" y="396" type="curve" smooth="yes"/>
      <point x="298" y="396"/>
      <point x="269" y="422"/>
      <point x="269" y="494" type="curve" smooth="yes"/>
      <point x="269" y="611" type="line"/>
      <point x="243" y="569" type="line"/>
      <point x="324" y="610" type="line"/>
      <point x="324" y="710" type="line"/>
      <point x="4" y="705" type="line"/>
      <point x="4" y="605" type="line"/>
      <point x="99" y="569" type="line"/>
      <point x="64" y="610" type="line"/>
      <point x="64" y="463" type="line" smooth="yes"/>
      <point x="64" y="318"/>
      <point x="159" y="248"/>
      <point x="293" y="248" type="curve" smooth="yes"/>
      <point x="345" y="248"/>
      <point x="402" y="258"/>
    </contour>
    <contour>
      <point x="317" y="166" type="line"/>
      <point x="407" y="166" type="line"/>
      <point x="407" y="523" type="line"/>
      <point x="317" y="523" type="line"/>
    </contour>
  </outline>
</glyph>
<glyph name="chedescenderabkhasian-cy" format="2">
  <advance width="718"/>
  <unicode hex="04BF"/>
  <outline>
    <contour>
      <point x="532" y="23" type="line"/>
      <point x="374" y="23" type="line"/>
      <point x="393" y="-185" type="line"/>
      <point x="513" y="-185" type="line"/>
    </contour>
    <contour>
      <point x="441" y="-15" type="curve" smooth="yes"/>
      <point x="525" y="-15"/>
      <point x="612" y="12"/>
      <point x="693" y="68" type="curve"/>
      <point x="628" y="171" type="line"/>
      <point x="576" y="144"/>
      <point x="527" y="130"/>
      <point x="489" y="130" type="curve" smooth="yes"/>
      <point x="400" y="130"/>
      <point x="387" y="205"/>
      <point x="387" y="290" type="curve" smooth="yes"/>
      <point x="387" y="352"/>
      <point x="394" y="415"/>
      <point x="447" y="415" type="curve" smooth="yes"/>
      <point x="484" y="415"/>
      <point x="496" y="386"/>
      <point x="496" y="325" type="curve"/>
      <point x="205" y="325" type="line" smooth="yes"/>
      <point x="163" y="325"/>
      <point x="148" y="346"/>
      <point x="148" y="378" type="curve" smooth="yes"/>
      <point x="148" y="401"/>
      <point x="156" y="429"/>
      <point x="166" y="460" type="curve"/>
      <point x="47" y="489" type="line"/>
      <point x="14" y="442"/>
      <point x="-2" y="396"/>
      <point x="-2" y="357" type="curve" smooth="yes"/>
      <point x="-2" y="278"/>
      <point x="63" y="222"/>
      <point x="187" y="222" type="curve" smooth="yes"/>
      <point x="693" y="222" type="line"/>
      <point x="699" y="253"/>
      <point x="702" y="283"/>
      <point x="702" y="312" type="curve" smooth="yes"/>
      <point x="702" y="449"/>
      <point x="634" y="555"/>
      <point x="464" y="555" type="curve" smooth="yes"/>
      <point x="290" y="555"/>
      <point x="182" y="444"/>
      <point x="182" y="259" type="curve" smooth="yes"/>
      <point x="182" y="79"/>
      <point x="284" y="-15"/>
    </contour>
  </outline>
</glyph>
<glyph name="Chekhakassian-cy" format="2">
  <advance width="707"/>
  <unicode hex="04CB"/>
  <outline>
    <contour>
      <point x="528" y="153" type="line"/>
      <point x="528" y="0" type="line"/>
      <point x="460" y="0" type="line"/>
      <point x="485" y="18" type="line"/>
      <point x="426" y="-200" type="line"/>
      <point x="306" y="-200" type="line"/>
      <point x="308" y="100" type="line"/>
    </contour>
    <component base="Che-cy"/>
  </outline>
</glyph>
<glyph name="chekhakassian-cy" format="2">
  <advance width="638"/>
  <unicode hex="04CC"/>
  <outline>
    <contour>
      <point x="461" y="153" type="line"/>
      <point x="241" y="102" type="line"/>
      <point x="239" y="-185" type="line"/>
      <point x="364" y="-185" type="line"/>
      <point x="399" y="0" type="line"/>
      <point x="441" y="0" type="line"/>
    </contour>
    <component base="che-cy"/>
  </outline>
</glyph>
<glyph name="schwa-cy" format="2">
  <advance width="552"/>
  <unicode hex="04D9"/>
  <anchor x="280" y="540" name="top"/>
  <outline>
    <contour>
      <point x="279" y="555" type="curve" smooth="yes"/>
      <point x="195" y="555"/>
      <point x="108" y="528"/>
      <point x="27" y="472" type="curve"/>
      <point x="92" y="369" type="line"/>
      <point x="144" y="396"/>
      <point x="193" y="410"/>
      <point x="231" y="410" type="curve" smooth="yes"/>
      <point x="320" y="410"/>
      <point x="333" y="335"/>
      <point x="333" y="250" type="curve" smooth="yes"/>
      <point x="333" y="188"/>
      <point x="326" y="125"/>
      <point x="273" y="125" type="curve" smooth="yes"/>
      <point x="232" y="125"/>
      <point x="222" y="161"/>
      <point x="224" y="237" type="curve"/>
      <point x="193" y="215" type="line"/>
      <point x="373" y="215" type="line"/>
      <point x="373" y="318" type="line"/>
      <point x="27" y="318" type="line"/>
      <point x="21" y="287"/>
      <point x="18" y="257"/>
      <point x="18" y="228" type="curve" smooth="yes"/>
      <point x="18" y="91"/>
      <point x="86" y="-15"/>
      <point x="256" y="-15" type="curve" smooth="yes"/>
      <point x="430" y="-15"/>
      <point x="538" y="96"/>
      <point x="538" y="281" type="curve" smooth="yes"/>
      <point x="538" y="461"/>
      <point x="436" y="555"/>
    </contour>
  </outline>
</glyph>
<glyph name="Dzeabkhasian-cy" format="2">
  <advance width="591"/>
  <unicode hex="04E0"/>
  <guideline x="58" y="486" angle="0" identifier="PsZrKmCoF4"/>
  <guideline x="571" y="453" angle="90" identifier="NXAVmD2wgL"/>
  <outline>
    <contour>
      <point x="258" y="-14" type="curve" smooth="yes"/>
      <point x="478" y="-14"/>
      <point x="572" y="114"/>
      <point x="572" y="231" type="curve" smooth="yes"/>
      <point x="572" y="333"/>
      <point x="500" y="430"/>
      <point x="382" y="430" type="curve"/>
      <point x="405" y="382" type="line"/>
      <point x="538" y="568" type="line"/>
      <point x="538" y="710" type="line"/>
      <point x="44" y="710" type="line"/>
      <point x="47" y="484" type="line"/>
      <point x="166" y="484" type="line"/>
      <point x="191" y="574" type="line"/>
      <point x="158" y="550" type="line"/>
      <point x="366" y="550" type="line"/>
      <point x="357" y="581" type="line"/>
      <point x="249" y="416" type="line"/>
      <point x="272" y="435" type="line"/>
      <point x="157" y="415" type="line"/>
      <point x="157" y="297" type="line"/>
      <point x="241" y="297" type="line" smooth="yes"/>
      <point x="316" y="297"/>
      <point x="364" y="274"/>
      <point x="364" y="218" type="curve" smooth="yes"/>
      <point x="364" y="160"/>
      <point x="313" y="142"/>
      <point x="247" y="142" type="curve" smooth="yes"/>
      <point x="188" y="142"/>
      <point x="123" y="156"/>
      <point x="65" y="176" type="curve"/>
      <point x="14" y="33" type="line"/>
      <point x="95" y="2"/>
      <point x="180" y="-14"/>
    </contour>
  </outline>
</glyph>
<glyph name="gestrokehook-cy" format="2">
  <advance width="556"/>
  <unicode hex="04FB"/>
  <guideline x="36" y="351" angle="0"/>
  <guideline x="36" y="364" angle="90"/>
  <anchor x="300" y="540" name="top"/>
  <outline>
    <contour>
      <point x="271" y="0" type="line"/>
      <point x="178" y="9" type="line"/>
      <point x="178" y="-23" type="line" smooth="yes"/>
      <point x="178" y="-80"/>
      <point x="140" y="-100"/>
      <point x="90" y="-100" type="curve" smooth="yes"/>
      <point x="79" y="-100"/>
      <point x="66" y="-99"/>
      <point x="51" y="-97" type="curve"/>
      <point x="36" y="-236" type="line"/>
      <point x="64" y="-242"/>
      <point x="91" y="-245"/>
      <point x="117" y="-245" type="curve" smooth="yes"/>
      <point x="256" y="-245"/>
      <point x="361" y="-159"/>
      <point x="361" y="3" type="curve" smooth="yes"/>
      <point x="361" y="100" type="line"/>
      <point x="270" y="128" type="line"/>
      <point x="291" y="100" type="line"/>
      <point x="291" y="413" type="line"/>
      <point x="282" y="395" type="line"/>
      <point x="420" y="395" type="line"/>
      <point x="395" y="418" type="line"/>
      <point x="414" y="291" type="line"/>
      <point x="534" y="291" type="line"/>
      <point x="541" y="540" type="line"/>
      <point x="247" y="540" type="line"/>
      <point x="36" y="536" type="line"/>
      <point x="36" y="436" type="line"/>
      <point x="111" y="406" type="line"/>
      <point x="91" y="437" type="line"/>
      <point x="91" y="100" type="line"/>
      <point x="108" y="128" type="line"/>
      <point x="36" y="100" type="line"/>
      <point x="36" y="0" type="line"/>
    </contour>
    <contour>
      <point x="36" y="188" type="line"/>
      <point x="388" y="188" type="line"/>
      <point x="388" y="298" type="line"/>
      <point x="36" y="298" type="line"/>
    </contour>
  </outline>
</glyph>
<glyph name="Hahook-cy" format="2">
  <advance width="722"/>
  <unicode hex="04FC"/>
  <guideline x="767" y="-256" angle="0" identifier="1agROeP3JU"/>
  <guideline x="708" y="330" angle="90" identifier="xL53n1eyMj"/>
  <guideline x="659" y="330" angle="90" identifier="eTW38vGUTL"/>
  <outline>
    <contour>
      <point x="536" y="-245" type="line"/>
      <point x="651" y="-172"/>
      <point x="709" y="-91"/>
      <point x="709" y="-9" type="curve" smooth="yes"/>
      <point x="709" y="73"/>
      <point x="651" y="151"/>
      <point x="626" y="184" type="curve" smooth="yes"/>
      <point x="473" y="387" type="line"/>
      <point x="462" y="339" type="line"/>
      <point x="679" y="611" type="line"/>
      <point x="631" y="568" type="line"/>
      <point x="706" y="610" type="line"/>
      <point x="706" y="710" type="line"/>
      <point x="436" y="705" type="line"/>
      <point x="436" y="605" type="line"/>
      <point x="501" y="576" type="line"/>
      <point x="491" y="604" type="line"/>
      <point x="374" y="449" type="line"/>
      <point x="414" y="448" type="line"/>
      <point x="289" y="604" type="line"/>
      <point x="283" y="581" type="line"/>
      <point x="344" y="610" type="line"/>
      <point x="344" y="710" type="line"/>
      <point x="21" y="705" type="line"/>
      <point x="21" y="605" type="line"/>
      <point x="89" y="581" type="line"/>
      <point x="44" y="610" type="line"/>
      <point x="258" y="334" type="line"/>
      <point x="263" y="373" type="line"/>
      <point x="34" y="89" type="line"/>
      <point x="86" y="134" type="line"/>
      <point x="14" y="100" type="line"/>
      <point x="14" y="0" type="line"/>
      <point x="287" y="0" type="line"/>
      <point x="287" y="100" type="line"/>
      <point x="212" y="135" type="line"/>
      <point x="221" y="92" type="line"/>
      <point x="364" y="275" type="line"/>
      <point x="317" y="274" type="line"/>
      <point x="473" y="78" type="line" smooth="yes"/>
      <point x="484" y="64"/>
      <point x="518" y="22"/>
      <point x="518" y="-22" type="curve" smooth="yes"/>
      <point x="518" y="-59"/>
      <point x="495" y="-94"/>
      <point x="450" y="-132" type="curve"/>
    </contour>
  </outline>
</glyph>
<glyph name="reversedze-cy" format="2">
  <advance width="493"/>
  <unicode hex="0511"/>
  <outline>
    <contour>
      <point x="487" y="39" type="curve"/>
      <point x="442" y="145" type="line"/>
      <point x="402" y="131"/>
      <point x="343" y="115"/>
      <point x="296" y="115" type="curve" smooth="yes"/>
      <point x="254" y="115"/>
      <point x="221" y="128"/>
      <point x="221" y="168" type="curve" smooth="yes"/>
      <point x="221" y="197"/>
      <point x="243" y="218"/>
      <point x="285" y="218" type="curve" smooth="yes"/>
      <point x="358" y="218" type="line"/>
      <point x="358" y="332" type="line"/>
      <point x="294" y="332" type="line" smooth="yes"/>
      <point x="271" y="332"/>
      <point x="224" y="332"/>
      <point x="224" y="382" type="curve" smooth="yes"/>
      <point x="224" y="416"/>
      <point x="245" y="429"/>
      <point x="276" y="429" type="curve" smooth="yes"/>
      <point x="299" y="429"/>
      <point x="328" y="422"/>
      <point x="359" y="414" type="curve"/>
      <point x="324" y="450" type="line"/>
      <point x="340" y="376" type="line"/>
      <point x="460" y="376" type="line"/>
      <point x="466" y="527" type="line"/>
      <point x="396" y="544"/>
      <point x="320" y="555"/>
      <point x="258" y="555" type="curve" smooth="yes"/>
      <point x="126" y="555"/>
      <point x="24" y="504"/>
      <point x="24" y="400" type="curve" smooth="yes"/>
      <point x="24" y="319"/>
      <point x="86" y="270"/>
      <point x="193" y="261" type="curve"/>
      <point x="200" y="274" type="line"/>
      <point x="77" y="273"/>
      <point x="13" y="215"/>
      <point x="13" y="137" type="curve" smooth="yes"/>
      <point x="13" y="34"/>
      <point x="127" y="-15"/>
      <point x="256" y="-15" type="curve" smooth="yes"/>
      <point x="334" y="-15"/>
      <point x="419" y="3"/>
    </contour>
  </outline>
</glyph>
<glyph name="EnLeftHook-cy" format="2">
  <advance width="768"/>
  <unicode hex="0528"/>
  <guideline x="119" y="-245" angle="0" identifier="UkvRf7iPxv"/>
  <guideline x="596" y="293" angle="0" identifier="e6thgk5tZp"/>
  <outline>
    <contour>
      <point x="278" y="99" type="curve" smooth="yes"/>
      <point x="278" y="320" type="line"/>
      <point x="248" y="290" type="line"/>
      <point x="509" y="290" type="line"/>
      <point x="479" y="320" type="line"/>
      <point x="479" y="95" type="line"/>
      <point x="503" y="134" type="line"/>
      <point x="419" y="100" type="line"/>
      <point x="419" y="-3" type="line"/>
      <point x="744" y="-3" type="line"/>
      <point x="744" y="100" type="line"/>
      <point x="658" y="134" type="line"/>
      <point x="684" y="95" type="line"/>
      <point x="684" y="611" type="line"/>
      <point x="658" y="570" type="line"/>
      <point x="744" y="610" type="line"/>
      <point x="744" y="710" type="line"/>
      <point x="419" y="705" type="line"/>
      <point x="419" y="605" type="line"/>
      <point x="509" y="569" type="line"/>
      <point x="479" y="610" type="line"/>
      <point x="479" y="405" type="line"/>
      <point x="509" y="435" type="line"/>
      <point x="248" y="435" type="line"/>
      <point x="278" y="405" type="line"/>
      <point x="278" y="611" type="line"/>
      <point x="249" y="569" type="line"/>
      <point x="338" y="610" type="line"/>
      <point x="338" y="710" type="line"/>
      <point x="13" y="705" type="line"/>
      <point x="13" y="605" type="line"/>
      <point x="105" y="569" type="line"/>
      <point x="73" y="610" type="line"/>
      <point x="73" y="55" type="line" smooth="yes"/>
      <point x="73" y="-46"/>
      <point x="53" y="-96"/>
      <point x="-18" y="-96" type="curve" smooth="yes"/>
      <point x="-28" y="-96"/>
      <point x="-37" y="-95"/>
      <point x="-50" y="-93" type="curve"/>
      <point x="-67" y="-236" type="line"/>
      <point x="-32" y="-242"/>
      <point x="-3" y="-245"/>
      <point x="27" y="-245" type="curve" smooth="yes"/>
      <point x="232" y="-245"/>
      <point x="278" y="-107"/>
    </contour>
  </outline>
</glyph>
<glyph name="llinebelow" format="2">
  <advance width="324"/>
  <unicode hex="1E3B"/>
  <outline>
    <contour>
      <point x="324" y="-79" type="line"/>
      <point x="1" y="-79" type="line"/>
      <point x="1" y="-214" type="line"/>
      <point x="324" y="-214" type="line"/>
    </contour>
    <component base="l"/>
  </outline>
</glyph>
<glyph name="rlinebelow" format="2">
  <advance width="498"/>
  <unicode hex="1E5F"/>
  <guideline x="21" y="100" angle="90" identifier="Zc4FumQQlR"/>
  <guideline x="346" y="100" angle="90" identifier="1nTID5gGfy"/>
  <outline>
    <contour>
      <point x="339" y="-79" type="line"/>
      <point x="13" y="-79" type="line"/>
      <point x="13" y="-214" type="line"/>
      <point x="339" y="-214" type="line"/>
    </contour>
    <component base="r"/>
  </outline>
</glyph>
<glyph name="tlinebelow" format="2">
  <advance width="429"/>
  <unicode hex="1E6F"/>
  <guideline x="401" y="388" angle="90" identifier="AzbXzwFdiC"/>
  <outline>
    <contour>
      <point x="363" y="-79" type="line"/>
      <point x="60" y="-79" type="line"/>
      <point x="60" y="-214" type="line"/>
      <point x="363" y="-214" type="line"/>
    </contour>
    <component base="t"/>
  </outline>
</glyph>
<glyph name="Germandbls" format="2">
  <advance width="734"/>
  <unicode hex="1E9E"/>
  <outline>
    <contour>
      <point x="469" y="-14" type="curve" smooth="yes"/>
      <point x="614" y="-14"/>
      <point x="724" y="64"/>
      <point x="724" y="208" type="curve" smooth="yes"/>
      <point x="724" y="364"/>
      <point x="595" y="400"/>
      <point x="486" y="420" type="curve"/>
      <point x="510" y="381" type="line"/>
      <point x="656" y="564" type="line"/>
      <point x="656" y="710" type="line"/>
      <point x="284" y="710" type="line"/>
      <point x="24" y="705" type="line"/>
      <point x="24" y="605" type="line"/>
      <point x="108" y="572" type="line"/>
      <point x="84" y="610" type="line"/>
      <point x="84" y="100" type="line"/>
      <point x="108" y="134" type="line"/>
      <point x="24" y="100" type="line"/>
      <point x="24" y="0" type="line"/>
      <point x="289" y="0" type="line"/>
      <point x="289" y="595" type="line"/>
      <point x="259" y="565" type="line"/>
      <point x="504" y="565" type="line"/>
      <point x="508" y="619" type="line"/>
      <point x="355" y="433" type="line"/>
      <point x="355" y="311" type="line"/>
      <point x="456" y="296"/>
      <point x="516" y="278"/>
      <point x="516" y="205" type="curve" smooth="yes"/>
      <point x="516" y="162"/>
      <point x="495" y="133"/>
      <point x="464" y="133" type="curve" smooth="yes"/>
      <point x="454" y="133"/>
      <point x="443" y="136"/>
      <point x="431" y="142" type="curve"/>
      <point x="463" y="113" type="line"/>
      <point x="438" y="194" type="line"/>
      <point x="330" y="194" type="line"/>
      <point x="322" y="8" type="line"/>
      <point x="374" y="-7"/>
      <point x="426" y="-14"/>
    </contour>
  </outline>
</glyph>
<glyph name="emdash" format="2">
  <advance width="844"/>
  <unicode hex="2014"/>
  <outline>
    <contour>
      <point x="797" y="363" type="line"/>
      <point x="47" y="363" type="line"/>
      <point x="47" y="213" type="line"/>
      <point x="797" y="213" type="line"/>
    </contour>
  </outline>
</glyph>
<glyph name="quoteleft" format="2">
  <advance width="247"/>
  <unicode hex="2018"/>
  <guideline x="50" y="414" angle="0" identifier="wHwCd3TuS8"/>
  <guideline x="50" y="790" angle="0" identifier="rDWdNt9lNP"/>
  <outline>
    <contour>
      <point x="201" y="517" type="curve" smooth="yes"/>
      <point x="201" y="571"/>
      <point x="166" y="594"/>
      <point x="166" y="625" type="curve" smooth="yes"/>
      <point x="166" y="643"/>
      <point x="179" y="676"/>
      <point x="225" y="754" type="curve"/>
      <point x="161" y="796" type="line"/>
      <point x="47" y="683"/>
      <point x="8" y="594"/>
      <point x="8" y="528" type="curve" smooth="yes"/>
      <point x="8" y="456"/>
      <point x="58" y="421"/>
      <point x="107" y="421" type="curve" smooth="yes"/>
      <point x="155" y="421"/>
      <point x="201" y="453"/>
    </contour>
  </outline>
</glyph>
<glyph name="quotedblleft" format="2">
  <advance width="473"/>
  <unicode hex="201C"/>
  <guideline x="2" y="422" angle="0" identifier="dOneo5I6dh"/>
  <outline>
    <contour>
      <point x="201" y="527" type="curve" smooth="yes"/>
      <point x="201" y="581"/>
      <point x="166" y="604"/>
      <point x="166" y="635" type="curve" smooth="yes"/>
      <point x="166" y="653"/>
      <point x="179" y="686"/>
      <point x="225" y="764" type="curve"/>
      <point x="161" y="806" type="line"/>
      <point x="47" y="693"/>
      <point x="8" y="604"/>
      <point x="8" y="538" type="curve" smooth="yes"/>
      <point x="8" y="466"/>
      <point x="58" y="431"/>
      <point x="107" y="431" type="curve" smooth="yes"/>
      <point x="155" y="431"/>
      <point x="201" y="463"/>
    </contour>
    <contour>
      <point x="427" y="527" type="curve" smooth="yes"/>
      <point x="427" y="581"/>
      <point x="392" y="604"/>
      <point x="392" y="635" type="curve" smooth="yes"/>
      <point x="392" y="653"/>
      <point x="405" y="686"/>
      <point x="451" y="764" type="curve"/>
      <point x="387" y="806" type="line"/>
      <point x="273" y="693"/>
      <point x="234" y="604"/>
      <point x="234" y="538" type="curve" smooth="yes"/>
      <point x="234" y="466"/>
      <point x="284" y="431"/>
      <point x="333" y="431" type="curve" smooth="yes"/>
      <point x="381" y="431"/>
      <point x="427" y="463"/>
    </contour>
  </outline>
</glyph>
<glyph name="guilsinglleft" format="2">
  <advance width="324"/>
  <unicode hex="2039"/>
  <guideline x="100" y="29" angle="0"/>
  <guideline x="100" y="509" angle="0"/>
  <outline>
    <contour>
      <point x="209" y="29" type="line"/>
      <point x="302" y="103" type="line"/>
      <point x="173" y="307" type="line"/>
      <point x="173" y="233" type="line"/>
      <point x="304" y="440" type="line"/>
      <point x="211" y="509" type="line"/>
      <point x="35" y="316" type="line"/>
      <point x="35" y="222" type="line"/>
    </contour>
  </outline>
</glyph>
<glyph name="guilsinglright" format="2">
  <advance width="324"/>
  <unicode hex="203A"/>
  <guideline x="85" y="29" angle="0"/>
  <guideline x="85" y="509" angle="0"/>
  <outline>
    <contour>
      <point x="115" y="509" type="line"/>
      <point x="22" y="435" type="line"/>
      <point x="151" y="231" type="line"/>
      <point x="151" y="305" type="line"/>
      <point x="20" y="98" type="line"/>
      <point x="113" y="29" type="line"/>
      <point x="289" y="222" type="line"/>
      <point x="289" y="316" type="line"/>
    </contour>
  </outline>
</glyph>
<glyph name="fraction" format="2">
  <advance width="235"/>
  <unicode hex="2044"/>
  <guideline x="855" y="-12" angle="0" identifier="Ju00jbYKt4"/>
  <guideline x="855" y="723" angle="0" identifier="Nqqh8WPHb0"/>
  <outline>
    <contour>
      <point x="-160" y="-12" type="line"/>
      <point x="-5" y="-12" type="line"/>
      <point x="395" y="723" type="line"/>
      <point x="240" y="723" type="line"/>
    </contour>
  </outline>
</glyph>
<glyph name="won" format="2">
  <advance width="1009"/>
  <unicode hex="20A9"/>
  <outline>
    <contour>
      <point x="208" y="0" type="line"/>
      <point x="399" y="0" type="line"/>
      <point x="482" y="303" type="line"/>
      <point x="330" y="301" type="line"/>
      <point x="300" y="182" type="line"/>
      <point x="340" y="182" type="line"/>
      <point x="314" y="302" type="line"/>
      <point x="127" y="288" type="line"/>
    </contour>
    <contour>
      <point x="93" y="410" type="line"/>
      <point x="290" y="411" type="line"/>
      <point x="246" y="611" type="line"/>
      <point x="226" y="575" type="line"/>
      <point x="300" y="610" type="line"/>
      <point x="300" y="710" type="line"/>
      <point x="2" y="705" type="line"/>
      <point x="2" y="605" type="line"/>
      <point x="61" y="580" type="line"/>
      <point x="37" y="611" type="line"/>
    </contour>
    <contour>
      <point x="15" y="229" type="line"/>
      <point x="988" y="229" type="line"/>
      <point x="988" y="319" type="line"/>
      <point x="15" y="319" type="line"/>
    </contour>
    <contour>
      <point x="906" y="397" type="line"/>
      <point x="972" y="629" type="line"/>
      <point x="927" y="577" type="line"/>
      <point x="1008" y="610" type="line"/>
      <point x="1008" y="710" type="line"/>
      <point x="740" y="705" type="line"/>
      <point x="740" y="605" type="line"/>
      <point x="809" y="575" type="line"/>
      <point x="795" y="611" type="line"/>
      <point x="752" y="409" type="line"/>
    </contour>
    <contour>
      <point x="15" y="359" type="line"/>
      <point x="988" y="359" type="line"/>
      <point x="988" y="449" type="line"/>
      <point x="15" y="449" type="line"/>
    </contour>
    <contour>
      <point x="685" y="408" type="line"/>
      <point x="604" y="710" type="line"/>
      <point x="430" y="705" type="line"/>
      <point x="358" y="414" type="line"/>
      <point x="498" y="362" type="line"/>
      <point x="523" y="455" type="line"/>
      <point x="478" y="456" type="line"/>
      <point x="503" y="363" type="line"/>
    </contour>
    <contour>
      <point x="601" y="0" type="line"/>
      <point x="794" y="0" type="line"/>
      <point x="879" y="302" type="line"/>
      <point x="730" y="310" type="line"/>
      <point x="703" y="183" type="line"/>
      <point x="745" y="184" type="line"/>
      <point x="711" y="310" type="line"/>
      <point x="520" y="300" type="line"/>
    </contour>
  </outline>
</glyph>
<glyph name="euro" format="2">
  <advance width="663"/>
  <unicode hex="20AC"/>
  <outline>
    <contour>
      <point x="301" y="422" type="line"/>
      <point x="304" y="509"/>
      <point x="320" y="570"/>
      <point x="395" y="570" type="curve" smooth="yes"/>
      <point x="426" y="570"/>
      <point x="459" y="563"/>
      <point x="500" y="549" type="curve"/>
      <point x="471" y="579" type="line"/>
      <point x="497" y="494" type="line"/>
      <point x="617" y="494" type="line"/>
      <point x="629" y="671" type="line"/>
      <point x="538" y="707"/>
      <point x="463" y="725"/>
      <point x="387" y="725" type="curve" smooth="yes"/>
      <point x="212" y="725"/>
      <point x="103" y="621"/>
      <point x="83" y="425" type="curve"/>
      <point x="122" y="463" type="line"/>
      <point x="20" y="463" type="line"/>
      <point x="20" y="373" type="line"/>
      <point x="478" y="373" type="line"/>
      <point x="478" y="463" type="line"/>
      <point x="270" y="463" type="line"/>
    </contour>
    <contour>
      <point x="84" y="286" type="line"/>
      <point x="105" y="86"/>
      <point x="216" y="-14"/>
      <point x="377" y="-14" type="curve" smooth="yes"/>
      <point x="457" y="-14"/>
      <point x="549" y="18"/>
      <point x="642" y="86" type="curve"/>
      <point x="565" y="202" type="line"/>
      <point x="500" y="165"/>
      <point x="449" y="147"/>
      <point x="412" y="147" type="curve" smooth="yes"/>
      <point x="338" y="147"/>
      <point x="310" y="193"/>
      <point x="302" y="296" type="curve"/>
      <point x="270" y="243" type="line"/>
      <point x="478" y="243" type="line"/>
      <point x="478" y="333" type="line"/>
      <point x="20" y="333" type="line"/>
      <point x="20" y="243" type="line"/>
      <point x="122" y="243" type="line"/>
    </contour>
  </outline>
</glyph>
<glyph name="kip" format="2">
  <advance width="784"/>
  <unicode hex="20AD"/>
  <guideline x="56" y="499" angle="90"/>
  <guideline x="724" y="265" angle="90"/>
  <outline>
    <contour>
      <point x="56" y="0" type="line"/>
      <point x="376" y="0" type="line"/>
      <point x="376" y="100" type="line"/>
      <point x="297" y="137" type="line"/>
      <point x="321" y="95" type="line"/>
      <point x="321" y="329" type="line"/>
      <point x="285" y="300" type="line"/>
      <point x="389" y="300" type="line"/>
      <point x="350" y="329" type="line"/>
      <point x="489" y="99" type="line"/>
      <point x="492" y="133" type="line"/>
      <point x="430" y="100" type="line"/>
      <point x="430" y="0" type="line"/>
      <point x="748" y="0" type="line"/>
      <point x="748" y="100" type="line"/>
      <point x="671" y="133" type="line"/>
      <point x="724" y="91" type="line"/>
      <point x="561" y="335" type="line"/>
      <point x="552" y="300" type="line"/>
      <point x="710" y="300" type="line"/>
      <point x="710" y="430" type="line"/>
      <point x="547" y="430" type="line"/>
      <point x="553" y="398" type="line"/>
      <point x="683" y="607" type="line"/>
      <point x="642" y="574" type="line"/>
      <point x="724" y="610" type="line"/>
      <point x="724" y="710" type="line"/>
      <point x="427" y="705" type="line"/>
      <point x="427" y="605" type="line"/>
      <point x="500" y="580" type="line"/>
      <point x="485" y="609" type="line"/>
      <point x="368" y="404" type="line"/>
      <point x="413" y="430" type="line"/>
      <point x="291" y="430" type="line"/>
      <point x="321" y="404" type="line"/>
      <point x="321" y="616" type="line"/>
      <point x="298" y="574" type="line"/>
      <point x="376" y="612" type="line"/>
      <point x="376" y="710" type="line"/>
      <point x="56" y="705" type="line"/>
      <point x="56" y="605" type="line"/>
      <point x="135" y="575" type="line"/>
      <point x="116" y="611" type="line"/>
      <point x="116" y="404" type="line"/>
      <point x="142" y="430" type="line"/>
      <point x="56" y="430" type="line"/>
      <point x="56" y="300" type="line"/>
      <point x="142" y="300" type="line"/>
      <point x="116" y="329" type="line"/>
      <point x="116" y="95" type="line"/>
      <point x="136" y="132" type="line"/>
      <point x="56" y="100" type="line"/>
    </contour>
  </outline>
</glyph>
<glyph name="tugrik" format="2">
  <advance width="651"/>
  <unicode hex="20AE"/>
  <guideline x="153" y="505" angle="90" identifier="VFAe3G9fwH"/>
  <guideline x="498" y="505" angle="90" identifier="TuZr5f657g"/>
  <outline>
    <contour>
      <point x="130" y="265" type="line"/>
      <point x="521" y="378" type="line"/>
      <point x="521" y="469" type="line"/>
      <point x="386" y="430" type="line"/>
      <point x="428" y="419" type="line"/>
      <point x="428" y="595" type="line"/>
      <point x="388" y="565" type="line"/>
      <point x="525" y="565" type="line"/>
      <point x="484" y="595" type="line"/>
      <point x="513" y="489" type="line"/>
      <point x="633" y="489" type="line"/>
      <point x="633" y="710" type="line"/>
      <point x="18" y="710" type="line"/>
      <point x="18" y="489" type="line"/>
      <point x="138" y="489" type="line"/>
      <point x="169" y="603" type="line"/>
      <point x="126" y="565" type="line"/>
      <point x="263" y="565" type="line"/>
      <point x="223" y="595" type="line"/>
      <point x="223" y="354" type="line"/>
      <point x="261" y="394" type="line"/>
      <point x="130" y="356" type="line"/>
    </contour>
    <contour>
      <point x="158" y="0" type="line"/>
      <point x="494" y="0" type="line"/>
      <point x="494" y="100" type="line"/>
      <point x="395" y="135" type="line"/>
      <point x="428" y="85" type="line"/>
      <point x="428" y="246" type="line"/>
      <point x="393" y="207" type="line"/>
      <point x="521" y="244" type="line"/>
      <point x="521" y="335" type="line"/>
      <point x="130" y="222" type="line"/>
      <point x="130" y="131" type="line"/>
      <point x="262" y="169" type="line"/>
      <point x="223" y="194" type="line"/>
      <point x="223" y="85" type="line"/>
      <point x="258" y="135" type="line"/>
      <point x="158" y="100" type="line"/>
    </contour>
  </outline>
</glyph>
<glyph name="liraTurkish" format="2">
  <advance width="662"/>
  <unicode hex="20BA"/>
  <guideline x="479" y="544" angle="90" identifier="JGuOSM3aRv"/>
  <guideline x="-3" y="514" angle="90" identifier="sIKk9IoZuq"/>
  <outline>
    <contour>
      <point x="51" y="0" type="line"/>
      <point x="306" y="0" type="line" smooth="yes"/>
      <point x="547" y="0"/>
      <point x="652" y="138"/>
      <point x="652" y="340" type="curve"/>
      <point x="452" y="340" type="line"/>
      <point x="452" y="179"/>
      <point x="396" y="155"/>
      <point x="316" y="155" type="curve" smooth="yes"/>
      <point x="286" y="155" type="line"/>
      <point x="316" y="125" type="line"/>
      <point x="316" y="406" type="line"/>
      <point x="276" y="356" type="line"/>
      <point x="479" y="434" type="line"/>
      <point x="479" y="524" type="line"/>
      <point x="51" y="360" type="line"/>
      <point x="51" y="269" type="line"/>
      <point x="140" y="303" type="line"/>
      <point x="111" y="332" type="line"/>
      <point x="111" y="95" type="line"/>
      <point x="137" y="134" type="line"/>
      <point x="51" y="100" type="line"/>
    </contour>
    <contour>
      <point x="51" y="403" type="line"/>
      <point x="479" y="567" type="line"/>
      <point x="479" y="658" type="line"/>
      <point x="275" y="580" type="line"/>
      <point x="316" y="569" type="line"/>
      <point x="316" y="710" type="line"/>
      <point x="111" y="710" type="line"/>
      <point x="111" y="480" type="line"/>
      <point x="142" y="529" type="line"/>
      <point x="51" y="494" type="line"/>
    </contour>
  </outline>
</glyph>
<glyph name="leftArrow" format="2">
  <advance width="772"/>
  <unicode hex="2190"/>
  <outline>
    <contour>
      <point x="211" y="254" type="line"/>
      <point x="742" y="254" type="line"/>
      <point x="742" y="409" type="line"/>
      <point x="210" y="409" type="line"/>
      <point x="211" y="361" type="line"/>
      <point x="412" y="587" type="line"/>
      <point x="315" y="679" type="line"/>
      <point x="20" y="370" type="line"/>
      <point x="20" y="293" type="line"/>
      <point x="315" y="-16" type="line"/>
      <point x="416" y="84" type="line"/>
      <point x="211" y="311" type="line"/>
    </contour>
  </outline>
</glyph>
<glyph name="downArrow" format="2">
  <advance width="695"/>
  <unicode hex="2193"/>
  <outline>
    <contour>
      <point x="435" y="187" type="line"/>
      <point x="435" y="710" type="line"/>
      <point x="260" y="710" type="line"/>
      <point x="260" y="188" type="line"/>
      <point x="324" y="188" type="line"/>
      <point x="97" y="393" type="line"/>
      <point x="0" y="295" type="line"/>
      <point x="309" y="0" type="line"/>
      <point x="386" y="0" type="line"/>
      <point x="695" y="295" type="line"/>
      <point x="606" y="389" type="line"/>
      <point x="380" y="188" type="line"/>
    </contour>
  </outline>
</glyph>
<glyph name="leftRightArrow" format="2">
  <advance width="1069"/>
  <unicode hex="2194"/>
  <outline>
    <contour>
      <point x="315" y="-16" type="line"/>
      <point x="416" y="84" type="line"/>
      <point x="211" y="311" type="line"/>
      <point x="211" y="254" type="line"/>
      <point x="859" y="254" type="line"/>
      <point x="858" y="302" type="line"/>
      <point x="657" y="76" type="line"/>
      <point x="754" y="-16" type="line"/>
      <point x="1049" y="293" type="line"/>
      <point x="1049" y="370" type="line"/>
      <point x="754" y="679" type="line"/>
      <point x="653" y="579" type="line"/>
      <point x="858" y="352" type="line"/>
      <point x="858" y="409" type="line"/>
      <point x="210" y="409" type="line"/>
      <point x="211" y="361" type="line"/>
      <point x="412" y="587" type="line"/>
      <point x="315" y="679" type="line"/>
      <point x="20" y="370" type="line"/>
      <point x="20" y="293" type="line"/>
    </contour>
  </outline>
</glyph>
<glyph name="upDownArrow" format="2">
  <advance width="695"/>
  <unicode hex="2195"/>
  <outline>
    <contour>
      <point x="260" y="673" type="line"/>
      <point x="260" y="38" type="line"/>
      <point x="324" y="38" type="line"/>
      <point x="97" y="243" type="line"/>
      <point x="0" y="145" type="line"/>
      <point x="309" y="-150" type="line"/>
      <point x="386" y="-150" type="line"/>
      <point x="695" y="145" type="line"/>
      <point x="606" y="239" type="line"/>
      <point x="380" y="38" type="line"/>
      <point x="435" y="37" type="line"/>
      <point x="435" y="672" type="line"/>
      <point x="371" y="672" type="line"/>
      <point x="598" y="467" type="line"/>
      <point x="695" y="565" type="line"/>
      <point x="386" y="860" type="line"/>
      <point x="309" y="860" type="line"/>
      <point x="0" y="565" type="line"/>
      <point x="89" y="471" type="line"/>
      <point x="315" y="672" type="line"/>
    </contour>
  </outline>
</glyph>
<glyph name="emptyset" format="2">
  <advance width="814"/>
  <unicode hex="2205"/>
  <guideline x="408" y="362" angle="90" identifier="nhMHW9Zi76"/>
  <guideline x="397" y="361" angle="0" identifier="1jbNY5QHOh"/>
  <outline>
    <contour>
      <point x="408" y="-15" type="curve" smooth="yes"/>
      <point x="622" y="-15"/>
      <point x="788" y="150"/>
      <point x="788" y="360" type="curve" smooth="yes"/>
      <point x="788" y="571"/>
      <point x="622" y="739"/>
      <point x="408" y="739" type="curve" smooth="yes"/>
      <point x="194" y="739"/>
      <point x="26" y="571"/>
      <point x="26" y="360" type="curve" smooth="yes"/>
      <point x="26" y="150"/>
      <point x="194" y="-15"/>
    </contour>
    <contour>
      <point x="408" y="120" type="curve" smooth="yes"/>
      <point x="279" y="120"/>
      <point x="181" y="225"/>
      <point x="181" y="361" type="curve" smooth="yes"/>
      <point x="181" y="497"/>
      <point x="279" y="604"/>
      <point x="408" y="604" type="curve" smooth="yes"/>
      <point x="537" y="604"/>
      <point x="633" y="497"/>
      <point x="633" y="361" type="curve" smooth="yes"/>
      <point x="633" y="225"/>
      <point x="537" y="120"/>
    </contour>
    <contour>
      <point x="43" y="-10" type="line"/>
      <point x="213" y="-10" type="line"/>
      <point x="773" y="734" type="line"/>
      <point x="603" y="734" type="line"/>
    </contour>
  </outline>
</glyph>
<glyph name="radical" format="2">
  <advance width="638"/>
  <unicode hex="221A"/>
  <outline>
    <contour>
      <point x="476" y="896" type="line"/>
      <point x="301" y="124" type="line"/>
      <point x="316" y="124" type="line"/>
      <point x="222" y="545" type="line"/>
      <point x="0" y="535" type="line"/>
      <point x="0" y="435" type="line"/>
      <point x="65" y="415" type="line"/>
      <point x="40" y="435" type="line"/>
      <point x="178" y="-2" type="line"/>
      <point x="429" y="-2" type="line"/>
      <point x="646" y="793" type="line"/>
      <point x="622" y="756" type="line"/>
      <point x="798" y="756" type="line"/>
      <point x="798" y="896" type="line"/>
    </contour>
  </outline>
</glyph>
<glyph name="orthogonal" format="2">
  <advance width="615"/>
  <unicode hex="221F"/>
  <outline>
    <contour>
      <point x="605" y="180" type="line"/>
      <point x="225" y="180" type="line"/>
      <point x="265" y="140" type="line"/>
      <point x="265" y="540" type="line"/>
      <point x="65" y="540" type="line"/>
      <point x="67" y="0" type="line"/>
      <point x="607" y="0" type="line"/>
    </contour>
  </outline>
</glyph>
<glyph name="greaterequal" format="2">
  <advance width="563"/>
  <unicode hex="2265"/>
  <guideline x="518" y="509" angle="0"/>
  <guideline x="524" y="365" angle="90"/>
  <outline>
    <contour>
      <point x="99" y="679" type="line"/>
      <point x="47" y="529" type="line"/>
      <point x="372" y="411" type="line"/>
      <point x="372" y="456" type="line"/>
      <point x="48" y="325" type="line"/>
      <point x="97" y="192" type="line"/>
      <point x="524" y="365" type="line"/>
      <point x="524" y="509" type="line"/>
    </contour>
    <contour>
      <point x="524" y="169" type="line"/>
      <point x="50" y="169" type="line"/>
      <point x="50" y="29" type="line"/>
      <point x="524" y="29" type="line"/>
    </contour>
  </outline>
</glyph>
<glyph name="logicalnotReversed" format="2">
  <advance width="572"/>
  <unicode hex="2310"/>
  <outline>
    <contour>
      <point x="205" y="114" type="line"/>
      <point x="45" y="114" type="line"/>
      <point x="45" y="421" type="line"/>
      <point x="539" y="421" type="line"/>
      <point x="539" y="281" type="line"/>
      <point x="186" y="281" type="line"/>
      <point x="205" y="301" type="line"/>
    </contour>
  </outline>
</glyph>
<glyph name="integralbt" format="2">
  <advance width="345"/>
  <unicode hex="2321"/>
  <outline>
    <contour>
      <point x="-140" y="-227" type="line"/>
      <point x="-81" y="-247"/>
      <point x="-27" y="-256"/>
      <point x="21" y="-256" type="curve" smooth="yes"/>
      <point x="191" y="-256"/>
      <point x="284" y="-137"/>
      <point x="284" y="35" type="curve" smooth="yes"/>
      <point x="284" y="849" type="line"/>
      <point x="84" y="849" type="line"/>
      <point x="84" y="20" type="line" smooth="yes"/>
      <point x="84" y="-53"/>
      <point x="60" y="-97"/>
      <point x="-8" y="-97" type="curve" smooth="yes"/>
      <point x="-31" y="-97"/>
      <point x="-59" y="-92"/>
      <point x="-93" y="-82" type="curve"/>
    </contour>
  </outline>
</glyph>
<glyph name="blackSquare" format="2">
  <advance width="617"/>
  <unicode hex="25A0"/>
  <outline>
    <contour>
      <point x="73" y="539" type="line"/>
      <point x="72" y="77" type="line"/>
      <point x="545" y="78" type="line"/>
      <point x="545" y="540" type="line"/>
    </contour>
  </outline>
</glyph>
<glyph name="upBlackTriangle" format="2">
  <advance width="631"/>
  <unicode hex="25B2"/>
  <outline>
    <contour>
      <point x="316" y="561" type="line"/>
      <point x="59" y="117" type="line"/>
      <point x="572" y="117" type="line"/>
    </contour>
  </outline>
</glyph>
<glyph name="downWhiteTriangle" format="2">
  <advance width="631"/>
  <unicode hex="25BD"/>
  <outline>
    <contour>
      <point x="315" y="67" type="line"/>
      <point x="572" y="511" type="line"/>
      <point x="59" y="511" type="line"/>
    </contour>
    <contour>
      <point x="347" y="239" type="line"/>
      <point x="228" y="446" type="line"/>
      <point x="198" y="392" type="line"/>
      <point x="435" y="392" type="line"/>
      <point x="405" y="445" type="line"/>
      <point x="286" y="239" type="line"/>
    </contour>
  </outline>
</glyph>
<glyph name="leftBlackTriangle" format="2">
  <advance width="610"/>
  <unicode hex="25C0"/>
  <outline>
    <contour>
      <point x="50" y="323" type="line"/>
      <point x="494" y="66" type="line"/>
      <point x="494" y="579" type="line"/>
    </contour>
  </outline>
</glyph>
<glyph name="leftWhiteTriangle" format="2">
  <advance width="610"/>
  <unicode hex="25C1"/>
  <outline>
    <contour>
      <point x="50" y="321" type="line"/>
      <point x="494" y="578" type="line"/>
      <point x="494" y="65" type="line"/>
    </contour>
    <contour>
      <point x="222" y="353" type="line"/>
      <point x="429" y="234" type="line"/>
      <point x="375" y="204" type="line"/>
      <point x="375" y="441" type="line"/>
      <point x="428" y="411" type="line"/>
      <point x="222" y="292" type="line"/>
    </contour>
  </outline>
</glyph>
<glyph name="lozenge" format="2">
  <advance width="636"/>
  <unicode hex="25CA"/>
  <guideline x="414" y="359" angle="90"/>
  <guideline x="517" y="355" angle="0"/>
  <guideline x="231" y="359" angle="90"/>
  <outline>
    <contour>
      <point x="429" y="710" type="line"/>
      <point x="206" y="710" type="line"/>
      <point x="10" y="355" type="line"/>
      <point x="206" y="0" type="line"/>
      <point x="429" y="0" type="line"/>
      <point x="626" y="355" type="line"/>
    </contour>
    <contour>
      <point x="276" y="648" type="line"/>
      <point x="471" y="276" type="line"/>
      <point x="470" y="421" type="line"/>
      <point x="287" y="61" type="line"/>
      <point x="359" y="61" type="line"/>
      <point x="166" y="436" type="line"/>
      <point x="165" y="291" type="line"/>
      <point x="349" y="648" type="line"/>
    </contour>
  </outline>
</glyph>
<glyph name="fl" format="2">
  <advance width="721"/>
  <unicode hex="FB02"/>
  <guideline x="474" y="710" angle="90" identifier="PpySXy2SYM"/>
  <anchor x="559" y="0" name="caret_1"/>
  <outline>
    <contour>
      <point x="24" y="0" type="line"/>
      <point x="344" y="0" type="line"/>
      <point x="344" y="100" type="line"/>
      <point x="260" y="129" type="line"/>
      <point x="279" y="100" type="line"/>
      <point x="279" y="428" type="line"/>
      <point x="259" y="405" type="line"/>
      <point x="385" y="405" type="line"/>
      <point x="388" y="535" type="line"/>
      <point x="259" y="535" type="line"/>
      <point x="279" y="513" type="line"/>
      <point x="279" y="559" type="line" smooth="yes"/>
      <point x="279" y="591"/>
      <point x="279" y="657"/>
      <point x="385" y="657" type="curve" smooth="yes"/>
      <point x="414" y="657"/>
      <point x="453" y="652"/>
      <point x="498" y="644" type="curve"/>
      <point x="459" y="666" type="line"/>
      <point x="459" y="100" type="line"/>
      <point x="478" y="129" type="line"/>
      <point x="401" y="100" type="line"/>
      <point x="401" y="0" type="line"/>
      <point x="714" y="0" type="line"/>
      <point x="714" y="100" type="line"/>
      <point x="640" y="129" type="line"/>
      <point x="659" y="100" type="line"/>
      <point x="659" y="787" type="line"/>
      <point x="371" y="772" type="line"/>
      <point x="552" y="763" type="line"/>
      <point x="483" y="784"/>
      <point x="417" y="795"/>
      <point x="356" y="795" type="curve" smooth="yes"/>
      <point x="197" y="795"/>
      <point x="79" y="721"/>
      <point x="79" y="557" type="curve" smooth="yes"/>
      <point x="79" y="513" type="line"/>
      <point x="95" y="540" type="line"/>
      <point x="19" y="510" type="line"/>
      <point x="19" y="405" type="line"/>
      <point x="98" y="405" type="line"/>
      <point x="79" y="428" type="line"/>
      <point x="79" y="100" type="line"/>
      <point x="98" y="129" type="line"/>
      <point x="24" y="100" type="line"/>
    </contour>
  </outline>
</glyph>
<glyph name="A.ogonekAccent" format="2">
  <advance width="718"/>
  <anchor x="341" y="0" name="bottom"/>
  <anchor x="581" y="0" name="ogonek"/>
  <anchor x="365" y="710" name="top"/>
  <outline>
    <contour>
      <point x="689" y="89" type="line"/>
      <point x="471" y="713" type="line"/>
      <point x="260" y="708" type="line"/>
      <point x="32" y="94" type="line"/>
      <point x="77" y="133" type="line"/>
      <point x="1" y="100" type="line"/>
      <point x="1" y="0" type="line"/>
      <point x="279" y="0" type="line"/>
      <point x="279" y="100" type="line"/>
      <point x="219" y="127" type="line"/>
      <point x="223" y="108" type="line"/>
      <point x="252" y="202" type="line"/>
      <point x="231" y="180" type="line"/>
      <point x="455" y="180" type="line"/>
      <point x="426" y="205" type="line"/>
      <point x="481" y="0" type="line"/>
      <point x="716" y="0" type="line"/>
      <point x="716" y="100" type="line"/>
      <point x="638" y="135" type="line"/>
    </contour>
    <contour>
      <point x="280" y="294" type="line"/>
      <point x="375" y="604" type="line"/>
      <point x="327" y="605" type="line"/>
      <point x="404" y="289" type="line"/>
      <point x="423" y="320" type="line"/>
      <point x="268" y="320" type="line"/>
    </contour>
  </outline>
</glyph>
<glyph name="T_h" format="2">
  <advance width="1132"/>
  <outline>
    <contour>
      <point x="149" y="0" type="line"/>
      <point x="484" y="0" type="line"/>
      <point x="484" y="100" type="line"/>
      <point x="391" y="135" type="line"/>
      <point x="424" y="85" type="line"/>
      <point x="424" y="595" type="line"/>
      <point x="384" y="565" type="line"/>
      <point x="629" y="565" type="line"/>
      <point x="629" y="710" type="line"/>
      <point x="14" y="710" type="line"/>
      <point x="14" y="474" type="line"/>
      <point x="134" y="474" type="line"/>
      <point x="166" y="603" type="line"/>
      <point x="122" y="565" type="line"/>
      <point x="259" y="565" type="line"/>
      <point x="219" y="595" type="line"/>
      <point x="219" y="85" type="line"/>
      <point x="254" y="135" type="line"/>
      <point x="149" y="100" type="line"/>
    </contour>
    <contour>
      <point x="509" y="0" type="line"/>
      <point x="809" y="0" type="line"/>
      <point x="809" y="100" type="line"/>
      <point x="748" y="126" type="line"/>
      <point x="764" y="99" type="line"/>
      <point x="764" y="394" type="line"/>
      <point x="752" y="366" type="line"/>
      <point x="782" y="392"/>
      <point x="813" y="405"/>
      <point x="837" y="405" type="curve" smooth="yes"/>
      <point x="865" y="405"/>
      <point x="884" y="387"/>
      <point x="884" y="350" type="curve" smooth="yes"/>
      <point x="884" y="99" type="line"/>
      <point x="905" y="127" type="line"/>
      <point x="839" y="100" type="line"/>
      <point x="839" y="0" type="line"/>
      <point x="1129" y="0" type="line"/>
      <point x="1129" y="100" type="line"/>
      <point x="1068" y="129" type="line"/>
      <point x="1084" y="103" type="line"/>
      <point x="1084" y="388" type="line" smooth="yes"/>
      <point x="1084" y="492"/>
      <point x="1015" y="555"/>
      <point x="927" y="555" type="curve" smooth="yes"/>
      <point x="864" y="555"/>
      <point x="790" y="524"/>
      <point x="726" y="461" type="curve"/>
      <point x="764" y="453" type="line"/>
      <point x="764" y="785" type="line"/>
      <point x="564" y="775" type="line"/>
      <point x="564" y="103" type="line"/>
      <point x="586" y="130" type="line"/>
      <point x="509" y="100" type="line"/>
    </contour>
  </outline>
</glyph>
<glyph name="a.sc" format="2">
  <advance width="684"/>
  <anchor x="325" y="0" name="bottom"/>
  <anchor x="684" y="0" name="ogonek"/>
  <anchor x="350" y="591" name="top"/>
  <outline>
    <contour>
      <point x="653" y="91" type="line"/>
      <point x="462" y="596" type="line"/>
      <point x="238" y="591" type="line"/>
      <point x="38" y="99" type="line"/>
      <point x="78" y="130" type="line"/>
      <point x="0" y="100" type="line"/>
      <point x="0" y="0" type="line"/>
      <point x="283" y="0" type="line"/>
      <point x="283" y="100" type="line"/>
      <point x="230" y="130" type="line"/>
      <point x="232" y="106" type="line"/>
      <point x="253" y="174" type="line"/>
      <point x="233" y="151" type="line"/>
      <point x="423" y="151" type="line"/>
      <point x="397" y="179" type="line"/>
      <point x="419" y="102" type="line"/>
      <point x="430" y="134" type="line"/>
      <point x="370" y="100" type="line"/>
      <point x="370" y="0" type="line"/>
      <point x="684" y="0" type="line"/>
      <point x="684" y="100" type="line"/>
      <point x="609" y="132" type="line"/>
    </contour>
    <contour>
      <point x="273" y="246" type="line"/>
      <point x="354" y="489" type="line"/>
      <point x="317" y="490" type="line"/>
      <point x="379" y="244" type="line"/>
      <point x="389" y="277" type="line"/>
      <point x="271" y="277" type="line"/>
    </contour>
  </outline>
</glyph>
<glyph name="acutecomb.case" format="2">
  <anchor x="188" y="710" name="_top"/>
  <anchor x="188" y="950" name="top"/>
  <outline>
    <contour>
      <point x="82" y="756" type="line"/>
      <point x="360" y="857" type="line"/>
      <point x="288" y="1002" type="line"/>
      <point x="27" y="862" type="line"/>
    </contour>
  </outline>
</glyph>
<glyph name="acutecomb.loclPLK" format="2">
  <guideline x="166" y="827" angle="0" identifier="MaIux00aSm"/>
  <guideline x="166" y="633" angle="0" identifier="wUnX8ev5lx"/>
  <guideline x="168" y="864" angle="0" identifier="DIGc7j7he4"/>
  <guideline x="164" y="601" angle="0" identifier="UEOTIHBORr"/>
  <anchor x="198" y="540" name="_top"/>
  <anchor x="193" y="840" name="top"/>
  <outline>
    <contour>
      <point x="214" y="592" type="line"/>
      <point x="366" y="781" type="line"/>
      <point x="234" y="861" type="line"/>
      <point x="113" y="644" type="line"/>
    </contour>
  </outline>
</glyph>
<glyph name="acutedotaccentcomb.case" format="2">
  <advance width="390"/>
  <guideline x="17" y="774" angle="0" identifier="PEBsOu6DcT"/>
  <guideline x="17" y="968" angle="0" identifier="g9BdqB9dY1"/>
  <guideline x="17" y="756" angle="0" identifier="DJtMVLlEjQ"/>
  <guideline x="17" y="998" angle="0" identifier="UZ9WOnZ3Wj"/>
  <anchor x="195" y="710" name="_top"/>
  <outline>
    <contour>
      <point x="77" y="735" type="line"/>
      <point x="360" y="821" type="line"/>
      <point x="296" y="970" type="line"/>
      <point x="28" y="843" type="line"/>
    </contour>
    <contour>
      <point x="174" y="943" type="curve" smooth="yes"/>
      <point x="230" y="943"/>
      <point x="273" y="976"/>
      <point x="273" y="1041" type="curve" smooth="yes"/>
      <point x="273" y="1107"/>
      <point x="231" y="1138"/>
      <point x="175" y="1138" type="curve" smooth="yes"/>
      <point x="117" y="1138"/>
      <point x="75" y="1106"/>
      <point x="75" y="1040" type="curve" smooth="yes"/>
      <point x="75" y="977"/>
      <point x="115" y="943"/>
    </contour>
  </outline>
</glyph>
<glyph name="acutedotaccentcomb" format="2">
  <advance width="386"/>
  <anchor x="185" y="540" name="_top"/>
  <outline>
    <contour>
      <point x="74" y="558" type="line"/>
      <point x="355" y="665" type="line"/>
      <point x="277" y="808" type="line"/>
      <point x="21" y="661" type="line"/>
    </contour>
    <contour>
      <point x="159" y="780" type="curve" smooth="yes"/>
      <point x="215" y="780"/>
      <point x="258" y="813"/>
      <point x="258" y="878" type="curve" smooth="yes"/>
      <point x="258" y="944"/>
      <point x="216" y="975"/>
      <point x="160" y="975" type="curve" smooth="yes"/>
      <point x="102" y="975"/>
      <point x="60" y="943"/>
      <point x="60" y="877" type="curve" smooth="yes"/>
      <point x="60" y="814"/>
      <point x="100" y="780"/>
    </contour>
  </outline>
</glyph>
<glyph name="ampersand.sc" format="2">
  <advance width="655"/>
  <guideline x="388" y="492" angle="90" identifier="QuJmUPC9vH"/>
  <guideline x="586" y="492" angle="90" identifier="f9SARnPc49"/>
  <outline>
    <contour>
      <point x="283" y="-14" type="curve" smooth="yes"/>
      <point x="443" y="-14"/>
      <point x="576" y="50"/>
      <point x="576" y="188" type="curve" smooth="yes"/>
      <point x="576" y="276" type="line"/>
      <point x="558" y="244" type="line"/>
      <point x="636" y="270" type="line"/>
      <point x="636" y="374" type="line"/>
      <point x="324" y="374" type="line" smooth="yes"/>
      <point x="295" y="374"/>
      <point x="258" y="388"/>
      <point x="258" y="421" type="curve" smooth="yes"/>
      <point x="258" y="450"/>
      <point x="285" y="461"/>
      <point x="319" y="461" type="curve" smooth="yes"/>
      <point x="342" y="461"/>
      <point x="371" y="456"/>
      <point x="407" y="448" type="curve"/>
      <point x="380" y="471" type="line"/>
      <point x="394" y="416" type="line"/>
      <point x="514" y="416" type="line"/>
      <point x="525" y="569" type="line"/>
      <point x="449" y="593"/>
      <point x="367" y="606"/>
      <point x="302" y="606" type="curve" smooth="yes"/>
      <point x="177" y="606"/>
      <point x="51" y="559"/>
      <point x="51" y="444" type="curve" smooth="yes"/>
      <point x="51" y="360"/>
      <point x="118" y="305"/>
      <point x="233" y="297" type="curve"/>
      <point x="227" y="321" type="line"/>
      <point x="94" y="303"/>
      <point x="32" y="239"/>
      <point x="32" y="153" type="curve" smooth="yes"/>
      <point x="32" y="37"/>
      <point x="144" y="-14"/>
    </contour>
    <contour>
      <point x="306" y="135" type="curve" smooth="yes"/>
      <point x="267" y="135"/>
      <point x="241" y="154"/>
      <point x="241" y="184" type="curve" smooth="yes"/>
      <point x="241" y="214"/>
      <point x="267" y="233"/>
      <point x="306" y="233" type="curve" smooth="yes"/>
      <point x="412" y="233" type="line"/>
      <point x="378" y="256" type="line"/>
      <point x="378" y="188" type="line" smooth="yes"/>
      <point x="378" y="156"/>
      <point x="349" y="135"/>
    </contour>
  </outline>
</glyph>
<glyph name="asterisk.alt" format="2">
  <advance width="442"/>
  <outline>
    <contour>
      <point x="224" y="604" type="line"/>
      <point x="262" y="653" type="line"/>
      <point x="285" y="760" type="line"/>
      <point x="156" y="760" type="line"/>
      <point x="178" y="653" type="line"/>
    </contour>
    <contour>
      <point x="201" y="591" type="line"/>
      <point x="178" y="653" type="line"/>
      <point x="91" y="727" type="line"/>
      <point x="30" y="616" type="line"/>
      <point x="133" y="583" type="line"/>
    </contour>
    <contour>
      <point x="199" y="568" type="line"/>
      <point x="133" y="583" type="line"/>
      <point x="26" y="541" type="line"/>
      <point x="91" y="434" type="line"/>
      <point x="178" y="510" type="line"/>
    </contour>
    <contour>
      <point x="223" y="557" type="line"/>
      <point x="178" y="510" type="line"/>
      <point x="156" y="408" type="line"/>
      <point x="285" y="408" type="line"/>
      <point x="260" y="511" type="line"/>
    </contour>
    <contour>
      <point x="248" y="566" type="line"/>
      <point x="260" y="511" type="line"/>
      <point x="353" y="432" type="line"/>
      <point x="415" y="539" type="line"/>
      <point x="312" y="581" type="line"/>
    </contour>
    <contour>
      <point x="246" y="591" type="line"/>
      <point x="312" y="581" type="line"/>
      <point x="415" y="622" type="line"/>
      <point x="349" y="727" type="line"/>
      <point x="262" y="653" type="line"/>
    </contour>
  </outline>
</glyph>
<glyph name="b.sc" format="2">
  <advance width="609"/>
  <anchor x="315" y="0" name="bottom"/>
  <anchor x="315" y="591" name="top"/>
  <outline>
    <contour>
      <point x="347" y="293" type="line"/>
      <point x="489" y="296"/>
      <point x="570" y="332"/>
      <point x="570" y="443" type="curve" smooth="yes"/>
      <point x="570" y="559"/>
      <point x="480" y="591"/>
      <point x="346" y="591" type="curve" smooth="yes"/>
      <point x="271" y="591" type="line"/>
      <point x="26" y="589" type="line"/>
      <point x="26" y="489" type="line"/>
      <point x="107" y="455" type="line"/>
      <point x="76" y="495" type="line"/>
      <point x="76" y="93" type="line"/>
      <point x="100" y="131" type="line"/>
      <point x="26" y="100" type="line"/>
      <point x="26" y="0" type="line"/>
      <point x="323" y="0" type="line" smooth="yes"/>
      <point x="493" y="0"/>
      <point x="594" y="52"/>
      <point x="594" y="171" type="curve" smooth="yes"/>
      <point x="594" y="292"/>
      <point x="491" y="314"/>
      <point x="360" y="312" type="curve"/>
    </contour>
    <contour>
      <point x="303" y="453" type="line" smooth="yes"/>
      <point x="342" y="453"/>
      <point x="367" y="449"/>
      <point x="367" y="412" type="curve" smooth="yes"/>
      <point x="367" y="374"/>
      <point x="341" y="367"/>
      <point x="290" y="367" type="curve" smooth="yes"/>
      <point x="249" y="367" type="line"/>
      <point x="279" y="338" type="line"/>
      <point x="279" y="482" type="line"/>
      <point x="249" y="453" type="line"/>
    </contour>
    <contour>
      <point x="304" y="138" type="curve" smooth="yes"/>
      <point x="249" y="138" type="line"/>
      <point x="279" y="109" type="line"/>
      <point x="279" y="277" type="line"/>
      <point x="249" y="247" type="line"/>
      <point x="324" y="247" type="line" smooth="yes"/>
      <point x="363" y="247"/>
      <point x="383" y="233"/>
      <point x="383" y="194" type="curve" smooth="yes"/>
      <point x="383" y="145"/>
      <point x="352" y="138"/>
    </contour>
  </outline>
</glyph>
<glyph name="be-cy.loclSRB" format="2">
  <advance width="571"/>
  <outline>
    <contour>
      <point x="272" y="-15" type="curve" smooth="yes"/>
      <point x="455" y="-15"/>
      <point x="560" y="91"/>
      <point x="560" y="263" type="curve" smooth="yes"/>
      <point x="560" y="562"/>
      <point x="249" y="538"/>
      <point x="249" y="606" type="curve" smooth="yes"/>
      <point x="249" y="627"/>
      <point x="263" y="633"/>
      <point x="288" y="633" type="curve" smooth="yes"/>
      <point x="501" y="633" type="line"/>
      <point x="492" y="823" type="line"/>
      <point x="372" y="823" type="line"/>
      <point x="356" y="755" type="line"/>
      <point x="371" y="773" type="line"/>
      <point x="224" y="773" type="line" smooth="yes"/>
      <point x="103" y="773"/>
      <point x="48" y="713"/>
      <point x="48" y="636" type="curve" smooth="yes"/>
      <point x="48" y="547"/>
      <point x="126" y="489"/>
      <point x="273" y="433" type="curve"/>
      <point x="294" y="505" type="line"/>
      <point x="286" y="505"/>
      <point x="278" y="505"/>
      <point x="271" y="504" type="curve" smooth="yes"/>
      <point x="111" y="481"/>
      <point x="10" y="411"/>
      <point x="10" y="239" type="curve" smooth="yes"/>
      <point x="10" y="72"/>
      <point x="106" y="-15"/>
    </contour>
    <contour>
      <point x="284" y="125" type="curve" smooth="yes"/>
      <point x="243" y="125"/>
      <point x="218" y="150"/>
      <point x="218" y="250" type="curve" smooth="yes"/>
      <point x="218" y="359"/>
      <point x="247" y="375"/>
      <point x="284" y="375" type="curve" smooth="yes"/>
      <point x="327" y="375"/>
      <point x="352" y="353"/>
      <point x="352" y="256" type="curve" smooth="yes"/>
      <point x="352" y="147"/>
      <point x="322" y="125"/>
    </contour>
  </outline>
</glyph>
<glyph name="bracketright.case" format="2">
  <advance width="351"/>
  <guideline x="223" y="-118" angle="0"/>
  <outline>
    <contour>
      <point x="293" y="-118" type="line"/>
      <point x="5" y="-113" type="line"/>
      <point x="5" y="7" type="line"/>
      <point x="123" y="17" type="line"/>
      <point x="123" y="687" type="line"/>
      <point x="5" y="697" type="line"/>
      <point x="5" y="817" type="line"/>
      <point x="293" y="822" type="line"/>
    </contour>
  </outline>
</glyph>
<glyph name="brevecomb-cy.case" format="2">
  <guideline y="774" identifier="JPoY6deOrD"/>
  <guideline y="968" identifier="hsCvO8u78r"/>
  <guideline y="756" identifier="V7KRT33sYf"/>
  <guideline y="998" identifier="dir9sbcI1g"/>
  <anchor x="248" y="710" name="_top"/>
  <outline>
    <contour>
      <point x="246" y="769" type="curve" smooth="yes"/>
      <point x="395" y="769"/>
      <point x="482" y="845"/>
      <point x="477" y="973" type="curve"/>
      <point x="331" y="964" type="line"/>
      <point x="335" y="899"/>
      <point x="313" y="869"/>
      <point x="264" y="869" type="curve" smooth="yes"/>
      <point x="213" y="869"/>
      <point x="188" y="902"/>
      <point x="182" y="973" type="curve"/>
      <point x="9" y="960" type="line"/>
      <point x="14" y="840"/>
      <point x="101" y="769"/>
    </contour>
  </outline>
</glyph>
<glyph name="brevecomb.case" format="2">
  <anchor x="208" y="710" name="_top"/>
  <anchor x="208" y="950" name="top"/>
  <outline>
    <contour>
      <point x="205" y="771" type="curve" smooth="yes"/>
      <point x="301" y="771"/>
      <point x="398" y="840"/>
      <point x="395" y="966" type="curve"/>
      <point x="283" y="961" type="line"/>
      <point x="279" y="916"/>
      <point x="247" y="894"/>
      <point x="213" y="894" type="curve" smooth="yes"/>
      <point x="178" y="894"/>
      <point x="142" y="918"/>
      <point x="135" y="970" type="curve"/>
      <point x="20" y="957" type="line"/>
      <point x="22" y="834"/>
      <point x="113" y="771"/>
    </contour>
  </outline>
</glyph>
<glyph name="brevecomb_gravecomb.case" format="2">
  <guideline x="305" y="1158" angle="0" identifier="BWNHjPFspU"/>
  <guideline x="-2" y="774" angle="0" identifier="OAORFJCUbG"/>
  <guideline x="-2" y="968" angle="0" identifier="ioPEi5KOpq"/>
  <guideline x="-2" y="756" angle="0" identifier="OZu6OTxoVd"/>
  <guideline x="-2" y="998" angle="0" identifier="HPDjFTwRUH"/>
  <anchor x="218" y="710" name="_top"/>
  <anchor x="218" y="1100" name="top"/>
  <outline>
    <contour>
      <point x="220" y="910" type="line"/>
      <point x="36" y="1058" type="line"/>
      <point x="135" y="1159" type="line"/>
      <point x="297" y="987" type="line"/>
    </contour>
    <component base="brevecomb.case" xOffset="10" yOffset="-30"/>
  </outline>
</glyph>
<glyph name="brevecomb_tildecomb.case" format="2">
  <guideline x="215" y="780" angle="0" identifier="aAcHvu2DDQ"/>
  <guideline x="215" y="1134" angle="0" identifier="C38uDTJkcw"/>
  <guideline y="774" identifier="aqH8ivk31i"/>
  <guideline y="968" identifier="VZArMgNeOz"/>
  <guideline y="756" identifier="QAulnMVBM4"/>
  <guideline y="998" identifier="cdnZ9u8ryY"/>
  <guideline x="49" y="823" angle="90" identifier="mYTbCvT4qH"/>
  <guideline x="424" y="823" angle="90" identifier="XQlKKkretK"/>
  <anchor x="235" y="710" name="_top"/>
  <anchor x="234" y="1100" name="top"/>
  <outline>
    <contour>
      <point x="109" y="951" type="line"/>
      <point x="129" y="982"/>
      <point x="143" y="996"/>
      <point x="163" y="996" type="curve" smooth="yes"/>
      <point x="197" y="996"/>
      <point x="259" y="953"/>
      <point x="308" y="953" type="curve" smooth="yes"/>
      <point x="365" y="953"/>
      <point x="408" y="995"/>
      <point x="435" y="1097" type="curve"/>
      <point x="357" y="1132" type="line"/>
      <point x="338" y="1100"/>
      <point x="322" y="1085"/>
      <point x="299" y="1085" type="curve" smooth="yes"/>
      <point x="261" y="1085"/>
      <point x="204" y="1129"/>
      <point x="151" y="1129" type="curve" smooth="yes"/>
      <point x="97" y="1129"/>
      <point x="60" y="1087"/>
      <point x="33" y="987" type="curve"/>
    </contour>
    <component base="brevecomb.case" xOffset="29" yOffset="-30"/>
  </outline>
</glyph>
<glyph name="brevecomb_tildecomb" format="2">
  <anchor x="231" y="540" name="_top"/>
  <anchor x="235" y="900" name="top"/>
  <outline>
    <contour>
      <point x="110" y="809" type="line"/>
      <point x="130" y="840"/>
      <point x="144" y="854"/>
      <point x="164" y="854" type="curve" smooth="yes"/>
      <point x="198" y="854"/>
      <point x="260" y="811"/>
      <point x="309" y="811" type="curve" smooth="yes"/>
      <point x="366" y="811"/>
      <point x="409" y="853"/>
      <point x="436" y="955" type="curve"/>
      <point x="358" y="990" type="line"/>
      <point x="339" y="958"/>
      <point x="323" y="943"/>
      <point x="300" y="943" type="curve" smooth="yes"/>
      <point x="262" y="943"/>
      <point x="205" y="987"/>
      <point x="152" y="987" type="curve" smooth="yes"/>
      <point x="98" y="987"/>
      <point x="61" y="945"/>
      <point x="34" y="845" type="curve"/>
    </contour>
    <component base="brevecomb.case" xOffset="29" yOffset="-184"/>
  </outline>
</glyph>
<glyph name="c.sc" format="2">
  <advance width="584"/>
  <anchor x="317" y="0" name="bottom"/>
  <anchor x="317" y="591" name="top"/>
  <outline>
    <contour>
      <point x="307" y="-15" type="curve" smooth="yes"/>
      <point x="388" y="-15"/>
      <point x="480" y="12"/>
      <point x="570" y="70" type="curve"/>
      <point x="506" y="180" type="line"/>
      <point x="439" y="149"/>
      <point x="385" y="132"/>
      <point x="344" y="132" type="curve" smooth="yes"/>
      <point x="267" y="132"/>
      <point x="228" y="192"/>
      <point x="228" y="312" type="curve" smooth="yes"/>
      <point x="228" y="404"/>
      <point x="251" y="461"/>
      <point x="341" y="461" type="curve" smooth="yes"/>
      <point x="365" y="461"/>
      <point x="395" y="457"/>
      <point x="430" y="447" type="curve"/>
      <point x="401" y="476" type="line"/>
      <point x="433" y="382" type="line"/>
      <point x="553" y="382" type="line"/>
      <point x="565" y="554" type="line"/>
      <point x="480" y="589"/>
      <point x="397" y="606"/>
      <point x="324" y="606" type="curve" smooth="yes"/>
      <point x="142" y="606"/>
      <point x="17" y="501"/>
      <point x="17" y="299" type="curve" smooth="yes"/>
      <point x="17" y="97"/>
      <point x="132" y="-15"/>
    </contour>
  </outline>
</glyph>
<glyph name="c_t.BRACKET.165" format="2">
  <advance width="906"/>
  <outline>
    <contour>
      <point x="273" y="-15" type="curve" smooth="yes"/>
      <point x="351" y="-15"/>
      <point x="437" y="14"/>
      <point x="515" y="75" type="curve"/>
      <point x="451" y="174" type="line"/>
      <point x="398" y="145"/>
      <point x="354" y="130"/>
      <point x="318" y="130" type="curve" smooth="yes"/>
      <point x="254" y="130"/>
      <point x="221" y="178"/>
      <point x="221" y="281" type="curve" smooth="yes"/>
      <point x="221" y="361"/>
      <point x="241" y="415"/>
      <point x="311" y="415" type="curve" smooth="yes"/>
      <point x="328" y="415"/>
      <point x="352" y="412"/>
      <point x="360" y="411" type="curve"/>
      <point x="343" y="419" type="line"/>
      <point x="358" y="349" type="line"/>
      <point x="484" y="349" type="line"/>
      <point x="479" y="425"/>
      <point x="475" y="492"/>
      <point x="475" y="529" type="curve" smooth="yes"/>
      <point x="475" y="587"/>
      <point x="485" y="611"/>
      <point x="526" y="611" type="curve" smooth="yes"/>
      <point x="534" y="611"/>
      <point x="549" y="610"/>
      <point x="565" y="607" type="curve"/>
      <point x="542" y="627" type="line"/>
      <point x="542" y="184" type="line" smooth="yes"/>
      <point x="542" y="51"/>
      <point x="597" y="-15"/>
      <point x="712" y="-15" type="curve" smooth="yes"/>
      <point x="771" y="-15"/>
      <point x="833" y="2"/>
      <point x="900" y="39" type="curve"/>
      <point x="864" y="146" type="line"/>
      <point x="834" y="136"/>
      <point x="811" y="130"/>
      <point x="793" y="130" type="curve" smooth="yes"/>
      <point x="757" y="130"/>
      <point x="743" y="153"/>
      <point x="743" y="211" type="curve" smooth="yes"/>
      <point x="743" y="434" type="line"/>
      <point x="724" y="410" type="line"/>
      <point x="878" y="410" type="line"/>
      <point x="878" y="540" type="line"/>
      <point x="724" y="540" type="line"/>
      <point x="743" y="515" type="line"/>
      <point x="743" y="693" type="line"/>
      <point x="660" y="710"/>
      <point x="594" y="721"/>
      <point x="531" y="721" type="curve" smooth="yes"/>
      <point x="416" y="721"/>
      <point x="342" y="684"/>
      <point x="342" y="575" type="curve" smooth="yes"/>
      <point x="342" y="564"/>
      <point x="342" y="552"/>
      <point x="344" y="540" type="curve"/>
      <point x="374" y="549" type="line"/>
      <point x="352" y="553"/>
      <point x="327" y="555"/>
      <point x="303" y="555" type="curve" smooth="yes"/>
      <point x="165" y="555"/>
      <point x="13" y="488"/>
      <point x="13" y="271" type="curve" smooth="yes"/>
      <point x="13" y="82"/>
      <point x="129" y="-15"/>
    </contour>
  </outline>
</glyph>
